<?xml version="1.0" encoding="iso-8859-1"?>
<!-- Generator: Adobe Illustrator 16.0.0, SVG Export Plug-In . SVG Version: 6.00 Build 0)  -->
<!DOCTYPE svg PUBLIC "-//W3C//DTD SVG 1.1//EN" "http://www.w3.org/Graphics/SVG/1.1/DTD/svg11.dtd">
<svg version="1.1" id="Capa_1" xmlns="http://www.w3.org/2000/svg" xmlns:xlink="http://www.w3.org/1999/xlink" x="0px" y="0px"
	 width="641.143px" height="641.143px" viewBox="0 0 641.143 641.143" style="enable-background:new 0 0 641.143 641.143;"
	 xml:space="preserve">
<g>
	<g>
		<polygon points="480.857,524.571 422.571,524.571 422.571,582.857 480.857,582.857 480.857,641.143 539.143,641.143 
			539.143,582.857 597.429,582.857 597.429,524.571 539.143,524.571 539.143,466.285 480.857,466.285 		"/>
		<path d="M568.285,233.143h29.144c16.087,0,29.143-12.765,29.143-29.23V58.373c0-16.145-12.939-29.23-29.143-29.23H480.857v411.672
			c9.325-2.39,19.088-3.672,29.143-3.672c21.245,0,41.149,5.683,58.285,15.592V233.143z"/>
		<path d="M422.367,0H43.947C27.715,0,14.571,12.793,14.571,29.201v582.711c0,16.146,13.085,29.23,29.376,29.23h378.42
			c3.147,0,6.179-0.495,9.005-1.369c-23.313-21.333-37.943-51.991-37.943-86.06c0-43.16,23.431-80.812,58.285-100.979V29.201
			C451.714,13.085,438.629,0,422.367,0z"/>
	</g>
</g>
<g>
</g>
<g>
</g>
<g>
</g>
<g>
</g>
<g>
</g>
<g>
</g>
<g>
</g>
<g>
</g>
<g>
</g>
<g>
</g>
<g>
</g>
<g>
</g>
<g>
</g>
<g>
</g>
<g>
</g>
</svg>
