<?xml version="1.0" encoding="iso-8859-1"?>
<!-- Generator: Adobe Illustrator 16.0.0, SVG Export Plug-In . SVG Version: 6.00 Build 0)  -->
<!DOCTYPE svg PUBLIC "-//W3C//DTD SVG 1.1//EN" "http://www.w3.org/Graphics/SVG/1.1/DTD/svg11.dtd">
<svg version="1.1" id="Capa_1" xmlns="http://www.w3.org/2000/svg" xmlns:xlink="http://www.w3.org/1999/xlink" x="0px" y="0px"
	 width="673.199px" height="673.199px" viewBox="0 0 673.199 673.199" style="enable-background:new 0 0 673.199 673.199;"
	 xml:space="preserve">
<g>
	<g>
		<path d="M67.32,612H91.8v-91.801H67.32c0,0-36.72,0-36.72,45.9S67.32,612,67.32,612z"/>
		<path d="M67.32,489.6H91.8v-91.799H67.32c0,0-36.72,0-36.72,45.898C30.6,489.6,67.32,489.6,67.32,489.6z"/>
		<path d="M67.32,214.2H91.8v-91.8H67.32c0,0-36.72,0-36.72,45.9C30.6,214.2,67.32,214.2,67.32,214.2z"/>
		<path d="M67.32,336.6H91.8V244.8H67.32c0,0-36.72,0-36.72,45.9C30.6,336.6,67.32,336.6,67.32,336.6z"/>
		<path d="M122.399,75.123v584.123c0,7.711,6.182,13.953,14.137,13.953h333.326c-9.118-8.047-17.014-17.41-23.409-27.814H150.368
			V89.016H553.4v370.016c9.64,0.213,19.003,1.529,27.969,3.824V75.123c0.03-7.681-6.15-13.923-14.106-13.923H136.537
			C128.734,61.2,122.399,67.442,122.399,75.123z"/>
		<path d="M642.6,0H153v28.703h461.631v448.26c10.466,6.395,19.891,14.352,27.969,23.5V0z"/>
		<polygon points="581.399,673.199 581.399,612 642.6,612 642.6,550.801 581.399,550.801 581.399,489.6 520.199,489.6 
			520.199,550.801 459,550.801 459,612 520.199,612 520.199,673.199 		"/>
	</g>
</g>
<g>
</g>
<g>
</g>
<g>
</g>
<g>
</g>
<g>
</g>
<g>
</g>
<g>
</g>
<g>
</g>
<g>
</g>
<g>
</g>
<g>
</g>
<g>
</g>
<g>
</g>
<g>
</g>
<g>
</g>
</svg>
