<?xml version="1.0" encoding="iso-8859-1"?>
<!-- Generator: Adobe Illustrator 16.0.0, SVG Export Plug-In . SVG Version: 6.00 Build 0)  -->
<!DOCTYPE svg PUBLIC "-//W3C//DTD SVG 1.1//EN" "http://www.w3.org/Graphics/SVG/1.1/DTD/svg11.dtd">
<svg version="1.1" id="Capa_1" xmlns="http://www.w3.org/2000/svg" xmlns:xlink="http://www.w3.org/1999/xlink" x="0px" y="0px"
	 width="792px" height="792px" viewBox="0 0 792 792" style="enable-background:new 0 0 792 792;" xml:space="preserve">
<g>
	<g>
		<polygon points="612,792 612,720 684,720 684,648 612,648 612,576 540,576 540,648 468,648 468,720 540,720 540,792 		"/>
		<path d="M125.46,0c0,0-17.46,0-17.46,17.604V774.36C108,792,125.46,792,125.46,792h355.284C450.864,765.612,432,727.02,432,684
			H216v-36h220.536c7.271-28.296,22.968-53.244,44.208-72H216v-36h360c43.02,0,81.612,18.864,108,48.744V180H540c0,0-36,0-36-36V0
			H125.46z M216,108h216v36H216V108z M216,216h216v36H216V216z M576,468H216v-36h360V468z M576,324v36H216v-36H576z"/>
		<polygon points="540,144 669.708,144 540,13.212 		"/>
	</g>
</g>
<g>
</g>
<g>
</g>
<g>
</g>
<g>
</g>
<g>
</g>
<g>
</g>
<g>
</g>
<g>
</g>
<g>
</g>
<g>
</g>
<g>
</g>
<g>
</g>
<g>
</g>
<g>
</g>
<g>
</g>
</svg>
