<?xml version="1.0" encoding="iso-8859-1"?>
<!-- Generator: Adobe Illustrator 16.0.0, SVG Export Plug-In . SVG Version: 6.00 Build 0)  -->
<!DOCTYPE svg PUBLIC "-//W3C//DTD SVG 1.1//EN" "http://www.w3.org/Graphics/SVG/1.1/DTD/svg11.dtd">
<svg version="1.1" id="Capa_1" xmlns="http://www.w3.org/2000/svg" xmlns:xlink="http://www.w3.org/1999/xlink" x="0px" y="0px"
	 width="775.199px" height="775.199px" viewBox="0 0 775.199 775.199" style="enable-background:new 0 0 775.199 775.199;"
	 xml:space="preserve">
<g>
	<g>
		<polygon points="612,775.199 612,693.6 693.6,693.6 693.6,612 612,612 612,530.4 530.399,530.4 530.399,612 448.8,612 
			448.8,693.6 530.399,693.6 530.399,775.199 		"/>
		<path d="M693.6,8.568c0-4.732-3.754-8.568-8.405-8.568H90.004C85.353,0,81.6,3.794,81.6,8.568v758.065
			c0,4.732,3.753,8.566,8.405,8.566h373.239C429.379,745.293,408,701.557,408,652.801H163.2V612h249.941
			c8.241-32.068,26.03-60.344,50.103-81.6H163.2V489.6H612v5.141c32.068,8.242,60.343,26.031,81.6,50.104V8.568z M612,408H163.2
			v-40.8H612V408z M612,285.6H163.2v-40.8H612V285.6z M612,163.2H163.2v-40.8H612V163.2z"/>
	</g>
</g>
<g>
</g>
<g>
</g>
<g>
</g>
<g>
</g>
<g>
</g>
<g>
</g>
<g>
</g>
<g>
</g>
<g>
</g>
<g>
</g>
<g>
</g>
<g>
</g>
<g>
</g>
<g>
</g>
<g>
</g>
</svg>
