<?xml version="1.0" encoding="iso-8859-1"?>
<!-- Generator: Adobe Illustrator 16.0.0, SVG Export Plug-In . SVG Version: 6.00 Build 0)  -->
<!DOCTYPE svg PUBLIC "-//W3C//DTD SVG 1.1//EN" "http://www.w3.org/Graphics/SVG/1.1/DTD/svg11.dtd">
<svg version="1.1" id="Capa_1" xmlns="http://www.w3.org/2000/svg" xmlns:xlink="http://www.w3.org/1999/xlink" x="0px" y="0px"
	 width="641.143px" height="641.143px" viewBox="0 0 641.143 641.143" style="enable-background:new 0 0 641.143 641.143;"
	 xml:space="preserve">
<g>
	<g>
		<path d="M422.367,0H43.947C27.715,0,14.571,12.793,14.571,29.201v582.711c0,16.146,13.085,29.23,29.376,29.23h378.42
			c3.147,0,6.179-0.495,9.005-1.369c-8.801-8.044-16.349-17.398-22.353-27.773H43.714V29.143h378.857v447.46
			c8.335-9.442,18.186-17.516,29.143-23.868V29.201C451.714,13.085,438.629,0,422.367,0z"/>
		<path d="M539.143,204v236.814c10.346,2.652,20.108,6.703,29.143,11.92V233.143h29.144c16.087,0,29.143-12.765,29.143-29.23V58.373
			c0-16.145-12.939-29.23-29.143-29.23H480.857v29.143h116.571V204H539.143z"/>
		<polygon points="480.857,524.571 422.571,524.571 422.571,582.857 480.857,582.857 480.857,641.143 539.143,641.143 
			539.143,582.857 597.429,582.857 597.429,524.571 539.143,524.571 539.143,466.285 480.857,466.285 		"/>
	</g>
</g>
<g>
</g>
<g>
</g>
<g>
</g>
<g>
</g>
<g>
</g>
<g>
</g>
<g>
</g>
<g>
</g>
<g>
</g>
<g>
</g>
<g>
</g>
<g>
</g>
<g>
</g>
<g>
</g>
<g>
</g>
</svg>
