<?xml version="1.0" encoding="iso-8859-1"?>
<!-- Generator: Adobe Illustrator 16.0.0, SVG Export Plug-In . SVG Version: 6.00 Build 0)  -->
<!DOCTYPE svg PUBLIC "-//W3C//DTD SVG 1.1//EN" "http://www.w3.org/Graphics/SVG/1.1/DTD/svg11.dtd">
<svg version="1.1" id="Capa_1" xmlns="http://www.w3.org/2000/svg" xmlns:xlink="http://www.w3.org/1999/xlink" x="0px" y="0px"
	 width="612px" height="612px" viewBox="0 0 612 612" style="enable-background:new 0 0 612 612;" xml:space="preserve">
<g>
	<g>
		<path d="M205.938,13.909H44.426c-9.18,0-16.607,7.483-16.607,16.496V153h27.818V41.727h139.091v55.637h361.636V153h27.818V86.042
			c0-9.125-7.566-16.496-16.468-16.496H222.545V30.294C222.545,21.253,215.146,13.909,205.938,13.909z"/>
		<path d="M0,197.175v384.558c0,9.041,7.289,16.357,16.357,16.357h438.582c-9.013-7.956-16.719-17.358-22.783-27.818H27.818V208.636
			h556.363v209.61c10.46,6.064,19.862,13.771,27.818,22.783V197.175c0-9.041-7.288-16.357-16.385-16.357H16.357
			C7.316,180.818,0,188.051,0,197.175z"/>
		<polygon points="556.363,598.091 556.363,542.454 612,542.454 612,486.818 556.363,486.818 556.363,431.182 500.728,431.182 
			500.728,486.818 445.091,486.818 445.091,542.454 500.728,542.454 500.728,598.091 		"/>
	</g>
</g>
<g>
</g>
<g>
</g>
<g>
</g>
<g>
</g>
<g>
</g>
<g>
</g>
<g>
</g>
<g>
</g>
<g>
</g>
<g>
</g>
<g>
</g>
<g>
</g>
<g>
</g>
<g>
</g>
<g>
</g>
</svg>
