<?xml version="1.0" encoding="iso-8859-1"?>
<!-- Generator: Adobe Illustrator 16.0.0, SVG Export Plug-In . SVG Version: 6.00 Build 0)  -->
<!DOCTYPE svg PUBLIC "-//W3C//DTD SVG 1.1//EN" "http://www.w3.org/Graphics/SVG/1.1/DTD/svg11.dtd">
<svg version="1.1" id="Capa_1" xmlns="http://www.w3.org/2000/svg" xmlns:xlink="http://www.w3.org/1999/xlink" x="0px" y="0px"
	 width="612px" height="612px" viewBox="0 0 612 612" style="enable-background:new 0 0 612 612;" xml:space="preserve">
<g>
	<g>
		<path d="M278.182,0v55.636H16.107c0,0-16.107,0-16.107,13.909s16.107,13.909,16.107,13.909h579.787c0,0,16.106,0,16.106-13.909
			s-16.106-13.909-16.106-13.909H333.818V0H278.182z"/>
		<path d="M93.274,111.272c0,0-65.456,0-65.456,63.593v317.934c0,63.564,65.456,63.564,65.456,63.564h425.451
			c0,0,65.456,0,65.456-63.592V174.865c0-63.593-65.456-63.593-65.456-63.593H93.274z M166.909,472.909h-27.818v-27.818h27.818
			V472.909z M166.909,389.454h-27.818v-27.817h27.818V389.454z M166.909,306h-27.818v-27.818h27.818V306z M445.091,472.909H194.727
			v-27.818h250.364V472.909z M445.091,389.454H194.727v-27.817h250.364V389.454z M445.091,306H194.727v-27.818h250.364V306z
			 M500.728,222.545H111.273v-27.818h389.455V222.545z"/>
		<path d="M16.107,612h579.787c0,0,16.106,0,16.106-13.909s-16.106-13.909-16.106-13.909H16.107c0,0-16.107,0-16.107,13.909
			S16.107,612,16.107,612z"/>
	</g>
</g>
<g>
</g>
<g>
</g>
<g>
</g>
<g>
</g>
<g>
</g>
<g>
</g>
<g>
</g>
<g>
</g>
<g>
</g>
<g>
</g>
<g>
</g>
<g>
</g>
<g>
</g>
<g>
</g>
<g>
</g>
</svg>
