<?xml version="1.0" encoding="iso-8859-1"?>
<!-- Generator: Adobe Illustrator 16.0.0, SVG Export Plug-In . SVG Version: 6.00 Build 0)  -->
<!DOCTYPE svg PUBLIC "-//W3C//DTD SVG 1.1//EN" "http://www.w3.org/Graphics/SVG/1.1/DTD/svg11.dtd">
<svg version="1.1" id="Capa_1" xmlns="http://www.w3.org/2000/svg" xmlns:xlink="http://www.w3.org/1999/xlink" x="0px" y="0px"
	 width="612px" height="612px" viewBox="0 0 612 612" style="enable-background:new 0 0 612 612;" xml:space="preserve">
<g>
	<g>
		<path d="M278.182,0v55.636H16.107c0,0-16.107,0-16.107,13.909s16.107,13.909,16.107,13.909h579.787c0,0,16.106,0,16.106-13.909
			s-16.106-13.909-16.106-13.909H333.818V0H278.182z"/>
		<path d="M93.274,111.272c0,0-65.456,0-65.456,63.593v317.934c0,63.564,65.456,63.564,65.456,63.564h425.451
			c0,0,65.456,0,65.456-63.592V174.865c0-63.593-65.456-63.593-65.456-63.593H93.274z M194.727,472.909
			c-46.095,0-83.454-37.36-83.454-83.455S148.632,306,194.727,306v83.454h83.455C278.182,435.549,240.822,472.909,194.727,472.909z
			 M361.637,472.909h-27.818v-27.818h27.818V472.909z M361.637,389.454h-27.818v-27.817h27.818V389.454z M361.637,306h-27.818
			v-27.818h27.818V306z M500.728,472.909H389.454v-27.818h111.273V472.909z M500.728,389.454H389.454v-27.817h111.273V389.454z
			 M500.728,306H389.454v-27.818h111.273V306z M500.728,222.545H111.273v-27.818h389.455V222.545z"/>
		<path d="M16.107,612h579.787c0,0,16.106,0,16.106-13.909s-16.106-13.909-16.106-13.909H16.107c0,0-16.107,0-16.107,13.909
			S16.107,612,16.107,612z"/>
	</g>
</g>
<g>
</g>
<g>
</g>
<g>
</g>
<g>
</g>
<g>
</g>
<g>
</g>
<g>
</g>
<g>
</g>
<g>
</g>
<g>
</g>
<g>
</g>
<g>
</g>
<g>
</g>
<g>
</g>
<g>
</g>
</svg>
