<?xml version="1.0" encoding="iso-8859-1"?>
<!-- Generator: Adobe Illustrator 16.0.0, SVG Export Plug-In . SVG Version: 6.00 Build 0)  -->
<!DOCTYPE svg PUBLIC "-//W3C//DTD SVG 1.1//EN" "http://www.w3.org/Graphics/SVG/1.1/DTD/svg11.dtd">
<svg version="1.1" id="Capa_1" xmlns="http://www.w3.org/2000/svg" xmlns:xlink="http://www.w3.org/1999/xlink" x="0px" y="0px"
	 width="791.748px" height="791.748px" viewBox="0 0 791.748 791.748" style="enable-background:new 0 0 791.748 791.748;"
	 xml:space="preserve">
<g>
	<g>
		<path d="M107.874,684h256.392l-75.708,107.748h36.324L400.59,684h14.364l75.672,107.748h36.324L451.314,684h232.56
			c0,0,18,3.204,18-16.38c0-19.62-18-19.62-18-19.62h-576c0,0-18,0-18,19.584C89.874,687.204,107.874,684,107.874,684z"/>
		<polygon points="377.874,0 377.874,36 341.874,36 341.874,72 449.874,72 449.874,36 413.874,36 415.746,0 		"/>
		<path d="M89.874,180v360c0,72,72,72,72,72h468c0,0,72,0,72-72V180c0-72-72-72-72-72h-468C161.874,108,89.874,108,89.874,180z
			 M269.874,540c-59.652,0-108-48.348-108-108c0-59.652,48.348-108,108-108v108h108C377.874,491.652,329.526,540,269.874,540z
			 M629.874,504h-180v-36h180V504z M629.874,396h-180v-36h180V396z M629.874,252h-468v-72h468V252z"/>
	</g>
</g>
<g>
</g>
<g>
</g>
<g>
</g>
<g>
</g>
<g>
</g>
<g>
</g>
<g>
</g>
<g>
</g>
<g>
</g>
<g>
</g>
<g>
</g>
<g>
</g>
<g>
</g>
<g>
</g>
<g>
</g>
</svg>
