<?xml version="1.0" encoding="iso-8859-1"?>
<!-- Generator: Adobe Illustrator 16.0.0, SVG Export Plug-In . SVG Version: 6.00 Build 0)  -->
<!DOCTYPE svg PUBLIC "-//W3C//DTD SVG 1.1//EN" "http://www.w3.org/Graphics/SVG/1.1/DTD/svg11.dtd">
<svg version="1.1" id="Capa_1" xmlns="http://www.w3.org/2000/svg" xmlns:xlink="http://www.w3.org/1999/xlink" x="0px" y="0px"
	 width="612px" height="612px" viewBox="0 0 612 612" style="enable-background:new 0 0 612 612;" xml:space="preserve">
<g>
	<path d="M248.194,514.052c34.995,0,47.18,56.221,47.18,56.221H306h10.627c0,0,12.184-56.221,47.18-56.221
		c34.995,0,223.713,0,223.713,0c13.521,0,24.48-11.016,24.48-24.591V97.364c0-55.636-55.637-55.636-55.637-55.636H341.969
		C323.998,41.728,306,64.455,306,75.944v0.083c0-11.517-17.609-34.3-35.246-34.3H55.636c0,0-55.636,0-55.636,55.636v392.097
		c0,13.575,10.96,24.592,24.48,24.592C24.48,514.052,213.199,514.052,248.194,514.052z M333.429,112.636
		c0-9.097,7.428-16.496,16.469-16.496l194.504,1.224c6.093,0,13.27,2.865,13.298,8.93v342.024c0.027,6.064-7.178,13.02-13.158,13.02
		c0,0-153.918-1.225-174.81-1.225s-36.303,25.51-36.303,25.51V112.636z M55.247,106.293c0-6.064,7.205-8.93,13.297-8.93
		l194.505-1.224c9.041,0,16.468,7.372,16.468,16.496v372.958c0,0-15.411-25.509-36.303-25.509s-174.81,1.224-174.81,1.224
		c-5.981,0-13.158-6.954-13.158-13.019V106.293z"/>
</g>
<g>
</g>
<g>
</g>
<g>
</g>
<g>
</g>
<g>
</g>
<g>
</g>
<g>
</g>
<g>
</g>
<g>
</g>
<g>
</g>
<g>
</g>
<g>
</g>
<g>
</g>
<g>
</g>
<g>
</g>
</svg>
