<?xml version="1.0" encoding="iso-8859-1"?>
<!-- Generator: Adobe Illustrator 16.0.0, SVG Export Plug-In . SVG Version: 6.00 Build 0)  -->
<!DOCTYPE svg PUBLIC "-//W3C//DTD SVG 1.1//EN" "http://www.w3.org/Graphics/SVG/1.1/DTD/svg11.dtd">
<svg version="1.1" id="Capa_1" xmlns="http://www.w3.org/2000/svg" xmlns:xlink="http://www.w3.org/1999/xlink" x="0px" y="0px"
	 width="612px" height="612px" viewBox="0 0 612 612" style="enable-background:new 0 0 612 612;" xml:space="preserve">
<g>
	<g>
		<path d="M27.818,166.909v329.924c0,31.713,30.906,31.713,30.906,31.713h494.551c0,0,30.906,0,30.906-31.713V166.909h-27.818
			v333.819H55.636V166.909H27.818z"/>
		<path d="M389.538,250.363c15.328,0,27.734-12.324,27.734-27.791v-27.874c0-15.355-12.602-27.79-27.734-27.79H222.462
			c-15.328,0-27.735,12.323-27.735,27.79v27.874c0,15.355,12.602,27.791,27.735,27.791H389.538z M222.545,194.727h166.909v27.818
			H222.545V194.727z"/>
		<path d="M612,111.272c0-27.818-27.818-27.818-27.818-27.818H27.679c0,0-27.679,0-27.679,27.818
			c0,27.818,27.679,27.818,27.679,27.818h556.502C584.182,139.09,612,139.09,612,111.272z"/>
	</g>
</g>
<g>
</g>
<g>
</g>
<g>
</g>
<g>
</g>
<g>
</g>
<g>
</g>
<g>
</g>
<g>
</g>
<g>
</g>
<g>
</g>
<g>
</g>
<g>
</g>
<g>
</g>
<g>
</g>
<g>
</g>
</svg>
