<?xml version="1.0" encoding="iso-8859-1"?>
<!-- Generator: Adobe Illustrator 16.0.0, SVG Export Plug-In . SVG Version: 6.00 Build 0)  -->
<!DOCTYPE svg PUBLIC "-//W3C//DTD SVG 1.1//EN" "http://www.w3.org/Graphics/SVG/1.1/DTD/svg11.dtd">
<svg version="1.1" id="Capa_1" xmlns="http://www.w3.org/2000/svg" xmlns:xlink="http://www.w3.org/1999/xlink" x="0px" y="0px"
	 width="612px" height="612px" viewBox="0 0 612 612" style="enable-background:new 0 0 612 612;" xml:space="preserve">
<g>
	<g>
		<path d="M0,612h166.909V445.091H0V612z M27.818,472.909h111.272v111.272H27.818V472.909z"/>
		<path d="M0,389.454h166.909V222.545H0V389.454z M27.818,250.364h111.272v111.273H27.818V250.364z"/>
		<path d="M166.909,0H0v166.909h166.909V0z M139.091,139.091H27.818V27.818h111.272V139.091z"/>
		<path d="M612,0H445.091v166.909H612V0z M584.182,139.091H472.909V27.818h111.272V139.091z"/>
		<path d="M445.091,389.454H612V222.545H445.091V389.454z M472.909,250.364h111.272v111.273H472.909V250.364z"/>
		<path d="M445.091,612H612V445.091H445.091V612z M472.909,472.909h111.272v111.272H472.909V472.909z"/>
		<path d="M389.454,0H222.545v166.909h166.909V0z M361.637,139.091H250.364V27.818h111.273V139.091z"/>
		<path d="M222.545,612h166.909V445.091H222.545V612z M250.364,472.909h111.273v111.272H250.364V472.909z"/>
		<path d="M222.545,389.454h166.909V222.545H222.545V389.454z M250.364,250.364h111.273v111.273H250.364V250.364z"/>
	</g>
</g>
<g>
</g>
<g>
</g>
<g>
</g>
<g>
</g>
<g>
</g>
<g>
</g>
<g>
</g>
<g>
</g>
<g>
</g>
<g>
</g>
<g>
</g>
<g>
</g>
<g>
</g>
<g>
</g>
<g>
</g>
</svg>
