<?xml version="1.0" encoding="iso-8859-1"?>
<!-- Generator: Adobe Illustrator 16.0.0, SVG Export Plug-In . SVG Version: 6.00 Build 0)  -->
<!DOCTYPE svg PUBLIC "-//W3C//DTD SVG 1.1//EN" "http://www.w3.org/Graphics/SVG/1.1/DTD/svg11.dtd">
<svg version="1.1" id="Capa_1" xmlns="http://www.w3.org/2000/svg" xmlns:xlink="http://www.w3.org/1999/xlink" x="0px" y="0px"
	 width="612px" height="612px" viewBox="0 0 612 612" style="enable-background:new 0 0 612 612;" xml:space="preserve">
<g>
	<g>
		<path d="M301.048,363.584c-7.121,0-12.824-1.947-17.108-5.87c-4.089-4.089-7.567-10.933-10.404-20.502l-20.78,4.34
			c3.088,13.547,7.873,23.562,14.354,30.044c6.481,6.482,15.912,10.738,28.263,12.77v19h16.552v-19.557
			c10.654-2.837,19.167-8.317,25.509-16.44c6.427-8.179,9.653-17.637,9.653-28.347c0-10.905-3.561-20.196-10.682-27.874
			c-2.531-2.838-6.259-5.786-11.239-8.847c-4.979-3.06-11.294-6.314-18.916-9.792c-8.818-3.978-14.688-7.399-17.581-10.293
			c-2.977-2.949-4.451-6.676-4.451-11.155c0-4.924,1.836-9.013,5.48-12.296c3.644-3.282,8.262-4.924,13.798-4.924
			c8.957,0,16.189,5.035,21.726,15.133l18.443-10.293c-4.284-7.678-8.791-13.381-13.52-17.107
			c-4.729-3.729-10.794-6.176-18.249-7.372v-18.555h-16.552v18.527c-5.091,1.335-9.681,3.144-13.714,5.48
			c-3.978,2.337-7.372,5.091-10.126,8.29c-2.754,3.198-4.84,6.704-6.287,10.627c-1.447,3.895-2.17,8.123-2.17,12.656
			c0,9.569,3.06,17.805,9.18,24.676c3.839,4.59,11.878,9.652,24.091,15.133c5.925,2.698,10.793,5.202,14.605,7.511
			c3.812,2.31,6.704,4.367,8.651,6.203c3.839,3.783,5.758,8.791,5.758,15.022c0,6.981-2.309,12.685-6.899,17.107
			C313.789,361.33,307.975,363.584,301.048,363.584z"/>
		<path d="M0,153v306h612V153H0z M584.182,431.182H27.818V180.818h556.364V431.182z"/>
	</g>
</g>
<g>
</g>
<g>
</g>
<g>
</g>
<g>
</g>
<g>
</g>
<g>
</g>
<g>
</g>
<g>
</g>
<g>
</g>
<g>
</g>
<g>
</g>
<g>
</g>
<g>
</g>
<g>
</g>
<g>
</g>
</svg>
