<?xml version="1.0" encoding="iso-8859-1"?>
<!-- Generator: Adobe Illustrator 16.0.0, SVG Export Plug-In . SVG Version: 6.00 Build 0)  -->
<!DOCTYPE svg PUBLIC "-//W3C//DTD SVG 1.1//EN" "http://www.w3.org/Graphics/SVG/1.1/DTD/svg11.dtd">
<svg version="1.1" id="Capa_1" xmlns="http://www.w3.org/2000/svg" xmlns:xlink="http://www.w3.org/1999/xlink" x="0px" y="0px"
	 width="612px" height="612px" viewBox="0 0 612 612" style="enable-background:new 0 0 612 612;" xml:space="preserve">
<g>
	<path d="M556.366,458.763C612,458.763,612,403.212,612,403.212V208.787c0,0,0-55.551-55.634-55.551H55.634
		C0,153.235,0,208.787,0,208.787v194.427c0,0,0,55.551,55.634,55.551h500.732V458.763z M561.06,278.224
		c15.332,0,27.775,12.443,27.775,27.775c0,15.332-12.443,27.775-27.775,27.775c-15.331,0-27.774-12.443-27.774-27.775
		C533.285,290.667,545.729,278.224,561.06,278.224z M69.438,181.01h444.404v249.977H69.438V181.01z M41.691,343.968
		c0,2.029-2.75,3.695-6.138,3.695h-1.639c-3.444,0-6.138-1.639-6.138-3.695v-75.937c0-2.028,2.75-3.694,6.138-3.694h1.639
		c3.472,0,6.138,1.639,6.138,3.694V343.968z"/>
</g>
<g>
</g>
<g>
</g>
<g>
</g>
<g>
</g>
<g>
</g>
<g>
</g>
<g>
</g>
<g>
</g>
<g>
</g>
<g>
</g>
<g>
</g>
<g>
</g>
<g>
</g>
<g>
</g>
<g>
</g>
</svg>
