<?xml version="1.0" encoding="iso-8859-1"?>
<!-- Generator: Adobe Illustrator 16.0.0, SVG Export Plug-In . SVG Version: 6.00 Build 0)  -->
<!DOCTYPE svg PUBLIC "-//W3C//DTD SVG 1.1//EN" "http://www.w3.org/Graphics/SVG/1.1/DTD/svg11.dtd">
<svg version="1.1" id="Capa_1" xmlns="http://www.w3.org/2000/svg" xmlns:xlink="http://www.w3.org/1999/xlink" x="0px" y="0px"
	 width="792px" height="792px" viewBox="0 0 792 792" style="enable-background:new 0 0 792 792;" xml:space="preserve">
<g>
	<g>
		<path d="M287.793,132.033h150.381c4.06,0,7.326-3.201,7.326-7.293v-1.947c0-4.026-3.3-7.293-7.293-7.293H287.793
			c-4.026,0-7.293,3.201-7.293,7.293v1.947C280.5,128.766,283.8,132.033,287.793,132.033z"/>
		<circle cx="363" cy="709.5" r="33"/>
		<path d="M643.5,660V66c0-66-66-66-66-66h-297c0,0-41.58,0-58.74,33H577.5c3.597,0,11.286,1.287,18.249,4.752
			C605.55,42.669,610.5,50.094,610.5,66v651.75C627,709.5,643.5,693,643.5,660z"/>
		<path d="M148.5,132v594c0,66,66,66,66,66h297c0,0,66,0,66-66V132c0-66-66-66-66-66h-297C214.5,66,148.5,66,148.5,132z M544.5,726
			c0,15.906-4.95,23.331-14.751,28.248C522.786,757.713,515.097,759,511.5,759h-297c-3.597,0-11.286-1.287-18.249-4.752
			C186.45,749.331,181.5,741.906,181.5,726v-66h363V726z M544.5,627h-363V181.5h363V627z M529.749,103.752
			C539.55,108.669,544.5,116.094,544.5,132v16.5h-363V132c0-15.906,4.95-23.331,14.751-28.248C203.214,100.287,210.903,99,214.5,99
			h297C515.097,99,522.786,100.287,529.749,103.752z"/>
	</g>
</g>
<g>
</g>
<g>
</g>
<g>
</g>
<g>
</g>
<g>
</g>
<g>
</g>
<g>
</g>
<g>
</g>
<g>
</g>
<g>
</g>
<g>
</g>
<g>
</g>
<g>
</g>
<g>
</g>
<g>
</g>
</svg>
