<?xml version="1.0" encoding="iso-8859-1"?>
<!-- Generator: Adobe Illustrator 16.0.0, SVG Export Plug-In . SVG Version: 6.00 Build 0)  -->
<!DOCTYPE svg PUBLIC "-//W3C//DTD SVG 1.1//EN" "http://www.w3.org/Graphics/SVG/1.1/DTD/svg11.dtd">
<svg version="1.1" id="Capa_1" xmlns="http://www.w3.org/2000/svg" xmlns:xlink="http://www.w3.org/1999/xlink" x="0px" y="0px"
	 width="612px" height="612px" viewBox="0 0 612 612" style="enable-background:new 0 0 612 612;" xml:space="preserve">
<g>
	<g>
		<path d="M292.842,0c-40.976,0-42.478,27.818-42.478,27.818h83.455C333.818,27.818,333.818,0,292.842,0z"/>
		<path d="M0,288.669c0,39.641,27.818,72.327,27.818,72.327s38.917,52.132,77.612,52.132c38.695,0,44.843-42.312,91.661-42.312
			s72.16,42.2,100.757,42.312c28.486,0.139,70.296-42.089,100.173-42.312c42.339-0.334,68.822,41.866,101.703,42.312
			c32.854,0.473,98.365-51.491,98.365-51.491S612,325.083,612,288.669c0-36.414-60.644-233.033-306-233.033S0,249.028,0,288.669z"/>
		<path d="M398.718,389.454c-35.356,0-63.313,41.728-99.867,41.728c-36.553,0-61.673-41.728-99.867-41.728
			c-38.167,0-58.084,41.728-92.718,41.728c-34.634,0-78.447-41.728-78.447-41.728L99.144,612h413.711l71.326-222.546
			c0,0-50.99,41.728-85.597,41.728C463.979,431.182,434.103,389.454,398.718,389.454z"/>
	</g>
</g>
<g>
</g>
<g>
</g>
<g>
</g>
<g>
</g>
<g>
</g>
<g>
</g>
<g>
</g>
<g>
</g>
<g>
</g>
<g>
</g>
<g>
</g>
<g>
</g>
<g>
</g>
<g>
</g>
<g>
</g>
</svg>
