<?xml version="1.0" encoding="iso-8859-1"?>
<!-- Generator: Adobe Illustrator 16.0.0, SVG Export Plug-In . SVG Version: 6.00 Build 0)  -->
<!DOCTYPE svg PUBLIC "-//W3C//DTD SVG 1.1//EN" "http://www.w3.org/Graphics/SVG/1.1/DTD/svg11.dtd">
<svg version="1.1" id="Capa_1" xmlns="http://www.w3.org/2000/svg" xmlns:xlink="http://www.w3.org/1999/xlink" x="0px" y="0px"
	 width="612px" height="612px" viewBox="0 0 612 612" style="enable-background:new 0 0 612 612;" xml:space="preserve">
<g>
	<g>
		<path d="M431.988,180.206c-49.377-49.377-108.185,108.185-108.185,108.185S481.366,229.583,431.988,180.206z"/>
		<path d="M612,306C612,137.004,474.995,0,306,0C137.004,0,0,137.004,0,306c0,168.995,137.004,306,306,306
			C474.995,612,612,474.995,612,306z M442.587,485.232c0,0-65.817-40.28-74.274-82.62c-5.452-27.206-48.403-68.794-48.403-68.794
			l27.818-13.909c0,0,41.727,34.717,50.184,70.13c8.457,35.412,68.127,62.284,68.127,62.284h-36.47L442.587,485.232z M306,319.909
			c-7.678,0-13.909-6.231-13.909-13.909s6.231-13.909,13.909-13.909s13.909,6.231,13.909,13.909S313.678,319.909,306,319.909z
			 M556.363,292.091v27.818h-153l41.728-27.818H556.363z M451.489,160.372c80.7,80.7-78.531,137.839-78.531,137.839l-49.183-9.848
			l-9.819-49.183C313.956,239.208,370.789,79.671,451.489,160.372z M292.091,55.636h27.818V153L306,180.818L292.091,153V55.636z
			 M160.372,160.511c80.701-80.7,137.839,78.531,137.839,78.531l-9.848,49.183l-49.183,9.848
			C239.208,298.044,79.671,241.211,160.372,160.511z M55.636,319.909v-27.818h111.273l41.727,27.818H55.636z M174.754,485.232
			l12.991-32.937h-36.442c0,0,59.698-26.872,68.126-62.285c8.457-35.385,50.184-70.102,50.184-70.102l27.818,13.909
			c0,0-42.951,41.588-48.376,68.794C240.572,444.952,174.754,485.232,174.754,485.232z M292.091,403.363L306,375.546l13.909,27.817
			v153h-27.818V403.363z"/>
		<path d="M180.206,180.012c-49.377,49.377,108.185,108.185,108.185,108.185S229.583,130.634,180.206,180.012z"/>
	</g>
</g>
<g>
</g>
<g>
</g>
<g>
</g>
<g>
</g>
<g>
</g>
<g>
</g>
<g>
</g>
<g>
</g>
<g>
</g>
<g>
</g>
<g>
</g>
<g>
</g>
<g>
</g>
<g>
</g>
<g>
</g>
</svg>
