<?xml version="1.0" encoding="iso-8859-1"?>
<!-- Generator: Adobe Illustrator 16.0.0, SVG Export Plug-In . SVG Version: 6.00 Build 0)  -->
<!DOCTYPE svg PUBLIC "-//W3C//DTD SVG 1.1//EN" "http://www.w3.org/Graphics/SVG/1.1/DTD/svg11.dtd">
<svg version="1.1" id="Capa_1" xmlns="http://www.w3.org/2000/svg" xmlns:xlink="http://www.w3.org/1999/xlink" x="0px" y="0px"
	 width="612px" height="612px" viewBox="0 0 612 612" style="enable-background:new 0 0 612 612;" xml:space="preserve">
<g>
	<g>
		<path d="M323.804,288.391c0,0,58.808-157.562,108.185-108.185C481.366,229.583,323.804,288.391,323.804,288.391l49.183,9.848
			c0,0,159.231-57.139,78.53-137.839c-80.7-80.7-137.533,78.837-137.533,78.837L323.804,288.391z"/>
		<polygon points="319.909,153 319.909,55.636 292.091,55.636 292.091,153 306,180.818 		"/>
		<path d="M397.911,390.039c-8.457-35.413-50.184-70.13-50.184-70.13l-27.818,13.909c0,0,42.951,41.588,48.376,68.794
			c8.456,42.34,74.274,82.62,74.274,82.62l-12.991-32.937h36.47C466.038,452.296,406.34,425.424,397.911,390.039z"/>
		<circle cx="306" cy="306" r="13.909"/>
		<polygon points="403.363,319.909 556.363,319.909 556.363,292.091 445.091,292.091 		"/>
		<path d="M612,306C612,137.004,474.995,0,306,0C137.004,0,0,137.004,0,306c0,168.995,137.004,306,306,306
			C474.995,612,612,474.995,612,306z M27.818,306C27.818,152.36,152.36,27.818,306,27.818S584.182,152.36,584.182,306
			S459.64,584.182,306,584.182S27.818,459.64,27.818,306z"/>
		<path d="M239.208,298.044l49.183-9.848c0,0-157.562-58.808-108.185-108.185c49.377-49.377,108.185,108.185,108.185,108.185
			l9.848-49.183c0,0-57.139-159.231-137.839-78.531C79.671,241.211,239.208,298.044,239.208,298.044z"/>
		<polygon points="319.909,403.363 306,375.546 292.091,403.363 292.091,556.363 319.909,556.363 		"/>
		<polygon points="166.909,292.091 55.636,292.091 55.636,319.909 208.636,319.909 		"/>
		<path d="M297.432,333.818l-27.818-13.909c0,0-41.727,34.717-50.184,70.13c-8.457,35.412-68.126,62.284-68.126,62.284h36.47
			l-12.991,32.938c0,0,65.818-40.281,74.274-82.62C254.481,375.406,297.432,333.818,297.432,333.818z"/>
	</g>
</g>
<g>
</g>
<g>
</g>
<g>
</g>
<g>
</g>
<g>
</g>
<g>
</g>
<g>
</g>
<g>
</g>
<g>
</g>
<g>
</g>
<g>
</g>
<g>
</g>
<g>
</g>
<g>
</g>
<g>
</g>
</svg>
