<?xml version="1.0" encoding="iso-8859-1"?>
<!-- Generator: Adobe Illustrator 16.0.0, SVG Export Plug-In . SVG Version: 6.00 Build 0)  -->
<!DOCTYPE svg PUBLIC "-//W3C//DTD SVG 1.1//EN" "http://www.w3.org/Graphics/SVG/1.1/DTD/svg11.dtd">
<svg version="1.1" id="Capa_1" xmlns="http://www.w3.org/2000/svg" xmlns:xlink="http://www.w3.org/1999/xlink" x="0px" y="0px"
	 width="792px" height="792px" viewBox="0 0 792 792" style="enable-background:new 0 0 792 792;" xml:space="preserve">
<g>
	<g>
		<path d="M468,144c0,0,36,2.556,36-35.064s-36-36.648-36-36.648S469.332,0,396,0s-72,72.288-72,72.288s-36,1.548-36,36.648
			C288,144,324,144,324,144H468z M396,36c19.872,0,36,16.128,36,36s-16.128,36-36,36s-36-16.128-36-36S376.128,36,396,36z"/>
		<path d="M186.912,106.956h64.08V72h-64.08c0,0-78.912,0-78.912,78.264c0,226.548,0,563.472,0,563.472
			C108,792,186.912,792,186.912,792h418.176c0,0,78.912,0,78.912-78.264V150.264C684,72,605.088,72,605.088,72h-64.044v34.956
			h64.044c0,0,44.353,4.176,44.353,43.308v563.472c0,43.164-44.353,44.244-44.353,44.244H186.912c0,0-43.884-5.112-43.884-44.244
			V150.264C142.992,111.132,186.912,106.956,186.912,106.956z"/>
	</g>
</g>
<g>
</g>
<g>
</g>
<g>
</g>
<g>
</g>
<g>
</g>
<g>
</g>
<g>
</g>
<g>
</g>
<g>
</g>
<g>
</g>
<g>
</g>
<g>
</g>
<g>
</g>
<g>
</g>
<g>
</g>
</svg>
