<?xml version="1.0" encoding="iso-8859-1"?>
<!-- Generator: Adobe Illustrator 16.0.0, SVG Export Plug-In . SVG Version: 6.00 Build 0)  -->
<!DOCTYPE svg PUBLIC "-//W3C//DTD SVG 1.1//EN" "http://www.w3.org/Graphics/SVG/1.1/DTD/svg11.dtd">
<svg version="1.1" id="Capa_1" xmlns="http://www.w3.org/2000/svg" xmlns:xlink="http://www.w3.org/1999/xlink" x="0px" y="0px"
	 width="612px" height="612px" viewBox="0 0 612 612" style="enable-background:new 0 0 612 612;" xml:space="preserve">
<g>
	<path d="M0,389.581C0,444.8,41.338,490.616,95.611,499.462l19.139,1.529h189.331l3.839-0.527l189.33,0.527l19.139-1.529
		C570.662,490.616,612,444.8,612,389.581c0-48.516-31.936-89.798-76.527-105.098c-1.614-96.084-82.343-173.474-181.653-173.474
		c-71.632,0-133.583,40.253-163.181,98.755c-13.993-15.022-34.244-24.48-56.777-24.48c-42.256,0-76.5,33.271-76.5,74.274
		c0,10.71,2.336,20.892,6.509,30.099C26.038,307.851,0,345.767,0,389.581z M95.611,299.449l-9.18-24.062
		c-2.142-4.618-3.227-9.542-3.227-14.66c0-19.974,20.196-49.656,51.881-49.656c10.877,0,23.618,5.425,30.906,13.13l29.904,20.78
		l25.426-33.911c28.792-42.923,77.362-72.438,132.137-72.438c77.251,0,153.501,73.635,154.725,147.242v26.094l26.9,7.205
		c30.321,10.209,50.656,37.666,50.656,68.32c0,35.525-36.386,80.033-73.05,85.875h-16.83H307.864v0.223h-3.839v-0.223H116.085
		l-12.685-1.002c-36.665-5.842-77.168-49.32-77.168-84.844C26.232,359.731,49.906,315.222,95.611,299.449z"/>
</g>
<g>
</g>
<g>
</g>
<g>
</g>
<g>
</g>
<g>
</g>
<g>
</g>
<g>
</g>
<g>
</g>
<g>
</g>
<g>
</g>
<g>
</g>
<g>
</g>
<g>
</g>
<g>
</g>
<g>
</g>
</svg>
