<?xml version="1.0" encoding="iso-8859-1"?>
<!-- Generator: Adobe Illustrator 16.0.0, SVG Export Plug-In . SVG Version: 6.00 Build 0)  -->
<!DOCTYPE svg PUBLIC "-//W3C//DTD SVG 1.1//EN" "http://www.w3.org/Graphics/SVG/1.1/DTD/svg11.dtd">
<svg version="1.1" id="Capa_1" xmlns="http://www.w3.org/2000/svg" xmlns:xlink="http://www.w3.org/1999/xlink" x="0px" y="0px"
	 width="704.212px" height="704.213px" viewBox="0 0 704.212 704.213" style="enable-background:new 0 0 704.212 704.213;"
	 xml:space="preserve">
<g>
	<path d="M281.371,128.564L222.038,6.589C220.752,2.957,216.606,0,212.685,0H53.104c-3.857,0-7.007,3.118-7.007,7.039v14.978
		c0,3.889,3.15,7.007,6.942,7.007h140.939c3.825,0,7.971,2.925,9.321,6.718l45.03,92.823h-41.526v0.354h-64.507
		c-17.549,0-23.303,11.667-12.696,26.099l242.312,328.708l-3.183,192.204h-70.067v28.284h175.266v-28.284h-77.106l3.182-192.204
		l252.63-329.286c10.831-14.11,5.11-25.52-12.728-25.52H367.509v-0.354H281.371z M605.353,160.706l-0.385,0.514h4.146
		l-48.565,59.236L388.401,449.977L171.448,160.706h42.876h136.214H605.353z"/>
</g>
<g>
</g>
<g>
</g>
<g>
</g>
<g>
</g>
<g>
</g>
<g>
</g>
<g>
</g>
<g>
</g>
<g>
</g>
<g>
</g>
<g>
</g>
<g>
</g>
<g>
</g>
<g>
</g>
<g>
</g>
</svg>
