<?xml version="1.0" encoding="iso-8859-1"?>
<!-- Generator: Adobe Illustrator 16.0.0, SVG Export Plug-In . SVG Version: 6.00 Build 0)  -->
<!DOCTYPE svg PUBLIC "-//W3C//DTD SVG 1.1//EN" "http://www.w3.org/Graphics/SVG/1.1/DTD/svg11.dtd">
<svg version="1.1" id="Capa_1" xmlns="http://www.w3.org/2000/svg" xmlns:xlink="http://www.w3.org/1999/xlink" x="0px" y="0px"
	 width="612px" height="612px" viewBox="0 0 612 612" style="enable-background:new 0 0 612 612;" xml:space="preserve">
<g>
	<g>
		<path d="M294.678,459.278c47.903,0,98.949-21.698,135.001-70.019c2.921-0.027,7.344-0.39,14.104-1.335
			c21.587-3.032,65.818-20.446,83.789-32.575c11.405-7.706,30.85-24.675,38.723-40.531c5.925-11.934,11.016-27.985,8.901-43.313
			c-2.142-15.328-11.321-55.775-53.077-61.117c-20.808-2.67-34.995-0.807-44.008,1.725c-0.084-6.955-0.334-14.076-0.724-21.365
			c-27.456,26.511-98.894,45.427-182.709,45.427c-83.816,0-155.281-18.917-182.71-45.455
			C101.397,380.998,203.685,459.278,294.678,459.278z M476.47,254.926c13.353-10.793,36.915-24.285,60.95-11.461
			c9.347,4.979,19.778,20.418,15.772,40.197c-4.034,19.779-27.513,41.421-45.928,50.156c-18.165,8.623-38.167,11.434-52.799,12.185
			C465.51,320.41,473.271,290.171,476.47,254.926z"/>
		<path d="M0,486.54c0,13.909,13.909,13.909,13.909,13.909h584.182c0,0,13.909,0,13.909-13.909s-13.909-13.909-13.909-13.909H13.909
			C13.909,472.631,0,472.631,0,486.54z"/>
		<ellipse cx="294.678" cy="167.187" rx="180.818" ry="55.636"/>
	</g>
</g>
<g>
</g>
<g>
</g>
<g>
</g>
<g>
</g>
<g>
</g>
<g>
</g>
<g>
</g>
<g>
</g>
<g>
</g>
<g>
</g>
<g>
</g>
<g>
</g>
<g>
</g>
<g>
</g>
<g>
</g>
</svg>
