<?xml version="1.0" encoding="iso-8859-1"?>
<!-- Generator: Adobe Illustrator 16.0.0, SVG Export Plug-In . SVG Version: 6.00 Build 0)  -->
<!DOCTYPE svg PUBLIC "-//W3C//DTD SVG 1.1//EN" "http://www.w3.org/Graphics/SVG/1.1/DTD/svg11.dtd">
<svg version="1.1" id="Capa_1" xmlns="http://www.w3.org/2000/svg" xmlns:xlink="http://www.w3.org/1999/xlink" x="0px" y="0px"
	 width="612px" height="612px" viewBox="0 0 612 612" style="enable-background:new 0 0 612 612;" xml:space="preserve">
<g>
	<g>
		<path d="M0,486.54c0,13.909,13.909,13.909,13.909,13.909h584.182c0,0,13.909,0,13.909-13.909s-13.909-13.909-13.909-13.909H13.909
			C13.909,472.631,0,472.631,0,486.54z"/>
		<path d="M429.651,389.26c2.921-0.027,7.345-0.39,14.104-1.335c21.587-3.032,65.817-20.446,83.788-32.575
			c11.405-7.706,30.851-24.675,38.723-40.531c5.926-11.934,11.017-27.985,8.902-43.313s-11.294-55.775-53.05-61.117
			c-20.808-2.67-35.022-0.807-44.008,1.725c-0.167-14.465-1.029-29.599-2.615-45.483c-1.001-30.461-81.562-55.08-180.818-55.08
			s-179.817,24.619-180.818,55.08l0,0C92.94,374.433,199.957,459.278,294.678,459.278C342.581,459.278,393.6,437.58,429.651,389.26z
			 M476.47,254.926c13.353-10.793,36.915-24.285,60.95-11.461c9.347,4.979,19.778,20.418,15.772,40.197
			c-4.034,19.779-27.513,41.421-45.928,50.156c-18.165,8.623-38.167,11.434-52.799,12.185
			C465.51,320.41,473.271,290.171,476.47,254.926z M294.678,139.369c84.511,0,153,12.462,153,27.818
			c0,15.355-68.488,27.818-153,27.818c-84.484,0-153-12.462-153-27.818C141.678,151.832,210.167,139.369,294.678,139.369z
			 M139.369,195.701c31.574,16.246,89.296,27.123,155.309,27.123c66.263,0,124.208-10.96,155.698-27.317
			c5.981,166.659-82.063,235.397-155.503,235.397C221.46,430.903,133.472,362.221,139.369,195.701z"/>
	</g>
</g>
<g>
</g>
<g>
</g>
<g>
</g>
<g>
</g>
<g>
</g>
<g>
</g>
<g>
</g>
<g>
</g>
<g>
</g>
<g>
</g>
<g>
</g>
<g>
</g>
<g>
</g>
<g>
</g>
<g>
</g>
</svg>
