<?xml version="1.0" encoding="iso-8859-1"?>
<!-- Generator: Adobe Illustrator 16.0.0, SVG Export Plug-In . SVG Version: 6.00 Build 0)  -->
<!DOCTYPE svg PUBLIC "-//W3C//DTD SVG 1.1//EN" "http://www.w3.org/Graphics/SVG/1.1/DTD/svg11.dtd">
<svg version="1.1" id="Capa_1" xmlns="http://www.w3.org/2000/svg" xmlns:xlink="http://www.w3.org/1999/xlink" x="0px" y="0px"
	 width="612px" height="612px" viewBox="0 0 612 612" style="enable-background:new 0 0 612 612;" xml:space="preserve">
<g>
	<path d="M81.886,373.491c4.538,15.117,10.58,29.583,17.926,43.226l-53.21,62.627l78.255-25.243
		c9.899,12.082,20.989,23.173,33.072,33.071l-25.244,78.255l62.598-53.238c13.643,7.347,28.137,13.388,43.226,17.926L245.146,612
		l37.468-73.149c7.687,0.766,15.486,1.163,23.399,1.163c7.914,0,15.686-0.397,23.4-1.163L366.883,612l6.637-81.886
		c15.117-4.538,29.583-10.579,43.226-17.926l62.599,53.238l-25.243-78.255c12.083-9.898,23.173-20.989,33.071-33.071l78.255,25.243
		l-53.238-62.599c7.347-13.643,13.388-28.137,17.926-43.226L612,366.882l-73.149-37.468c0.766-7.687,1.163-15.486,1.163-23.4
		c0-7.913-0.397-15.685-1.163-23.399L612,245.146l-81.886-6.637c-4.538-15.118-10.579-29.583-17.926-43.226l53.238-62.599
		l-78.255,25.244c-9.898-12.083-20.989-23.173-33.071-33.072l25.243-78.284l-62.599,53.239
		c-13.671-7.346-28.137-13.388-43.226-17.926L366.883,0l-37.469,73.149c-7.687-0.766-15.486-1.163-23.4-1.163
		c-7.913,0-15.685,0.397-23.399,1.163L245.146,0l-6.637,81.886c-15.118,4.538-29.583,10.58-43.226,17.926l-62.626-53.239
		l25.244,78.255c-12.083,9.898-23.173,20.989-33.072,33.072l-78.255-25.244l53.239,62.598
		c-7.346,13.671-13.388,28.137-17.926,43.254L0,245.146l73.149,37.468c-0.766,7.687-1.163,15.486-1.163,23.399
		c0,7.914,0.397,15.686,1.163,23.4L0,366.883L81.886,373.491z M490.604,215.279c13.473,27.371,21.045,58.145,21.045,90.707
		c0,108.802-84.494,197.864-191.453,205.154V330.549c8.48-4.907,14.182-14.068,14.182-24.563c0-0.17,0-0.34,0-0.511L490.604,215.279
		z M306.014,100.378c70.881,0,133.366,35.852,170.352,90.395l-156.595,90.423c-4.056-2.27-8.765-3.546-13.728-3.546
		c-4.964,0-9.672,1.276-13.729,3.546l-156.652-90.423C172.649,136.23,235.134,100.378,306.014,100.378z M121.396,215.279
		l156.226,90.196c0,0.17,0,0.34,0,0.511c0,10.495,5.701,19.656,14.182,24.563V511.14c-106.959-7.29-191.454-96.352-191.454-205.154
		C100.378,273.453,107.923,242.65,121.396,215.279z"/>
</g>
<g>
</g>
<g>
</g>
<g>
</g>
<g>
</g>
<g>
</g>
<g>
</g>
<g>
</g>
<g>
</g>
<g>
</g>
<g>
</g>
<g>
</g>
<g>
</g>
<g>
</g>
<g>
</g>
<g>
</g>
</svg>
