<?xml version="1.0" encoding="iso-8859-1"?>
<!-- Generator: Adobe Illustrator 16.0.0, SVG Export Plug-In . SVG Version: 6.00 Build 0)  -->
<!DOCTYPE svg PUBLIC "-//W3C//DTD SVG 1.1//EN" "http://www.w3.org/Graphics/SVG/1.1/DTD/svg11.dtd">
<svg version="1.1" id="Capa_1" xmlns="http://www.w3.org/2000/svg" xmlns:xlink="http://www.w3.org/1999/xlink" x="0px" y="0px"
	 width="612.027px" height="612.027px" viewBox="0 0 612.027 612.027" style="enable-background:new 0 0 612.027 612.027;"
	 xml:space="preserve">
<g>
	<path d="M27.776,236.531C12.429,236.531,0,248.876,0,264.335v83.413c0,15.348,12.317,27.805,27.776,27.805h81.467
		c2.475,7.006,5.311,13.818,8.508,20.463l-57.638,57.611c-10.844,10.844-10.927,28.359,0.028,39.287l59,59
		c10.844,10.873,28.36,10.928,39.288,0.029l57.75-57.75c6.59,3.141,13.374,5.949,20.325,8.396v81.662
		c0,15.348,12.345,27.775,27.804,27.775h83.413c15.348,0,27.804-12.316,27.804-27.775v-81.773c6.924-2.447,13.68-5.254,20.241-8.396
		l57.833,57.832c10.844,10.844,28.36,10.928,39.288-0.027l59-59c10.872-10.844,10.928-28.389,0.028-39.287l-57.833-57.834
		c3.142-6.562,5.95-13.318,8.396-20.242h81.772c15.349,0,27.776-12.344,27.776-27.803v-83.414c0-15.348-12.316-27.804-27.776-27.804
		H502.59c-2.446-6.951-5.255-13.735-8.396-20.325l57.722-57.75c10.844-10.844,10.927-28.36-0.028-39.288l-59-59
		c-10.872-10.872-28.389-10.927-39.288-0.028l-57.61,57.638c-6.617-3.17-13.457-6.034-20.464-8.508V27.776
		C375.524,12.428,363.18,0,347.721,0h-83.413c-15.348,0-27.805,12.317-27.805,27.776v81.355c-7.034,2.475-13.902,5.311-20.547,8.508
		l-57.527-57.499c-10.844-10.844-28.36-10.927-39.288,0.028l-59,58.973c-10.844,10.844-10.927,28.36-0.028,39.288l57.527,57.527
		c-3.198,6.673-6.034,13.513-8.508,20.547H27.776V236.531z M305.847,166.853c76.767,0,139.021,62.254,139.021,139.021
		c0,76.768-62.254,139.022-139.021,139.022c-76.768,0-139.021-62.254-139.021-139.022
		C166.826,229.107,229.08,166.853,305.847,166.853z"/>
</g>
<g>
</g>
<g>
</g>
<g>
</g>
<g>
</g>
<g>
</g>
<g>
</g>
<g>
</g>
<g>
</g>
<g>
</g>
<g>
</g>
<g>
</g>
<g>
</g>
<g>
</g>
<g>
</g>
<g>
</g>
</svg>
