<?xml version="1.0" encoding="iso-8859-1"?>
<!-- Generator: Adobe Illustrator 16.0.0, SVG Export Plug-In . SVG Version: 6.00 Build 0)  -->
<!DOCTYPE svg PUBLIC "-//W3C//DTD SVG 1.1//EN" "http://www.w3.org/Graphics/SVG/1.1/DTD/svg11.dtd">
<svg version="1.1" id="Capa_1" xmlns="http://www.w3.org/2000/svg" xmlns:xlink="http://www.w3.org/1999/xlink" x="0px" y="0px"
	 width="792px" height="792px" viewBox="0 0 792 792" style="enable-background:new 0 0 792 792;" xml:space="preserve">
<g>
	<path d="M558.29,234C576.506,88.452,540.038,0,540.038,0H395.93h-144c0,0-36.432,88.452-18.216,234
		c18,143.676,128.052,161.568,135.899,265.86V720c0,0,0,17.136-14.796,23.544c-14.795,6.408-101.664,13.356-101.664,30.996
		S326.63,792,395.354,792s142.2,0.18,142.2-17.46s-86.868-24.588-101.664-30.996C421.13,737.136,421.13,720,421.13,720l0.972-216
		C427.322,396,540.038,379.548,558.29,234z M397.766,451.152c-8.928-24.624-24.012-47.196-46.368-73.44
		c-3.852-4.5-18.359-21.168-21.671-25.02c-35.712-41.76-52.308-73.224-58.572-123.156c-8.748-69.984-5.184-130.968,5.976-181.296
		c0.72-3.168,4.536-12.24,4.536-12.24h113.292h3.672h113.292c0,0,3.815,9.072,4.535,12.24
		c11.16,50.328,14.761,111.312,5.977,181.296c-6.3,49.932-22.896,81.396-58.608,123.156c-3.312,3.888-17.855,20.52-21.672,25.02
		C419.798,403.956,404.678,426.564,397.766,451.152z"/>
</g>
<g>
</g>
<g>
</g>
<g>
</g>
<g>
</g>
<g>
</g>
<g>
</g>
<g>
</g>
<g>
</g>
<g>
</g>
<g>
</g>
<g>
</g>
<g>
</g>
<g>
</g>
<g>
</g>
<g>
</g>
</svg>
