<?xml version="1.0" encoding="iso-8859-1"?>
<!-- Generator: Adobe Illustrator 16.0.0, SVG Export Plug-In . SVG Version: 6.00 Build 0)  -->
<!DOCTYPE svg PUBLIC "-//W3C//DTD SVG 1.1//EN" "http://www.w3.org/Graphics/SVG/1.1/DTD/svg11.dtd">
<svg version="1.1" id="Capa_1" xmlns="http://www.w3.org/2000/svg" xmlns:xlink="http://www.w3.org/1999/xlink" x="0px" y="0px"
	 width="612px" height="612px" viewBox="0 0 612 612" style="enable-background:new 0 0 612 612;" xml:space="preserve">
<g>
	<g>
		<path d="M0,288.669c0,39.641,27.818,72.327,27.818,72.327h27.818c0,0-27.818-39.195-27.818-72.327
			c0-33.132,41.115-204.297,278.182-204.297s278.182,169.58,278.182,204.297s-13.909,72.967-13.909,72.967h27.818
			c0,0,13.909-36.554,13.909-72.967c0-36.414-60.644-233.033-306-233.033S0,249.028,0,288.669z"/>
		<path d="M292.842,0c-40.976,0-42.478,27.818-42.478,27.818h83.455C333.818,27.818,333.818,0,292.842,0z"/>
		<path d="M398.718,389.454c-35.356,0-63.313,41.728-99.867,41.728c-36.553,0-61.673-41.728-99.867-41.728
			c-38.167,0-58.084,41.728-92.718,41.728c-34.634,0-78.447-41.728-78.447-41.728L99.144,612h413.711l71.326-222.546
			c0,0-50.99,41.728-85.597,41.728C463.979,431.182,434.103,389.454,398.718,389.454z M542.454,445.091l-42.979,139.091H112.524
			L70.046,446.76c1.474,3.645,7.817,12.24,35.301,12.24c34.8,0,54.802-41.728,93.135-41.728S262.075,459,298.795,459
			s64.789-41.728,100.312-41.728S464.647,459,499.42,459C534.221,459,542.454,445.091,542.454,445.091z"/>
	</g>
</g>
<g>
</g>
<g>
</g>
<g>
</g>
<g>
</g>
<g>
</g>
<g>
</g>
<g>
</g>
<g>
</g>
<g>
</g>
<g>
</g>
<g>
</g>
<g>
</g>
<g>
</g>
<g>
</g>
<g>
</g>
</svg>
