<?xml version="1.0" encoding="iso-8859-1"?>
<!-- Generator: Adobe Illustrator 16.0.0, SVG Export Plug-In . SVG Version: 6.00 Build 0)  -->
<!DOCTYPE svg PUBLIC "-//W3C//DTD SVG 1.1//EN" "http://www.w3.org/Graphics/SVG/1.1/DTD/svg11.dtd">
<svg version="1.1" id="Capa_1" xmlns="http://www.w3.org/2000/svg" xmlns:xlink="http://www.w3.org/1999/xlink" x="0px" y="0px"
	 width="612px" height="612px" viewBox="0 0 612 612" style="enable-background:new 0 0 612 612;" xml:space="preserve">
<g>
	<path d="M612,306C612,137.004,474.995,0,306,0C137.004,0,0,137.004,0,306c0,168.995,137.004,306,306,306
		C474.995,612,612,474.995,612,306z M289.281,302.105c-13.77-38.5-30.795-17.275-34.912-27.457
		c-7.873-19.445-57.333-61.896-50.407-88.935c5.313-20.697-48.849-37.777-75.61-14.41c10.71-12.574,10.432-66.207,39.057-60.588
		c23.451,4.618,38.862-5.563,52.994-3.588c28.319,3.95,16.135,10.376,42.451,16.997c14.883,3.755,46.373-13.242,69.044-6.009
		c5.981,1.919,12.269,11.711,5.008,21.976c-6.064,8.568-38.612,7.706-26.539,18.11c10.21,8.818,29.015,24.257,44.676,27.512
		c15.801,3.31-1.446-36.331,13.548-40.448s66.207,36.525,59.643,40.448c-15.495,9.235,21.865,11.266,15.995,17.164
		c-2.476,2.448-45.037-14.41-47.819-8.29c-7.733,17.052,15.244,5.73,10.293,19.194c-1.308,3.561-9.736,0.834-14.021,4.368
		c-11.879,9.764-25.871,24.813-28.458,27.011c-14.271,12.129-4.618,19.222-9.208,23.089c-4.033,3.394-9.709-11.656-13.575-8.596
		c-12.853,10.182-33.466,6.982-33.466,15.05s21.254,8.317,28.903,12.323c9.736,5.091,5.286,15.133,7.789,15.133
		c15.662,0,29.905,27.123,29.905,27.123s11.154,10.487,27.846,9.04c43.646-3.755,44.593,26.372,44.593,26.372
		c15.939-5.118,39.251,9.709,29.932,17.024c-18.722,14.716-18.304,38.167-18.304,38.167c-12.352,9.264-79.505,62.563-71.438,82.036
		c-8.067,11.154,1.196,22.866-8.067,28.485c-15.077,9.18-37.722-30.989-18.86-35.83c-3.255-3.505-6.955-10.599,0-21.643
		c3.06-4.84,1.863-31.601,3.866-60.31c-79.059-57.694,1.28-76.472-14.521-85.374c-5.202-2.948-14.215-15.856-30.016-18.722
		C306.779,306.139,291.785,314.095,289.281,302.105z"/>
</g>
<g>
</g>
<g>
</g>
<g>
</g>
<g>
</g>
<g>
</g>
<g>
</g>
<g>
</g>
<g>
</g>
<g>
</g>
<g>
</g>
<g>
</g>
<g>
</g>
<g>
</g>
<g>
</g>
<g>
</g>
</svg>
