<?xml version="1.0" encoding="iso-8859-1"?>
<!-- Generator: Adobe Illustrator 16.0.0, SVG Export Plug-In . SVG Version: 6.00 Build 0)  -->
<!DOCTYPE svg PUBLIC "-//W3C//DTD SVG 1.1//EN" "http://www.w3.org/Graphics/SVG/1.1/DTD/svg11.dtd">
<svg version="1.1" id="Capa_1" xmlns="http://www.w3.org/2000/svg" xmlns:xlink="http://www.w3.org/1999/xlink" x="0px" y="0px"
	 width="612px" height="612px" viewBox="0 0 612 612" style="enable-background:new 0 0 612 612;" xml:space="preserve">
<g>
	<g>
		<path d="M0,514.637h612V208.636H0V514.637z M27.818,236.454h556.363v250.364H27.818V236.454z"/>
		<rect x="27.818" y="153" width="556.363" height="27.818"/>
		<rect x="55.636" y="97.363" width="500.727" height="27.818"/>
		<path d="M322.774,350.898c-4.979-3.061-11.294-6.314-18.917-9.793c-8.818-3.977-14.688-7.398-17.581-10.293
			c-2.949-2.947-4.451-6.676-4.451-11.154c0-4.924,1.836-9.014,5.48-12.295c3.644-3.283,8.262-4.924,13.798-4.924
			c8.958,0,16.19,5.036,21.726,15.133l18.416-10.293c-4.284-7.678-8.791-13.381-13.521-17.108
			c-4.729-3.728-10.793-6.175-18.248-7.372v-18.527h-16.552v18.527c-5.09,1.335-9.681,3.144-13.714,5.48
			c-3.95,2.337-7.344,5.091-10.098,8.262c-2.727,3.199-4.812,6.732-6.287,10.626c-1.446,3.922-2.17,8.15-2.17,12.686
			c0,9.568,3.06,17.803,9.18,24.674c3.839,4.59,11.878,9.625,24.09,15.133c5.925,2.699,10.793,5.203,14.604,7.512
			c3.812,2.309,6.704,4.367,8.651,6.203c3.839,3.783,5.759,8.791,5.759,15.021c0,6.982-2.309,12.686-6.899,17.109
			c-4.673,4.479-10.459,6.703-17.386,6.703c-7.121,0-12.824-1.947-17.108-5.869c-4.089-4.09-7.566-10.934-10.404-20.502l-20.78,4.34
			c3.088,13.547,7.873,23.562,14.354,30.043c6.481,6.482,15.912,10.738,28.263,12.77v19h16.552v-19.557
			c10.654-2.838,19.166-8.318,25.509-16.441c6.426-8.178,9.653-17.637,9.653-28.346c0-10.906-3.561-20.197-10.683-27.875
			C331.481,356.906,327.726,353.959,322.774,350.898z"/>
	</g>
</g>
<g>
</g>
<g>
</g>
<g>
</g>
<g>
</g>
<g>
</g>
<g>
</g>
<g>
</g>
<g>
</g>
<g>
</g>
<g>
</g>
<g>
</g>
<g>
</g>
<g>
</g>
<g>
</g>
<g>
</g>
</svg>
