<?xml version="1.0" encoding="iso-8859-1"?>
<!-- Generator: Adobe Illustrator 16.0.0, SVG Export Plug-In . SVG Version: 6.00 Build 0)  -->
<!DOCTYPE svg PUBLIC "-//W3C//DTD SVG 1.1//EN" "http://www.w3.org/Graphics/SVG/1.1/DTD/svg11.dtd">
<svg version="1.1" id="Capa_1" xmlns="http://www.w3.org/2000/svg" xmlns:xlink="http://www.w3.org/1999/xlink" x="0px" y="0px"
	 width="792px" height="792px" viewBox="0 0 792 792" style="enable-background:new 0 0 792 792;" xml:space="preserve">
<g>
	<g>
		<path d="M396,612c-122.364,0-228.888-67.824-284.004-167.94C134.856,580.248,253.296,684,396,684
			c142.668,0,261.144-103.752,284.004-239.94C624.888,544.176,518.364,612,396,612z"/>
		<path d="M111.996,552.06C134.856,688.248,253.296,792,396,792c142.668,0,261.144-103.752,284.004-239.94
			C624.888,652.176,518.364,720,396,720S167.112,652.176,111.996,552.06z"/>
		<path d="M396,0C236.952,0,108,128.952,108,288s128.952,288,288,288s288-128.952,288-288S555.048,0,396,0z M438.948,365.652
			c-7.272,10.908-17.028,18.288-29.196,22.068V414h-18.936v-25.488c-14.148-2.7-24.912-8.424-32.364-17.136
			C351,362.664,345.528,349.2,342,331.02l23.796-5.832c3.24,12.852,7.2,22.032,11.916,27.54c4.896,5.256,11.448,7.884,19.584,7.884
			c7.92,0,14.58-2.988,19.908-9c5.256-5.904,7.884-13.572,7.884-22.968c0-8.388-2.196-15.084-6.588-20.16
			c-2.232-2.52-5.544-5.292-9.9-8.352c-4.355-3.096-9.936-6.444-16.704-10.08c-14.004-7.38-23.22-14.148-27.612-20.34
			c-6.984-9.216-10.476-20.232-10.476-33.084c0-6.084,0.828-11.772,2.484-16.992c1.656-5.256,4.068-10.008,7.2-14.256
			c3.132-4.248,7.02-8.028,11.628-11.16c4.608-3.132,9.828-5.58,15.696-7.344V162h18.936v24.876c8.496,1.62,15.48,4.896,20.88,9.9
			c5.4,5.004,10.584,12.636,15.48,22.968l-21.097,13.824c-6.372-13.536-14.651-20.304-24.912-20.304
			c-6.335,0-11.627,2.196-15.804,6.588c-4.176,4.392-6.264,9.9-6.264,16.488c0,6.012,1.692,10.98,5.076,14.976
			c3.312,3.924,10.044,8.532,20.125,13.86c8.748,4.644,15.947,9,21.672,13.104c5.688,4.104,9.972,8.063,12.852,11.88
			c8.172,10.332,12.24,22.788,12.24,37.44C450,341.964,446.328,354.672,438.948,365.652z"/>
	</g>
</g>
<g>
</g>
<g>
</g>
<g>
</g>
<g>
</g>
<g>
</g>
<g>
</g>
<g>
</g>
<g>
</g>
<g>
</g>
<g>
</g>
<g>
</g>
<g>
</g>
<g>
</g>
<g>
</g>
<g>
</g>
</svg>
