<?xml version="1.0" encoding="iso-8859-1"?>
<!-- Generator: Adobe Illustrator 16.0.0, SVG Export Plug-In . SVG Version: 6.00 Build 0)  -->
<!DOCTYPE svg PUBLIC "-//W3C//DTD SVG 1.1//EN" "http://www.w3.org/Graphics/SVG/1.1/DTD/svg11.dtd">
<svg version="1.1" id="Capa_1" xmlns="http://www.w3.org/2000/svg" xmlns:xlink="http://www.w3.org/1999/xlink" x="0px" y="0px"
	 width="612px" height="612px" viewBox="0 0 612 612" style="enable-background:new 0 0 612 612;" xml:space="preserve">
<g>
	<path d="M0,153v306h612V153H0z M337.435,367.367c-6.369,8.123-14.883,13.603-25.509,16.44v19.557h-16.524v-19
		c-12.351-2.003-21.782-6.259-28.263-12.77c-6.482-6.481-11.266-16.496-14.354-30.044l20.78-4.34
		c2.837,9.569,6.287,16.413,10.404,20.502c4.284,3.896,9.987,5.87,17.108,5.87c6.927,0,12.713-2.225,17.386-6.704
		c4.59-4.423,6.899-10.126,6.899-17.107c0-6.231-1.919-11.239-5.759-15.022c-1.946-1.836-4.84-3.896-8.65-6.203
		c-3.812-2.309-8.679-4.812-14.605-7.511c-12.212-5.48-20.252-10.516-24.091-15.133c-6.12-6.871-9.18-15.077-9.18-24.676
		c0-4.533,0.723-8.763,2.17-12.656c1.447-3.896,3.533-7.455,6.287-10.627c2.754-3.171,6.12-5.926,10.154-8.263
		s8.596-4.145,13.714-5.479v-18.555h16.524v18.527c7.427,1.196,13.521,3.645,18.249,7.372c4.729,3.729,9.236,9.43,13.521,17.108
		l-18.443,10.293c-5.536-10.07-12.796-15.133-21.726-15.133c-5.536,0-10.154,1.641-13.798,4.924
		c-3.644,3.282-5.48,7.372-5.48,12.296c0,4.479,1.474,8.179,4.451,11.155c2.893,2.893,8.763,6.343,17.581,10.293
		c7.623,3.477,13.938,6.731,18.917,9.792c4.979,3.06,8.734,6.009,11.238,8.846c7.121,7.678,10.683,16.969,10.683,27.874
		C347.087,349.702,343.861,359.161,337.435,367.367z"/>
</g>
<g>
</g>
<g>
</g>
<g>
</g>
<g>
</g>
<g>
</g>
<g>
</g>
<g>
</g>
<g>
</g>
<g>
</g>
<g>
</g>
<g>
</g>
<g>
</g>
<g>
</g>
<g>
</g>
<g>
</g>
</svg>
