<?xml version="1.0" encoding="iso-8859-1"?>
<!-- Generator: Adobe Illustrator 16.0.0, SVG Export Plug-In . SVG Version: 6.00 Build 0)  -->
<!DOCTYPE svg PUBLIC "-//W3C//DTD SVG 1.1//EN" "http://www.w3.org/Graphics/SVG/1.1/DTD/svg11.dtd">
<svg version="1.1" id="Capa_1" xmlns="http://www.w3.org/2000/svg" xmlns:xlink="http://www.w3.org/1999/xlink" x="0px" y="0px"
	 width="612px" height="612px" viewBox="0 0 612 612" style="enable-background:new 0 0 612 612;" xml:space="preserve">
<g>
	<g>
		<path d="M320.611,439.875v-27.923c12.967-4.054,23.295-11.857,31.06-23.447c7.803-11.666,11.704-25.168,11.704-40.43
			c0-15.529-4.322-28.803-13.005-39.78c-3.061-4.054-7.612-8.262-13.655-12.623c-6.044-4.36-13.731-8.989-23.026-13.923
			c-10.71-5.661-17.863-10.595-21.382-14.726c-3.596-4.208-5.394-9.524-5.394-15.912c0-7,2.219-12.852,6.656-17.519
			s10.06-7,16.792-7c10.901,0,19.699,7.191,26.431,21.573l22.415-14.688c-5.202-10.978-10.71-19.087-16.448-24.403
			c-5.737-5.317-13.157-8.798-22.185-10.519v-26.431h-20.081v26.431c-6.235,1.875-11.781,4.476-16.677,7.803
			s-9.027,7.268-12.354,11.781c-3.328,4.552-5.891,9.639-7.65,15.186c-1.759,5.584-2.639,11.589-2.639,18.054
			c0,13.655,3.71,25.398,11.169,35.19c4.667,6.579,14.458,13.732,29.3,21.573c7.19,3.863,13.119,7.421,17.748,10.71
			c4.628,3.29,8.147,6.235,10.519,8.836c4.666,5.394,7,12.546,7,21.42c0,9.983-2.793,18.131-8.377,24.404
			c-5.661,6.388-12.737,9.562-21.152,9.562c-8.683,0-15.606-2.793-20.808-8.377c-4.972-5.853-9.18-15.606-12.661-29.262
			l-25.283,6.273c3.749,19.316,9.562,33.621,17.48,42.878c7.879,9.257,19.354,15.338,34.387,18.207v27.081H320.611z"/>
		<path d="M612,306C612,137.012,474.988,0,306,0S0,137.012,0,306s137.012,306,306,306S612,474.988,612,306z M38.25,306
			C38.25,158.125,158.125,38.25,306,38.25c147.875,0,267.75,119.875,267.75,267.75c0,147.875-119.875,267.75-267.75,267.75
			C158.125,573.75,38.25,453.875,38.25,306z"/>
	</g>
</g>
<g>
</g>
<g>
</g>
<g>
</g>
<g>
</g>
<g>
</g>
<g>
</g>
<g>
</g>
<g>
</g>
<g>
</g>
<g>
</g>
<g>
</g>
<g>
</g>
<g>
</g>
<g>
</g>
<g>
</g>
</svg>
