<?xml version="1.0" encoding="iso-8859-1"?>
<!-- Generator: Adobe Illustrator 16.0.0, SVG Export Plug-In . SVG Version: 6.00 Build 0)  -->
<!DOCTYPE svg PUBLIC "-//W3C//DTD SVG 1.1//EN" "http://www.w3.org/Graphics/SVG/1.1/DTD/svg11.dtd">
<svg version="1.1" id="Capa_1" xmlns="http://www.w3.org/2000/svg" xmlns:xlink="http://www.w3.org/1999/xlink" x="0px" y="0px"
	 width="792px" height="792px" viewBox="0 0 792 792" style="enable-background:new 0 0 792 792;" xml:space="preserve">
<g>
	<g>
		<path d="M606.924,533.952C561.924,602.64,484.236,648,396,648c-88.272,0-165.924-45.36-210.924-114.048
			c-29.412-25.236-54.252-55.692-73.08-89.893C134.856,580.248,253.296,684,396,684c142.668,0,261.144-103.752,284.004-239.94
			C661.176,478.26,636.336,508.716,606.924,533.952z"/>
		<path d="M396,756c-88.272,0-165.924-45.36-210.924-114.048c-29.412-25.236-54.252-55.692-73.08-89.892
			C134.856,688.248,253.296,792,396,792c142.668,0,261.144-103.752,284.004-239.94c-18.828,34.2-43.668,64.656-73.08,89.893
			C561.924,710.64,484.236,756,396,756z"/>
		<path d="M424.908,278.28c-5.725-4.104-12.924-8.46-21.672-13.104c-10.08-5.328-16.812-9.972-20.125-13.86
			c-3.384-3.96-5.076-8.964-5.076-14.976c0-6.588,2.088-12.096,6.264-16.488c4.176-4.392,9.468-6.588,15.804-6.588
			c10.261,0,18.54,6.768,24.877,20.304l21.096-13.824c-4.896-10.332-10.08-17.964-15.48-22.968c-5.399-5.004-12.384-8.28-20.88-9.9
			V162h-18.9v24.876c-5.868,1.764-11.088,4.212-15.696,7.344c-4.608,3.132-8.496,6.84-11.628,11.088
			c-3.132,4.248-5.544,9.072-7.2,14.292c-1.656,5.256-2.484,10.908-2.484,16.992c0,12.852,3.492,23.904,10.512,33.12
			c4.392,6.192,13.608,12.924,27.612,20.304c6.768,3.636,12.348,6.984,16.704,10.08c4.356,3.096,7.668,5.868,9.9,8.316
			c4.392,5.076,6.588,11.808,6.588,20.16c0,9.396-2.628,17.064-7.884,22.968c-5.328,6.012-11.988,9-19.908,9
			c-8.136,0-14.688-2.628-19.584-7.884c-4.68-5.508-8.64-14.688-11.916-27.54L342,331.02c3.528,18.18,9,31.644,16.452,40.356
			c7.416,8.712,18.216,14.436,32.364,17.136V414h18.936v-26.28c12.204-3.816,21.924-11.16,29.232-22.068
			C446.328,354.672,450,341.964,450,327.6c0-14.616-4.068-27.108-12.24-37.44C434.88,286.344,430.596,282.384,424.908,278.28z"/>
		<path d="M396,0C236.952,0,108,128.952,108,288s128.952,288,288,288s288-128.952,288-288S555.048,0,396,0z M396,540
			c-139.176,0-252-112.824-252-252S256.824,36,396,36s252,112.824,252,252S535.176,540,396,540z"/>
	</g>
</g>
<g>
</g>
<g>
</g>
<g>
</g>
<g>
</g>
<g>
</g>
<g>
</g>
<g>
</g>
<g>
</g>
<g>
</g>
<g>
</g>
<g>
</g>
<g>
</g>
<g>
</g>
<g>
</g>
<g>
</g>
</svg>
