<?xml version="1.0" encoding="iso-8859-1"?>
<!-- Generator: Adobe Illustrator 16.0.0, SVG Export Plug-In . SVG Version: 6.00 Build 0)  -->
<!DOCTYPE svg PUBLIC "-//W3C//DTD SVG 1.1//EN" "http://www.w3.org/Graphics/SVG/1.1/DTD/svg11.dtd">
<svg version="1.1" id="Capa_1" xmlns="http://www.w3.org/2000/svg" xmlns:xlink="http://www.w3.org/1999/xlink" x="0px" y="0px"
	 width="612px" height="612px" viewBox="0 0 612 612" style="enable-background:new 0 0 612 612;" xml:space="preserve">
<g>
	<g>
		<rect x="27.818" y="153" width="556.363" height="27.818"/>
		<path d="M0,514.637h612V208.636H0V514.637z M317.183,373.348c-1.947-1.836-4.84-3.895-8.651-6.203
			c-3.811-2.309-8.679-4.812-14.604-7.512c-12.212-5.48-20.251-10.516-24.09-15.105c-6.12-6.871-9.18-15.105-9.18-24.674
			c0-4.535,0.724-8.764,2.17-12.658c1.447-3.894,3.533-7.455,6.287-10.626c2.754-3.171,6.12-5.953,10.153-8.262
			c4.034-2.337,8.596-4.145,13.714-5.48v-18.555h16.552v18.527c7.427,1.196,13.52,3.644,18.248,7.372
			c4.729,3.728,9.236,9.43,13.52,17.108l-18.443,10.293c-5.535-10.07-12.796-15.133-21.726-15.133
			c-5.536,0-10.154,1.641-13.798,4.924c-3.644,3.281-5.48,7.371-5.48,12.295c0,4.479,1.474,8.178,4.451,11.154
			c2.893,2.895,8.763,6.344,17.581,10.293c7.622,3.479,13.937,6.732,18.916,9.793s8.735,6.008,11.239,8.846
			c7.121,7.678,10.682,16.969,10.682,27.873c0,10.711-3.227,20.17-9.652,28.348c-6.371,8.123-14.883,13.604-25.51,16.441v19.555
			h-16.552v-19c-12.351-2.029-21.782-6.258-28.263-12.768c-6.509-6.453-11.294-16.469-14.382-30.016l20.78-4.34
			c2.838,9.568,6.287,16.412,10.404,20.502c4.284,3.895,9.987,5.869,17.108,5.869c6.927,0,12.741-2.225,17.386-6.703
			c4.591-4.424,6.899-10.127,6.899-17.109C322.941,382.139,321.021,377.131,317.183,373.348z"/>
		<rect x="55.636" y="97.363" width="500.727" height="27.818"/>
	</g>
</g>
<g>
</g>
<g>
</g>
<g>
</g>
<g>
</g>
<g>
</g>
<g>
</g>
<g>
</g>
<g>
</g>
<g>
</g>
<g>
</g>
<g>
</g>
<g>
</g>
<g>
</g>
<g>
</g>
<g>
</g>
</svg>
