<?xml version="1.0" encoding="iso-8859-1"?>
<!-- Generator: Adobe Illustrator 16.0.0, SVG Export Plug-In . SVG Version: 6.00 Build 0)  -->
<!DOCTYPE svg PUBLIC "-//W3C//DTD SVG 1.1//EN" "http://www.w3.org/Graphics/SVG/1.1/DTD/svg11.dtd">
<svg version="1.1" id="Capa_1" xmlns="http://www.w3.org/2000/svg" xmlns:xlink="http://www.w3.org/1999/xlink" x="0px" y="0px"
	 width="612px" height="612px" viewBox="0 0 612 612" style="enable-background:new 0 0 612 612;" xml:space="preserve">
<g>
	<g>
		<path d="M0,306.39c0,55.219,41.338,101.035,95.639,109.882l19.139,1.529h106.599v-27.623H116.085l-12.685-1.001
			c-36.665-5.842-77.168-49.322-77.168-84.874c0-27.763,23.673-72.272,69.406-88.073l-9.208-24.035
			c-2.142-4.618-3.227-9.542-3.227-14.66c0-19.974,20.196-49.655,51.881-49.655c10.877,0,23.618,5.424,30.906,13.13l29.904,20.78
			l25.426-33.91c28.792-42.924,77.362-72.439,132.137-72.439c77.251,0,153.501,73.635,154.725,147.242v26.094l26.9,7.205
			c30.321,10.209,50.656,37.666,50.656,68.322c0,35.524-36.386,80.033-73.05,85.875h-16.83H391.318v27.623h105.876l19.139-1.529
			C570.662,407.425,612,361.608,612,306.39c0-48.515-31.936-89.825-76.527-105.097c-1.614-96.084-82.343-173.474-181.653-173.474
			c-71.632,0-133.583,40.253-163.181,98.754c-13.993-15.022-34.244-24.48-56.777-24.48c-42.256,0-76.5,33.271-76.5,74.274
			c0,10.71,2.336,20.892,6.509,30.071C26.038,224.66,0,262.576,0,306.39z"/>
		<polygon points="292.146,194.727 292.146,549.409 166.909,472.909 166.909,500.728 306,584.182 445.091,500.728 445.091,472.909 
			319.909,549.409 319.909,194.727 		"/>
	</g>
</g>
<g>
</g>
<g>
</g>
<g>
</g>
<g>
</g>
<g>
</g>
<g>
</g>
<g>
</g>
<g>
</g>
<g>
</g>
<g>
</g>
<g>
</g>
<g>
</g>
<g>
</g>
<g>
</g>
<g>
</g>
</svg>
