<?xml version="1.0" encoding="iso-8859-1"?>
<!-- Generator: Adobe Illustrator 16.0.0, SVG Export Plug-In . SVG Version: 6.00 Build 0)  -->
<!DOCTYPE svg PUBLIC "-//W3C//DTD SVG 1.1//EN" "http://www.w3.org/Graphics/SVG/1.1/DTD/svg11.dtd">
<svg version="1.1" id="Capa_1" xmlns="http://www.w3.org/2000/svg" xmlns:xlink="http://www.w3.org/1999/xlink" x="0px" y="0px"
	 width="612px" height="612px" viewBox="0 0 612 612" style="enable-background:new 0 0 612 612;" xml:space="preserve">
<g>
	<path d="M0,390.345c0,55.219,41.338,101.035,95.639,109.882H305.11L194.727,376.046h55.998V250.864h111.023v125.182h55.524
		L306.891,500.227h209.471C570.662,491.38,612,445.563,612,390.345c0-48.515-31.936-89.797-76.527-105.097
		c-1.614-96.084-82.343-173.474-181.653-173.474c-71.632,0-133.583,40.253-163.181,98.754c-13.993-15.021-34.244-24.48-56.75-24.48
		c-42.255,0-76.5,33.271-76.5,74.275c0,10.71,2.337,20.891,6.51,30.099C26.038,308.615,0,346.531,0,390.345z"/>
</g>
<g>
</g>
<g>
</g>
<g>
</g>
<g>
</g>
<g>
</g>
<g>
</g>
<g>
</g>
<g>
</g>
<g>
</g>
<g>
</g>
<g>
</g>
<g>
</g>
<g>
</g>
<g>
</g>
<g>
</g>
</svg>
