<?xml version="1.0" encoding="iso-8859-1"?>
<!-- Generator: Adobe Illustrator 16.0.0, SVG Export Plug-In . SVG Version: 6.00 Build 0)  -->
<!DOCTYPE svg PUBLIC "-//W3C//DTD SVG 1.1//EN" "http://www.w3.org/Graphics/SVG/1.1/DTD/svg11.dtd">
<svg version="1.1" id="Capa_1" xmlns="http://www.w3.org/2000/svg" xmlns:xlink="http://www.w3.org/1999/xlink" x="0px" y="0px"
	 width="775.199px" height="775.199px" viewBox="0 0 775.199 775.199" style="enable-background:new 0 0 775.199 775.199;"
	 xml:space="preserve">
<g>
	<path d="M685.194,775.199c4.651,0,8.405-3.793,8.405-8.566V8.568c0-4.732-3.754-8.568-8.405-8.568H90.004
		C85.353,0,81.6,3.794,81.6,8.568v758.065c0,4.732,3.753,8.566,8.405,8.566H685.194z M163.2,122.4H612v40.8H163.2V122.4z
		 M163.2,244.8H612v40.8H163.2V244.8z M163.2,367.2H612V408H163.2V367.2z M163.2,489.6H612V530.4H163.2V489.6z M163.2,612h285.6
		v40.801H163.2V612z"/>
</g>
<g>
</g>
<g>
</g>
<g>
</g>
<g>
</g>
<g>
</g>
<g>
</g>
<g>
</g>
<g>
</g>
<g>
</g>
<g>
</g>
<g>
</g>
<g>
</g>
<g>
</g>
<g>
</g>
<g>
</g>
</svg>
