<?xml version="1.0" encoding="iso-8859-1"?>
<!-- Generator: Adobe Illustrator 16.0.0, SVG Export Plug-In . SVG Version: 6.00 Build 0)  -->
<!DOCTYPE svg PUBLIC "-//W3C//DTD SVG 1.1//EN" "http://www.w3.org/Graphics/SVG/1.1/DTD/svg11.dtd">
<svg version="1.1" id="Capa_1" xmlns="http://www.w3.org/2000/svg" xmlns:xlink="http://www.w3.org/1999/xlink" x="0px" y="0px"
	 width="775.199px" height="775.199px" viewBox="0 0 775.199 775.199" style="enable-background:new 0 0 775.199 775.199;"
	 xml:space="preserve">
<g>
	<g>
		<rect x="163.2" y="489.6" width="448.8" height="40.801"/>
		<rect x="163.2" y="367.2" width="448.8" height="40.8"/>
		<rect x="163.2" y="612" width="285.6" height="40.801"/>
		<rect x="163.2" y="244.8" width="448.8" height="40.8"/>
		<path d="M685.194,775.199c4.651,0,8.405-3.793,8.405-8.566V8.568c0-4.732-3.754-8.568-8.405-8.568H90.004
			C85.353,0,81.6,3.794,81.6,8.568v758.065c0,4.732,3.753,8.566,8.405,8.566H685.194z M122.399,40.8h530.4v693.6h-530.4V40.8z"/>
		<rect x="163.2" y="122.4" width="448.8" height="40.8"/>
	</g>
</g>
<g>
</g>
<g>
</g>
<g>
</g>
<g>
</g>
<g>
</g>
<g>
</g>
<g>
</g>
<g>
</g>
<g>
</g>
<g>
</g>
<g>
</g>
<g>
</g>
<g>
</g>
<g>
</g>
<g>
</g>
</svg>
