<?xml version="1.0" encoding="iso-8859-1"?>
<!-- Generator: Adobe Illustrator 16.0.0, SVG Export Plug-In . SVG Version: 6.00 Build 0)  -->
<!DOCTYPE svg PUBLIC "-//W3C//DTD SVG 1.1//EN" "http://www.w3.org/Graphics/SVG/1.1/DTD/svg11.dtd">
<svg version="1.1" id="Capa_1" xmlns="http://www.w3.org/2000/svg" xmlns:xlink="http://www.w3.org/1999/xlink" x="0px" y="0px"
	 width="792.006px" height="792.007px" viewBox="0 0 792.006 792.007" style="enable-background:new 0 0 792.006 792.007;"
	 xml:space="preserve">
<g>
	<g>
		<path d="M181.025,99.889V53.836c-0.251-0.287-0.538-0.573-0.789-0.86l-35.05,0.072v738.959h35.05V99.351
			C180.487,99.531,180.774,99.709,181.025,99.889z"/>
		<path d="M372.404,335.385c-61.213,36.376-115.867,35.48-153.103,22.578v36.448c45.121,11.612,106.19,9.641,170.986-28.886
			c93.647-55.622,158.694-56.84,209.8-34.835c9.426,4.05,15.339,7.884,17.775,9.963l28.958,24.872v-38.168V36.956l-6.093-5.232
			c-5.018-4.301-13.905-10.035-26.771-15.59C552.314-10.387,475.511-8.201,372.404,53.048
			c-66.445,39.458-117.049,44.727-155.54,27.058v37.559c46.59,15.16,104.577,6.415,173.423-34.477
			c93.647-55.657,158.694-56.84,209.8-34.835c9.426,4.05,13.833,9.39,13.833,9.39v240.765
			C552.314,271.986,475.511,274.137,372.404,335.385z"/>
	</g>
</g>
<g>
</g>
<g>
</g>
<g>
</g>
<g>
</g>
<g>
</g>
<g>
</g>
<g>
</g>
<g>
</g>
<g>
</g>
<g>
</g>
<g>
</g>
<g>
</g>
<g>
</g>
<g>
</g>
<g>
</g>
</svg>
