<?xml version="1.0" encoding="iso-8859-1"?>
<!-- Generator: Adobe Illustrator 16.0.0, SVG Export Plug-In . SVG Version: 6.00 Build 0)  -->
<!DOCTYPE svg PUBLIC "-//W3C//DTD SVG 1.1//EN" "http://www.w3.org/Graphics/SVG/1.1/DTD/svg11.dtd">
<svg version="1.1" id="Capa_1" xmlns="http://www.w3.org/2000/svg" xmlns:xlink="http://www.w3.org/1999/xlink" x="0px" y="0px"
	 width="792.006px" height="792.007px" viewBox="0 0 792.006 792.007" style="enable-background:new 0 0 792.006 792.007;"
	 xml:space="preserve">
<g>
	<g>
		<path d="M390.287,365.525c93.647-55.622,158.694-56.84,209.8-34.835c9.426,4.05,15.339,7.884,17.775,9.963l28.958,24.872V36.956
			l-6.093-5.232c-5.018-4.301-13.905-10.035-26.771-15.59C552.314-10.387,475.511-8.201,372.404,53.048
			c-66.051,39.243-116.476,44.655-154.895,27.345l1.792,313.983C264.421,406.023,325.491,404.017,390.287,365.525z"/>
		<path d="M180.236,52.976l-35.05,0.072v738.959h35.05C180.236,792.007,182.566,55.556,180.236,52.976z"/>
	</g>
</g>
<g>
</g>
<g>
</g>
<g>
</g>
<g>
</g>
<g>
</g>
<g>
</g>
<g>
</g>
<g>
</g>
<g>
</g>
<g>
</g>
<g>
</g>
<g>
</g>
<g>
</g>
<g>
</g>
<g>
</g>
</svg>
