<?xml version="1.0" encoding="iso-8859-1"?>
<!-- Generator: Adobe Illustrator 16.0.0, SVG Export Plug-In . SVG Version: 6.00 Build 0)  -->
<!DOCTYPE svg PUBLIC "-//W3C//DTD SVG 1.1//EN" "http://www.w3.org/Graphics/SVG/1.1/DTD/svg11.dtd">
<svg version="1.1" id="Capa_1" xmlns="http://www.w3.org/2000/svg" xmlns:xlink="http://www.w3.org/1999/xlink" x="0px" y="0px"
	 width="641.143px" height="641.143px" viewBox="0 0 641.143 641.143" style="enable-background:new 0 0 641.143 641.143;"
	 xml:space="preserve">
<g>
	<g>
		<path d="M422.338,641.143c16.232,0,29.376-12.794,29.376-29.201V29.201C451.714,13.085,438.629,0,422.338,0H43.918
			C27.715,0,14.571,12.793,14.571,29.201v582.711c0,16.146,13.085,29.23,29.347,29.23H422.338z"/>
		<path d="M568.285,582.886V233.143h29.144c16.087,0,29.143-12.765,29.143-29.23V58.373c0-16.145-12.939-29.23-29.143-29.23H480.857
			V612h58.314C555.259,612,568.285,598.944,568.285,582.886z"/>
	</g>
</g>
<g>
</g>
<g>
</g>
<g>
</g>
<g>
</g>
<g>
</g>
<g>
</g>
<g>
</g>
<g>
</g>
<g>
</g>
<g>
</g>
<g>
</g>
<g>
</g>
<g>
</g>
<g>
</g>
<g>
</g>
</svg>
