<?xml version="1.0" encoding="iso-8859-1"?>
<!-- Generator: Adobe Illustrator 16.0.0, SVG Export Plug-In . SVG Version: 6.00 Build 0)  -->
<!DOCTYPE svg PUBLIC "-//W3C//DTD SVG 1.1//EN" "http://www.w3.org/Graphics/SVG/1.1/DTD/svg11.dtd">
<svg version="1.1" id="Capa_1" xmlns="http://www.w3.org/2000/svg" xmlns:xlink="http://www.w3.org/1999/xlink" x="0px" y="0px"
	 width="612px" height="612px" viewBox="0 0 612 612" style="enable-background:new 0 0 612 612;" xml:space="preserve">
<g>
	<g>
		<path d="M194.644,13.909H55.72c-15.411,0-27.901,12.351-27.901,27.818V153h27.818V41.727h139.091v55.637h361.636V153h27.818
			V97.336c0-15.356-12.435-27.791-27.763-27.791H222.545V41.727C222.545,26.372,210.361,13.909,194.644,13.909z"/>
		<path d="M0,208.859v361.219c0,15.467,12.212,28.013,27.902,28.013h556.224c15.384,0,27.874-12.49,27.874-28.041V208.859
			c0-15.495-12.212-28.041-27.874-28.041H27.902C12.49,180.818,0,193.309,0,208.859z M27.818,208.636h556.363v361.636H27.818
			V208.636z"/>
	</g>
</g>
<g>
</g>
<g>
</g>
<g>
</g>
<g>
</g>
<g>
</g>
<g>
</g>
<g>
</g>
<g>
</g>
<g>
</g>
<g>
</g>
<g>
</g>
<g>
</g>
<g>
</g>
<g>
</g>
<g>
</g>
</svg>
