<?xml version="1.0" encoding="iso-8859-1"?>
<!-- Generator: Adobe Illustrator 16.0.0, SVG Export Plug-In . SVG Version: 6.00 Build 0)  -->
<!DOCTYPE svg PUBLIC "-//W3C//DTD SVG 1.1//EN" "http://www.w3.org/Graphics/SVG/1.1/DTD/svg11.dtd">
<svg version="1.1" id="Capa_1" xmlns="http://www.w3.org/2000/svg" xmlns:xlink="http://www.w3.org/1999/xlink" x="0px" y="0px"
	 width="612.02px" height="612.02px" viewBox="0 0 612.02 612.02" style="enable-background:new 0 0 612.02 612.02;"
	 xml:space="preserve">
<g>
	<g>
		<path d="M228.309,48.228L0.428,443.056c-0.971,1.713-0.23,2.99,1.61,2.99h455.991c1.84,0,2.556-1.329,1.61-2.99L231.759,48.228
			C230.788,46.541,229.254,46.566,228.309,48.228z M45.999,416.808L229.229,99.907l183.229,316.901H45.999z"/>
		<path d="M423.935,539.488c-57.481,0-108.011-30.338-137.046-76.139h-29.06c31.616,60.522,94.132,101.697,166.106,101.697
			c103.87,0,188.085-85.825,188.085-191.689c0-105.863-84.215-191.688-188.085-191.688c-28.882,0-56.229,6.645-80.688,18.479
			l14.977,21.137c20.09-9.048,42.325-14.057,65.712-14.057c90.017,0,162.985,74.375,162.985,166.13
			C586.92,465.113,513.951,539.488,423.935,539.488z"/>
	</g>
</g>
<g>
</g>
<g>
</g>
<g>
</g>
<g>
</g>
<g>
</g>
<g>
</g>
<g>
</g>
<g>
</g>
<g>
</g>
<g>
</g>
<g>
</g>
<g>
</g>
<g>
</g>
<g>
</g>
<g>
</g>
</svg>
