<?xml version="1.0" encoding="iso-8859-1"?>
<!-- Generator: Adobe Illustrator 16.0.0, SVG Export Plug-In . SVG Version: 6.00 Build 0)  -->
<!DOCTYPE svg PUBLIC "-//W3C//DTD SVG 1.1//EN" "http://www.w3.org/Graphics/SVG/1.1/DTD/svg11.dtd">
<svg version="1.1" id="Capa_1" xmlns="http://www.w3.org/2000/svg" xmlns:xlink="http://www.w3.org/1999/xlink" x="0px" y="0px"
	 width="792px" height="792px" viewBox="0 0 792 792" style="enable-background:new 0 0 792 792;" xml:space="preserve">
<g>
	<path d="M558.216,234C576.468,88.452,540,0,540,0H252c0,0-36.468,88.452-18.216,234c18,143.676,128.052,161.568,135.9,265.86V720
		c0,0,0,17.136-14.796,23.544c-14.796,6.408-101.664,13.356-101.664,30.996S326.7,792,395.424,792c68.725,0,142.2,0.18,142.2-17.46
		s-86.868-24.588-101.664-30.996C421.2,737.136,421.2,720,421.2,720l0.864-216C427.284,396,540,379.548,558.216,234z"/>
</g>
<g>
</g>
<g>
</g>
<g>
</g>
<g>
</g>
<g>
</g>
<g>
</g>
<g>
</g>
<g>
</g>
<g>
</g>
<g>
</g>
<g>
</g>
<g>
</g>
<g>
</g>
<g>
</g>
<g>
</g>
</svg>
