<?xml version="1.0" encoding="iso-8859-1"?>
<!-- Generator: Adobe Illustrator 16.0.0, SVG Export Plug-In . SVG Version: 6.00 Build 0)  -->
<!DOCTYPE svg PUBLIC "-//W3C//DTD SVG 1.1//EN" "http://www.w3.org/Graphics/SVG/1.1/DTD/svg11.dtd">
<svg version="1.1" id="Capa_1" xmlns="http://www.w3.org/2000/svg" xmlns:xlink="http://www.w3.org/1999/xlink" x="0px" y="0px"
	 width="792px" height="792px" viewBox="0 0 792 792" style="enable-background:new 0 0 792 792;" xml:space="preserve">
<g>
	<path d="M647.68,214.692C627.652,137.315,595.005,56.954,545.997,0.899L246.736,0c-49.439,56.091-82.339,136.884-102.438,214.692
		c-41.349,159.788,31.713,274.271,217.497,286.532v254.999H270V792h254.136v-35.776h-92.191V501.117
		C616.435,488.245,688.957,374.301,647.68,214.692z M395.989,466.384c-181.217,0-256.222-90.573-216.886-242.702
		c19.632-75.867,48.217-141.199,84.137-187.258l265.858,0.467c35.74,46.023,64.217,111.176,83.741,186.791
		C652.282,376.026,577.351,466.384,395.989,466.384z"/>
</g>
<g>
</g>
<g>
</g>
<g>
</g>
<g>
</g>
<g>
</g>
<g>
</g>
<g>
</g>
<g>
</g>
<g>
</g>
<g>
</g>
<g>
</g>
<g>
</g>
<g>
</g>
<g>
</g>
<g>
</g>
</svg>
