<?xml version="1.0" encoding="iso-8859-1"?>
<!-- Generator: Adobe Illustrator 16.0.0, SVG Export Plug-In . SVG Version: 6.00 Build 0)  -->
<!DOCTYPE svg PUBLIC "-//W3C//DTD SVG 1.1//EN" "http://www.w3.org/Graphics/SVG/1.1/DTD/svg11.dtd">
<svg version="1.1" id="Capa_1" xmlns="http://www.w3.org/2000/svg" xmlns:xlink="http://www.w3.org/1999/xlink" x="0px" y="0px"
	 width="612px" height="612px" viewBox="0 0 612 612" style="enable-background:new 0 0 612 612;" xml:space="preserve">
<g>
	<g>
		<path d="M319.687,308.476c15.801,2.865,24.786,15.773,30.016,18.722c15.801,8.93-64.538,27.68,14.521,85.374
			c-2.003,28.709-0.835,55.47-3.867,60.31c-6.954,11.044-3.255,18.138,0,21.643c-18.86,4.841,3.783,44.982,18.861,35.83
			c9.263-5.646,0-17.358,8.067-28.485c-8.067-19.473,59.058-72.772,71.437-82.036c0,0-0.417-23.423,18.305-38.167
			c9.291-7.315-14.021-22.143-29.933-17.024c0,0-0.945-30.127-44.593-26.371c-16.719,1.446-27.846-9.041-27.846-9.041
			s-14.271-27.123-29.904-27.123c-2.532,0,1.947-10.042-7.789-15.133c-7.65-4.006-28.903-4.256-28.903-12.324
			s20.613-4.84,33.438-15.05c3.866-3.06,9.542,11.99,13.575,8.596c4.59-3.867-5.035-10.96,9.208-23.089
			c2.587-2.198,16.579-17.247,28.458-27.011c4.284-3.533,12.713-0.807,14.021-4.368c4.951-13.436-18.026-2.142-10.293-19.194
			c2.781-6.12,45.315,10.738,47.764,8.29c5.897-5.925-31.49-7.928-15.995-17.164c6.564-3.922-44.677-44.565-59.643-40.448
			c-14.994,4.117,2.253,43.758-13.548,40.448c-15.661-3.283-34.438-18.694-44.676-27.512c-12.045-10.404,20.475-9.569,26.539-18.11
			c7.26-10.265,0.945-20.057-5.008-21.976c-22.699-7.261-54.162,9.736-69.044,6.009c-26.316-6.593-14.16-13.019-42.479-16.969
			c-14.131-1.975-29.543,8.234-52.994,3.616c-28.597-5.647-28.347,48.014-39.029,60.56c26.789-23.367,80.923-6.287,75.61,14.41
			c-6.927,27.067,42.534,69.518,50.407,88.962c4.117,10.182,21.114-11.016,34.912,27.457
			C291.785,314.095,306.779,306.139,319.687,308.476z"/>
		<path d="M612,306C612,137.004,474.995,0,306,0C137.004,0,0,137.004,0,306c0,168.995,137.004,306,306,306
			C474.995,612,612,474.995,612,306z M27.818,306C27.818,152.36,152.36,27.818,306,27.818S584.182,152.36,584.182,306
			S459.64,584.182,306,584.182S27.818,459.64,27.818,306z"/>
	</g>
</g>
<g>
</g>
<g>
</g>
<g>
</g>
<g>
</g>
<g>
</g>
<g>
</g>
<g>
</g>
<g>
</g>
<g>
</g>
<g>
</g>
<g>
</g>
<g>
</g>
<g>
</g>
<g>
</g>
<g>
</g>
</svg>
