<?xml version="1.0" encoding="iso-8859-1"?>
<!-- Generator: Adobe Illustrator 16.0.0, SVG Export Plug-In . SVG Version: 6.00 Build 0)  -->
<!DOCTYPE svg PUBLIC "-//W3C//DTD SVG 1.1//EN" "http://www.w3.org/Graphics/SVG/1.1/DTD/svg11.dtd">
<svg version="1.1" id="Capa_1" xmlns="http://www.w3.org/2000/svg" xmlns:xlink="http://www.w3.org/1999/xlink" x="0px" y="0px"
	 width="612px" height="612px" viewBox="0 0 612 612" style="enable-background:new 0 0 612 612;" xml:space="preserve">
<g>
	<g>
		<path d="M139.091,390.706v136.561c0,0.027,0,15.188,13.909,15.188s13.909-15.16,13.909-15.16V390.735
			c0-0.029,0-15.189-13.909-15.189S139.091,390.706,139.091,390.706z"/>
		<path d="M445.091,390.706v136.561c0,0,0,15.16,13.909,15.16s13.909-15.16,13.909-15.16V390.706c0,0,0-15.16-13.909-15.16
			S445.091,390.706,445.091,390.706z"/>
		<path d="M306,69.546c-223.352,0-222.545,203.212-222.545,203.212v106.628c0,0-13.798-4.812-27.095-4.812
			C0,374.573,0,403.894,0,403.894v104.846c0,0,7.706,33.715,56.36,33.715c48.654,0,55.024-33.715,55.024-33.715V272.702
			c0,0-9.375-172,194.616-172c203.99,0,195.172,172,195.172,172v236.037c0,0,4.396,33.715,55.414,33.715
			c50.991,0,55.414-33.715,55.414-33.715V403.894c0,0,0-30.238-55.414-30.238c-15.522,0-28.04,4.812-28.04,4.812v-105.71
			C528.546,272.758,529.353,69.546,306,69.546z M83.455,502.702c0,0,0,11.936-13.186,11.936H41.338
			c-13.52,0-13.52-11.936-13.52-11.936v-86.207c0,0,2.476-13.131,13.547-13.131h28.931c-0.028,0,13.158,0,13.158,13.131V502.702z
			 M542.093,403.364h28.931c0,0,13.187,0,13.187,13.131v86.207c0,0,0,11.936-13.187,11.936h-28.931
			c-13.547,0-13.547-11.936-13.547-11.936v-86.207C528.546,416.495,531.021,403.364,542.093,403.364z"/>
	</g>
</g>
<g>
</g>
<g>
</g>
<g>
</g>
<g>
</g>
<g>
</g>
<g>
</g>
<g>
</g>
<g>
</g>
<g>
</g>
<g>
</g>
<g>
</g>
<g>
</g>
<g>
</g>
<g>
</g>
<g>
</g>
</svg>
