<?xml version="1.0" encoding="iso-8859-1"?>
<!-- Generator: Adobe Illustrator 16.0.0, SVG Export Plug-In . SVG Version: 6.00 Build 0)  -->
<!DOCTYPE svg PUBLIC "-//W3C//DTD SVG 1.1//EN" "http://www.w3.org/Graphics/SVG/1.1/DTD/svg11.dtd">
<svg version="1.1" id="Capa_1" xmlns="http://www.w3.org/2000/svg" xmlns:xlink="http://www.w3.org/1999/xlink" x="0px" y="0px"
	 width="612px" height="612px" viewBox="0 0 612 612" style="enable-background:new 0 0 612 612;" xml:space="preserve">
<g>
	<path d="M612,306C612,137.004,474.995,0,306,0C137.004,0,0,137.004,0,306c0,168.995,137.004,306,306,306
		C474.995,612,612,474.995,612,306z M250.475,211.474c-4.896,9.375-7.678,22.895-8.346,40.559h-36.275
		c0-29.348,8.29-52.938,24.87-70.797s39.335-26.789,68.266-26.789c26.761,0,48.181,7.65,64.288,22.922
		c16.107,15.272,24.146,34.801,24.146,58.585c0,14.41-2.949,26.094-8.874,35.051s-17.831,22.143-35.746,39.529
		c-13.047,12.63-21.504,23.34-25.37,32.103c-3.867,8.763-5.814,21.698-5.814,38.807h-36.275c0-19.418,2.309-35.079,6.927-46.957
		c4.618-11.879,14.744-25.51,30.35-40.865l16.301-16.107c4.896-4.618,8.818-9.43,11.823-14.465c5.425-8.818,8.15-17.999,8.15-27.512
		c0-13.325-3.978-24.87-11.906-34.634c-7.928-9.764-21.086-14.66-39.418-14.66C274.872,186.187,259.182,194.616,250.475,211.474z
		 M274.51,415.214h40.559v42.367H274.51V415.214z"/>
</g>
<g>
</g>
<g>
</g>
<g>
</g>
<g>
</g>
<g>
</g>
<g>
</g>
<g>
</g>
<g>
</g>
<g>
</g>
<g>
</g>
<g>
</g>
<g>
</g>
<g>
</g>
<g>
</g>
<g>
</g>
</svg>
