<?xml version="1.0" encoding="iso-8859-1"?>
<!-- Generator: Adobe Illustrator 16.0.0, SVG Export Plug-In . SVG Version: 6.00 Build 0)  -->
<!DOCTYPE svg PUBLIC "-//W3C//DTD SVG 1.1//EN" "http://www.w3.org/Graphics/SVG/1.1/DTD/svg11.dtd">
<svg version="1.1" id="Capa_1" xmlns="http://www.w3.org/2000/svg" xmlns:xlink="http://www.w3.org/1999/xlink" x="0px" y="0px"
	 width="612px" height="612px" viewBox="0 0 612 612" style="enable-background:new 0 0 612 612;" xml:space="preserve">
<g>
	<g>
		<path d="M280.5,0H51C51,0,0,0,0,51v459c0,51,51,51,51,51h229.5c0,0,51,0,51-51V51C331.5,0,280.5,0,280.5,0z M306,510
			c0,12.291-3.825,18.028-11.398,21.828c-5.38,2.678-11.322,3.672-14.102,3.672H51c-2.779,0-8.721-0.994-14.102-3.672
			C29.325,528.028,25.5,522.291,25.5,510v-51H306V510z M306,433.5H25.5V89.25H306V433.5z M306,63.75H25.5V51
			c0-12.291,3.825-18.028,11.398-21.828C42.279,26.495,48.221,25.5,51,25.5h229.5c2.779,0,8.721,0.995,14.102,3.672
			C302.175,32.972,306,38.709,306,51V63.75z"/>
		<circle cx="548.25" cy="446.25" r="25.5"/>
		<path d="M229.5,586.5H57.375C63.75,599.25,76.5,612,102,612h459c51,0,51-51,51-51V331.5c0,0,0-51-51-51H357V306h127.5v280.5H229.5
			z M510,306h51c12.291,0,18.028,3.825,21.828,11.398c2.678,5.381,3.672,11.322,3.672,14.102V561c0,2.779-0.994,8.721-3.672,14.102
			c-3.8,7.573-9.537,11.398-21.828,11.398h-51V306z"/>
		<circle cx="165.75" cy="497.25" r="25.5"/>
		<path d="M223.864,38.25H107.636c-3.111,0-5.636,2.474-5.636,5.636v1.504c0,3.111,2.55,5.635,5.636,5.635h116.203
			c3.137,0,5.661-2.474,5.661-5.635v-1.504C229.5,40.774,226.95,38.25,223.864,38.25z"/>
	</g>
</g>
<g>
</g>
<g>
</g>
<g>
</g>
<g>
</g>
<g>
</g>
<g>
</g>
<g>
</g>
<g>
</g>
<g>
</g>
<g>
</g>
<g>
</g>
<g>
</g>
<g>
</g>
<g>
</g>
<g>
</g>
</svg>
