<?xml version="1.0" encoding="iso-8859-1"?>
<!-- Generator: Adobe Illustrator 16.0.0, SVG Export Plug-In . SVG Version: 6.00 Build 0)  -->
<!DOCTYPE svg PUBLIC "-//W3C//DTD SVG 1.1//EN" "http://www.w3.org/Graphics/SVG/1.1/DTD/svg11.dtd">
<svg version="1.1" id="Capa_1" xmlns="http://www.w3.org/2000/svg" xmlns:xlink="http://www.w3.org/1999/xlink" x="0px" y="0px"
	 width="612px" height="612px" viewBox="0 0 612 612" style="enable-background:new 0 0 612 612;" xml:space="preserve">
<g>
	<g>
		<circle cx="542.455" cy="306" r="27.819"/>
		<path d="M55.664,242.601c0-3.394-2.698-6.147-6.148-6.147h-1.641c-3.394,0-6.148,2.782-6.148,6.147v126.768
			c0,3.422,2.698,6.176,6.148,6.176h1.641c3.394,0,6.148-2.781,6.148-6.146V242.601z"/>
		<path d="M556.364,486.818C612,486.818,612,431.182,612,431.182V180.817c0,0,0-55.636-55.636-55.636H55.636
			C0,125.182,0,180.817,0,180.817v250.364c0,0,0,55.637,55.636,55.637H556.364z M500.727,153h55.637
			c13.408,0,19.667,4.173,23.812,12.435c2.921,5.87,4.006,12.351,4.006,15.383v250.364c0,3.031-1.085,9.514-4.006,15.383
			C576.031,454.826,569.771,459,556.364,459h-55.636V153H500.727z M97.364,153h375.545v306H97.364V153z M31.824,446.564
			c-2.921-5.869-4.006-12.352-4.006-15.383V180.817c0-3.032,1.085-9.514,4.006-15.383C35.969,157.172,42.228,153,55.636,153h13.909
			v306H55.636C42.228,459,35.969,454.826,31.824,446.564z"/>
	</g>
</g>
<g>
</g>
<g>
</g>
<g>
</g>
<g>
</g>
<g>
</g>
<g>
</g>
<g>
</g>
<g>
</g>
<g>
</g>
<g>
</g>
<g>
</g>
<g>
</g>
<g>
</g>
<g>
</g>
<g>
</g>
</svg>
