<?xml version="1.0" encoding="iso-8859-1"?>
<!-- Generator: Adobe Illustrator 16.0.0, SVG Export Plug-In . SVG Version: 6.00 Build 0)  -->
<!DOCTYPE svg PUBLIC "-//W3C//DTD SVG 1.1//EN" "http://www.w3.org/Graphics/SVG/1.1/DTD/svg11.dtd">
<svg version="1.1" id="Capa_1" xmlns="http://www.w3.org/2000/svg" xmlns:xlink="http://www.w3.org/1999/xlink" x="0px" y="0px"
	 width="612.25px" height="612.25px" viewBox="0 0 612.25 612.25" style="enable-background:new 0 0 612.25 612.25;"
	 xml:space="preserve">
<g>
	<g>
		<polygon points="0.125,236.705 0.125,278.432 306.125,41.727 612.125,278.432 612.125,236.705 306.125,0 		"/>
		<polygon points="556.488,163.181 556.488,14.159 473.034,14.159 473.034,97.614 500.853,121.871 500.853,41.978 528.671,41.978 
			528.671,139.341 		"/>
		<polygon points="418.204,584.432 418.204,612.25 556.684,612.25 556.684,274.843 528.865,252.617 528.865,584.432 		"/>
		<path d="M222.67,612h166.909V333.818H222.67V612z M250.489,361.636h111.273v222.546H250.489V361.636z"/>
		<polygon points="55.761,275.9 55.761,612.25 194.296,612.25 194.296,584.432 83.58,584.432 83.58,253.368 		"/>
	</g>
</g>
<g>
</g>
<g>
</g>
<g>
</g>
<g>
</g>
<g>
</g>
<g>
</g>
<g>
</g>
<g>
</g>
<g>
</g>
<g>
</g>
<g>
</g>
<g>
</g>
<g>
</g>
<g>
</g>
<g>
</g>
</svg>
