<?xml version="1.0" encoding="iso-8859-1"?>
<!-- Generator: Adobe Illustrator 16.0.0, SVG Export Plug-In . SVG Version: 6.00 Build 0)  -->
<!DOCTYPE svg PUBLIC "-//W3C//DTD SVG 1.1//EN" "http://www.w3.org/Graphics/SVG/1.1/DTD/svg11.dtd">
<svg version="1.1" id="Capa_1" xmlns="http://www.w3.org/2000/svg" xmlns:xlink="http://www.w3.org/1999/xlink" x="0px" y="0px"
	 width="611.973px" height="611.973px" viewBox="0 0 611.973 611.973" style="enable-background:new 0 0 611.973 611.973;"
	 xml:space="preserve">
<g>
	<path d="M608.078,556.35c2.169,0,3.895-1.807,3.895-4.033V59.657c0.027-2.226-1.726-4.034-3.895-4.034H3.895
		C1.752,55.623,0,57.431,0,59.657v492.66c0,2.227,1.752,4.033,3.895,4.033H608.078z M486.818,139.078
		c23.033,0,41.728,18.694,41.728,41.728c0,23.033-18.694,41.727-41.728,41.727s-41.728-18.694-41.728-41.727
		C445.091,157.771,463.785,139.078,486.818,139.078z M55.581,489.865l159.009-306.584l8.93-17.247
		c2.031-3.895,5.508-3.867,7.678-0.111l90.604,156.449c1.112,1.92,3.533,2.42,5.313,1.17l76.861-54.052
		c3.589-2.531,8.401-1.641,10.794,2.114l139.675,218.623c2.364,3.699,0.667,6.705-3.505,6.705H59.726
		C55.414,496.932,53.55,493.787,55.581,489.865z"/>
</g>
<g>
</g>
<g>
</g>
<g>
</g>
<g>
</g>
<g>
</g>
<g>
</g>
<g>
</g>
<g>
</g>
<g>
</g>
<g>
</g>
<g>
</g>
<g>
</g>
<g>
</g>
<g>
</g>
<g>
</g>
</svg>
