<?xml version="1.0" encoding="iso-8859-1"?>
<!-- Generator: Adobe Illustrator 16.0.0, SVG Export Plug-In . SVG Version: 6.00 Build 0)  -->
<!DOCTYPE svg PUBLIC "-//W3C//DTD SVG 1.1//EN" "http://www.w3.org/Graphics/SVG/1.1/DTD/svg11.dtd">
<svg version="1.1" id="Capa_1" xmlns="http://www.w3.org/2000/svg" xmlns:xlink="http://www.w3.org/1999/xlink" x="0px" y="0px"
	 width="612px" height="612px" viewBox="0 0 612 612" style="enable-background:new 0 0 612 612;" xml:space="preserve">
<g>
	<g>
		<rect x="27.818" y="83.455" width="556.363" height="27.818"/>
		<path d="M0,142.68v437.914c0,1.975,1.752,3.588,3.922,3.588h604.183c2.17,0,3.895-1.613,3.895-3.588V142.68
			c0-1.976-1.753-3.589-3.895-3.589H3.922C1.752,139.091,0,140.704,0,142.68z M486.818,194.727
			c23.033,0,41.728,18.694,41.728,41.728c0,23.033-18.694,41.727-41.728,41.727s-41.728-18.694-41.728-41.727
			C445.091,213.421,463.785,194.727,486.818,194.727z M55.581,517.696l167.938-268.195c2.031-3.895,5.508-3.867,7.678-0.111
			l90.604,156.45c1.112,1.919,3.533,2.42,5.313,1.168l76.861-54.051c3.589-2.531,8.373-1.642,10.794,2.114l139.675,162.986
			c2.364,3.7,0.64,6.704-3.505,6.704H59.726C55.414,524.762,53.55,521.619,55.581,517.696z"/>
		<rect x="55.636" y="27.818" width="500.727" height="27.818"/>
	</g>
</g>
<g>
</g>
<g>
</g>
<g>
</g>
<g>
</g>
<g>
</g>
<g>
</g>
<g>
</g>
<g>
</g>
<g>
</g>
<g>
</g>
<g>
</g>
<g>
</g>
<g>
</g>
<g>
</g>
<g>
</g>
</svg>
