<?xml version="1.0" encoding="iso-8859-1"?>
<!-- Generator: Adobe Illustrator 16.0.0, SVG Export Plug-In . SVG Version: 6.00 Build 0)  -->
<!DOCTYPE svg PUBLIC "-//W3C//DTD SVG 1.1//EN" "http://www.w3.org/Graphics/SVG/1.1/DTD/svg11.dtd">
<svg version="1.1" id="Capa_1" xmlns="http://www.w3.org/2000/svg" xmlns:xlink="http://www.w3.org/1999/xlink" x="0px" y="0px"
	 width="612.036px" height="612.036px" viewBox="0 0 612.036 612.036" style="enable-background:new 0 0 612.036 612.036;"
	 xml:space="preserve">
<g>
	<g>
		<path d="M143.109,143.092c-22.187,22.187-22.585,57.783-0.881,79.458c21.704,21.704,57.271,21.306,79.458-0.881
			s22.584-57.754,0.881-79.458C200.863,120.508,165.295,120.906,143.109,143.092z M202.056,202.011
			c-11.108,11.108-28.892,11.307-39.744,0.455c-10.852-10.852-10.653-28.635,0.455-39.715c11.08-11.107,28.892-11.306,39.715-0.455
			C213.334,173.148,213.135,190.932,202.056,202.011z"/>
		<path d="M301.343,0L34.276,19.317c-7.699,0.54-14.403,7.386-14.942,14.943L0.016,301.327l306.696,306.697
			c5.426,5.426,14.318,5.34,19.858-0.199L607.84,326.553c5.539-5.539,5.539-14.488,0.198-19.857L301.343,0z M568.041,327.037
			L327.052,568.023c-5.539,5.539-14.488,5.682-19.914,0.256L26.663,287.776L47.827,63.18c0.71-7.642,7.614-14.63,15.369-15.369
			l224.596-21.164L568.295,307.15C573.807,312.633,573.608,321.469,568.041,327.037z"/>
	</g>
</g>
<g>
</g>
<g>
</g>
<g>
</g>
<g>
</g>
<g>
</g>
<g>
</g>
<g>
</g>
<g>
</g>
<g>
</g>
<g>
</g>
<g>
</g>
<g>
</g>
<g>
</g>
<g>
</g>
<g>
</g>
</svg>
