<?xml version="1.0" encoding="iso-8859-1"?>
<!-- Generator: Adobe Illustrator 16.0.0, SVG Export Plug-In . SVG Version: 6.00 Build 0)  -->
<!DOCTYPE svg PUBLIC "-//W3C//DTD SVG 1.1//EN" "http://www.w3.org/Graphics/SVG/1.1/DTD/svg11.dtd">
<svg version="1.1" id="Capa_1" xmlns="http://www.w3.org/2000/svg" xmlns:xlink="http://www.w3.org/1999/xlink" x="0px" y="0px"
	 width="611.979px" height="611.979px" viewBox="0 0 611.979 611.979" style="enable-background:new 0 0 611.979 611.979;"
	 xml:space="preserve">
<g>
	<g>
		<path d="M389.468,142.208c-21.703,21.703-21.306,57.269,0.88,79.454c22.187,22.186,57.752,22.583,79.455,0.881
			c21.703-21.703,21.305-57.269-0.881-79.455S411.142,120.504,389.468,142.208z M449.719,202.458
			c-10.852,10.852-28.635,10.653-39.713-0.455c-11.107-11.107-11.306-28.89-0.455-39.741c10.852-10.852,28.635-10.653,39.714,0.455
			C460.371,173.824,460.57,191.607,449.719,202.458z"/>
		<path d="M577.749,19.319L310.695,0.002L4.013,306.684c-5.426,5.426-5.34,14.316,0.199,19.857L285.47,607.797
			c5.539,5.541,14.487,5.541,19.828,0.199l306.682-306.681L592.662,34.261C592.151,26.562,585.306,19.858,577.749,19.319z
			 M304.872,568.256c-5.511,5.482-14.346,5.312-19.914-0.256L43.982,327.023c-5.54-5.539-5.682-14.488-0.256-19.914l280.491-280.49
			l224.586,21.164c7.641,0.71,14.629,7.613,15.368,15.368l21.163,224.585L304.872,568.256z"/>
	</g>
</g>
<g>
</g>
<g>
</g>
<g>
</g>
<g>
</g>
<g>
</g>
<g>
</g>
<g>
</g>
<g>
</g>
<g>
</g>
<g>
</g>
<g>
</g>
<g>
</g>
<g>
</g>
<g>
</g>
<g>
</g>
</svg>
