<?xml version="1.0" encoding="iso-8859-1"?>
<!-- Generator: Adobe Illustrator 16.0.0, SVG Export Plug-In . SVG Version: 6.00 Build 0)  -->
<!DOCTYPE svg PUBLIC "-//W3C//DTD SVG 1.1//EN" "http://www.w3.org/Graphics/SVG/1.1/DTD/svg11.dtd">
<svg version="1.1" id="Capa_1" xmlns="http://www.w3.org/2000/svg" xmlns:xlink="http://www.w3.org/1999/xlink" x="0px" y="0px"
	 width="612px" height="612px" viewBox="0 0 612 612" style="enable-background:new 0 0 612 612;" xml:space="preserve">
<g>
	<path d="M556.363,500.728c0,0,55.637,0,55.637-55.637V55.636C612,0,556.363,0,556.363,0H55.636C55.636,0,0,0,0,55.636v389.455
		c0,55.637,55.636,55.637,55.636,55.637h161.346v55.636L166.909,612h278.182l-61.2-55.637v-55.636H556.363z M55.636,389.454
		c0,0-27.818,0-27.818-28.931V56.749c0-28.931,27.818-28.931,27.818-28.931h500.727c0,0,27.818,0,27.818,28.931v303.774
		c0,28.931-27.818,28.931-27.818,28.931H55.636z"/>
</g>
<g>
</g>
<g>
</g>
<g>
</g>
<g>
</g>
<g>
</g>
<g>
</g>
<g>
</g>
<g>
</g>
<g>
</g>
<g>
</g>
<g>
</g>
<g>
</g>
<g>
</g>
<g>
</g>
<g>
</g>
</svg>
