<?xml version="1.0" encoding="iso-8859-1"?>
<!-- Generator: Adobe Illustrator 16.0.0, SVG Export Plug-In . SVG Version: 6.00 Build 0)  -->
<!DOCTYPE svg PUBLIC "-//W3C//DTD SVG 1.1//EN" "http://www.w3.org/Graphics/SVG/1.1/DTD/svg11.dtd">
<svg version="1.1" id="Capa_1" xmlns="http://www.w3.org/2000/svg" xmlns:xlink="http://www.w3.org/1999/xlink" x="0px" y="0px"
	 width="612px" height="612px" viewBox="0 0 612 612" style="enable-background:new 0 0 612 612;" xml:space="preserve">
<g>
	<path d="M612,306C612,137.004,474.995,0,306,0C137.004,0,0,137.004,0,306c0,168.995,137.004,306,306,306
		C474.995,612,612,474.995,612,306z M472.909,250.364c30.711,0,55.637,24.925,55.637,55.636c0,30.711-24.926,55.637-55.637,55.637
		c-30.739,0-55.637-24.897-55.637-55.637S442.17,250.364,472.909,250.364z M139.091,361.637c-30.739,0-55.636-24.897-55.636-55.637
		s24.897-55.636,55.636-55.636c30.711,0,55.636,24.925,55.636,55.636C194.727,336.711,169.802,361.637,139.091,361.637z
		 M250.364,306c0-30.739,24.897-55.636,55.636-55.636c30.711,0,55.637,24.925,55.637,55.636c0,30.711-24.926,55.637-55.637,55.637
		C275.261,361.637,250.364,336.739,250.364,306z"/>
</g>
<g>
</g>
<g>
</g>
<g>
</g>
<g>
</g>
<g>
</g>
<g>
</g>
<g>
</g>
<g>
</g>
<g>
</g>
<g>
</g>
<g>
</g>
<g>
</g>
<g>
</g>
<g>
</g>
<g>
</g>
</svg>
