<?xml version="1.0" encoding="iso-8859-1"?>
<!-- Generator: Adobe Illustrator 16.0.0, SVG Export Plug-In . SVG Version: 6.00 Build 0)  -->
<!DOCTYPE svg PUBLIC "-//W3C//DTD SVG 1.1//EN" "http://www.w3.org/Graphics/SVG/1.1/DTD/svg11.dtd">
<svg version="1.1" id="Capa_1" xmlns="http://www.w3.org/2000/svg" xmlns:xlink="http://www.w3.org/1999/xlink" x="0px" y="0px"
	 width="632.399px" height="632.399px" viewBox="0 0 632.399 632.399" style="enable-background:new 0 0 632.399 632.399;"
	 xml:space="preserve">
<g>
	<g>
		<polygon points="269.523,144.061 240.711,144.061 240.711,230.498 154.274,230.498 154.274,259.31 240.711,259.31 
			240.711,345.746 269.523,345.746 269.523,259.31 355.959,259.31 355.959,230.498 269.523,230.498 		"/>
		<path d="M255.117,0C119.873,0,10.213,109.66,10.213,244.904c0,135.245,109.659,244.905,244.904,244.905
			c52.006,0,100.238-16.223,139.883-43.854l185.176,185.176c1.671,1.672,4.408,1.672,5.964,0.115l34.892-34.891
			c1.614-1.613,1.499-4.379-0.115-5.965L438.132,407.605c38.521-43.246,61.889-100.237,61.889-162.702
			C500.021,109.66,390.362,0,255.117,0z M255.117,460.996c-119.34,0-216.092-96.752-216.092-216.092
			c0-119.34,96.751-216.091,216.092-216.091s216.091,96.751,216.091,216.091C471.208,364.244,374.458,460.996,255.117,460.996z"/>
	</g>
</g>
<g>
</g>
<g>
</g>
<g>
</g>
<g>
</g>
<g>
</g>
<g>
</g>
<g>
</g>
<g>
</g>
<g>
</g>
<g>
</g>
<g>
</g>
<g>
</g>
<g>
</g>
<g>
</g>
<g>
</g>
</svg>
