<?xml version="1.0" encoding="iso-8859-1"?>
<!-- Generator: Adobe Illustrator 16.0.0, SVG Export Plug-In . SVG Version: 6.00 Build 0)  -->
<!DOCTYPE svg PUBLIC "-//W3C//DTD SVG 1.1//EN" "http://www.w3.org/Graphics/SVG/1.1/DTD/svg11.dtd">
<svg version="1.1" id="Capa_1" xmlns="http://www.w3.org/2000/svg" xmlns:xlink="http://www.w3.org/1999/xlink" x="0px" y="0px"
	 width="612px" height="612px" viewBox="0 0 612 612" style="enable-background:new 0 0 612 612;" xml:space="preserve">
<g>
	<g>
		<path d="M404.143,352.233c-7.205-3.004-16.19-4.506-25.481-4.506c-5.703,0-16.496,3.311-23.396,6.898
			c-12.88,6.899-20.696,17.999-20.696,29.683c0,6.286,2.698,13.186,6.593,17.998c5.091,5.703,13.186,8.68,23.979,8.68
			c12.88,0,26.371-5.703,37.165-15.301c9.903-9.291,14.994-21.28,14.994-36.274v-189.47l-174.17,42.284v182.264
			c-6.009-2.698-14.382-4.2-23.673-4.2c-5.703,0-11.684,1.196-18.276,3.895c-16.496,6.593-26.678,18.889-26.678,32.381
			c0,6.286,2.698,13.186,6.593,17.998c5.091,5.702,13.492,8.679,24.286,8.679c17.692,0,39.585-12.88,46.456-27.873
			c2.393-5.397,4.507-15.885,4.507-23.396v-145.99l147.798-36.887V352.233z"/>
		<path d="M612,306C612,137.004,474.995,0,306,0C137.004,0,0,137.004,0,306c0,168.995,137.004,306,306,306
			C474.995,612,612,474.995,612,306z M27.818,306C27.818,152.36,152.36,27.818,306,27.818S584.182,152.36,584.182,306
			S459.64,584.182,306,584.182S27.818,459.64,27.818,306z"/>
	</g>
</g>
<g>
</g>
<g>
</g>
<g>
</g>
<g>
</g>
<g>
</g>
<g>
</g>
<g>
</g>
<g>
</g>
<g>
</g>
<g>
</g>
<g>
</g>
<g>
</g>
<g>
</g>
<g>
</g>
<g>
</g>
</svg>
