<?xml version="1.0" encoding="iso-8859-1"?>
<!-- Generator: Adobe Illustrator 16.0.0, SVG Export Plug-In . SVG Version: 6.00 Build 0)  -->
<!DOCTYPE svg PUBLIC "-//W3C//DTD SVG 1.1//EN" "http://www.w3.org/Graphics/SVG/1.1/DTD/svg11.dtd">
<svg version="1.1" id="Capa_1" xmlns="http://www.w3.org/2000/svg" xmlns:xlink="http://www.w3.org/1999/xlink" x="0px" y="0px"
	 width="612px" height="612px" viewBox="0 0 612 612" style="enable-background:new 0 0 612 612;" xml:space="preserve">
<g>
	<path d="M612,306C612,137.004,474.995,0,306,0C137.004,0,0,137.004,0,306c0,168.995,137.004,306,306,306
		C474.995,612,612,474.995,612,306z M257.318,446.927c-40.336,0-60.477-11.711-60.477-35.134c0-9.82,6.315-18.222,18.972-25.148
		s27.791-10.403,45.427-10.403c15.912,0,31.295,6.426,46.178,19.306V152.305l13.214-0.64c3.31,8.958,6.982,15.161,10.932,18.638
		c3.979,3.478,11.518,6.927,22.645,10.404c38,11.405,57.027,27.095,57.027,47.041c0,13.019-8.958,28.263-26.872,45.733l-5.425-8.902
		c6.787-8.54,10.182-15.829,10.182-21.893c0-9.403-8.68-17.053-26.011-22.978c-17.637-5.786-31.656-12.129-42.061-19.083
		l0.223,191.861v11.044c0,6.204-0.278,10.487-0.862,12.797c-2.17,8.679-8.791,15.939-19.834,21.781
		C289.532,444.006,275.094,446.927,257.318,446.927z"/>
</g>
<g>
</g>
<g>
</g>
<g>
</g>
<g>
</g>
<g>
</g>
<g>
</g>
<g>
</g>
<g>
</g>
<g>
</g>
<g>
</g>
<g>
</g>
<g>
</g>
<g>
</g>
<g>
</g>
<g>
</g>
</svg>
