<?xml version="1.0" encoding="iso-8859-1"?>
<!-- Generator: Adobe Illustrator 16.0.0, SVG Export Plug-In . SVG Version: 6.00 Build 0)  -->
<!DOCTYPE svg PUBLIC "-//W3C//DTD SVG 1.1//EN" "http://www.w3.org/Graphics/SVG/1.1/DTD/svg11.dtd">
<svg version="1.1" id="Capa_1" xmlns="http://www.w3.org/2000/svg" xmlns:xlink="http://www.w3.org/1999/xlink" x="0px" y="0px"
	 width="612px" height="612px" viewBox="0 0 612 612" style="enable-background:new 0 0 612 612;" xml:space="preserve">
<g>
	<g>
		<path d="M612,306C612,137.004,474.995,0,306,0C137.004,0,0,137.004,0,306c0,168.995,137.004,306,306,306
			C474.995,612,612,474.995,612,306z M27.818,306C27.818,152.36,152.36,27.818,306,27.818S584.182,152.36,584.182,306
			S459.64,584.182,306,584.182S27.818,459.64,27.818,306z"/>
		<path d="M320.41,416.354c0.584-2.309,0.862-6.564,0.862-12.796v-11.044l-0.223-191.862c10.403,6.927,24.424,13.297,42.061,19.083
			c17.331,5.925,26.011,13.575,26.011,22.978c0,6.064-3.395,13.38-10.182,21.893l5.425,8.902
			c17.914-17.498,26.872-32.742,26.872-45.733c0-19.946-19-35.635-57.027-47.041c-11.127-3.478-18.694-6.927-22.645-10.404
			c-3.978-3.477-7.622-9.681-10.96-18.638l-13.214,0.64v243.242c-14.882-12.852-30.266-19.306-46.178-19.306
			c-17.637,0-32.77,3.478-45.427,10.404S196.813,402,196.813,411.82c0,23.423,20.168,35.135,60.477,35.135
			c17.775,0,32.186-2.921,43.257-8.791C311.647,432.295,318.24,425.034,320.41,416.354z"/>
	</g>
</g>
<g>
</g>
<g>
</g>
<g>
</g>
<g>
</g>
<g>
</g>
<g>
</g>
<g>
</g>
<g>
</g>
<g>
</g>
<g>
</g>
<g>
</g>
<g>
</g>
<g>
</g>
<g>
</g>
<g>
</g>
</svg>
