<?xml version="1.0" encoding="iso-8859-1"?>
<!-- Generator: Adobe Illustrator 16.0.0, SVG Export Plug-In . SVG Version: 6.00 Build 0)  -->
<!DOCTYPE svg PUBLIC "-//W3C//DTD SVG 1.1//EN" "http://www.w3.org/Graphics/SVG/1.1/DTD/svg11.dtd">
<svg version="1.1" id="Capa_1" xmlns="http://www.w3.org/2000/svg" xmlns:xlink="http://www.w3.org/1999/xlink" x="0px" y="0px"
	 width="612px" height="612px" viewBox="0 0 612 612" style="enable-background:new 0 0 612 612;" xml:space="preserve">
<g>
	<path d="M612,306C612,137.004,474.995,0,306,0C137.004,0,0,137.004,0,306c0,168.995,137.004,306,306,306
		C474.995,612,612,474.995,612,306z M256.345,402.001c0,7.482-2.086,17.998-4.507,23.395c-6.899,14.994-28.792,27.874-46.456,27.874
		c-10.793,0-19.195-3.005-24.286-8.68c-3.895-4.784-6.593-11.684-6.593-17.998c0-13.492,10.182-25.787,26.678-32.38
		c6.593-2.699,12.602-3.896,18.276-3.896c9.292,0,17.692,1.503,23.673,4.201V212.225l174.197-42.284v189.47
		c0,14.994-5.091,26.983-14.994,36.274c-10.793,9.598-24.285,15.301-37.165,15.301c-10.793,0-18.888-3.005-23.979-8.68
		c-3.895-4.785-6.594-11.684-6.594-17.998c0-11.684,7.789-22.783,20.697-29.683c6.898-3.588,17.692-6.898,23.395-6.898
		c9.292,0,18.277,1.502,25.481,4.506V219.124l-147.825,36.859V402.001z"/>
</g>
<g>
</g>
<g>
</g>
<g>
</g>
<g>
</g>
<g>
</g>
<g>
</g>
<g>
</g>
<g>
</g>
<g>
</g>
<g>
</g>
<g>
</g>
<g>
</g>
<g>
</g>
<g>
</g>
<g>
</g>
</svg>
