<?xml version="1.0" encoding="iso-8859-1"?>
<!-- Generator: Adobe Illustrator 16.0.0, SVG Export Plug-In . SVG Version: 6.00 Build 0)  -->
<!DOCTYPE svg PUBLIC "-//W3C//DTD SVG 1.1//EN" "http://www.w3.org/Graphics/SVG/1.1/DTD/svg11.dtd">
<svg version="1.1" id="Capa_1" xmlns="http://www.w3.org/2000/svg" xmlns:xlink="http://www.w3.org/1999/xlink" x="0px" y="0px"
	 width="612px" height="612px" viewBox="0 0 612 612" style="enable-background:new 0 0 612 612;" xml:space="preserve">
<g>
	<g>
		<path d="M139.091,244.8c0,3.06,2.698,5.564,6.064,5.564h321.662c3.365,0,6.092-2.476,6.092-5.564v-16.691
			c0-3.06-2.698-5.563-6.092-5.563H145.155c-3.338,0-6.064,2.476-6.064,5.563V244.8z"/>
		<path d="M139.091,467.346c0,3.06,2.698,5.563,6.064,5.563h321.662c3.365,0,6.092-2.476,6.092-5.563v-16.691
			c0-3.06-2.698-5.563-6.092-5.563H145.155c-3.338,0-6.064,2.476-6.064,5.563V467.346z"/>
		<path d="M111.273,111.272V83.455H28.068C12.323,83.455,0,95.833,0,111.078V556.53c0,15.272,12.49,27.651,27.874,27.651h556.225
			c15.689,0,27.901-12.379,27.901-27.623v-445.48c0-15.245-12.574-27.624-28.068-27.624h-83.204v27.818h83.454v445.091H27.818
			V112.58L111.273,111.272z"/>
		<rect x="222.545" y="83.455" width="27.818" height="27.818"/>
		<ellipse cx="166.909" cy="83.455" rx="27.818" ry="55.636"/>
		<path d="M139.091,356.072c0,3.061,2.698,5.564,6.064,5.564h321.662c3.365,0,6.092-2.477,6.092-5.564v-16.69
			c0-3.06-2.698-5.563-6.092-5.563H145.155c-3.338,0-6.064,2.476-6.064,5.563V356.072z"/>
		<ellipse cx="306" cy="83.455" rx="27.818" ry="55.636"/>
		<ellipse cx="445.091" cy="83.455" rx="27.818" ry="55.636"/>
		<rect x="361.637" y="83.455" width="27.817" height="27.818"/>
	</g>
</g>
<g>
</g>
<g>
</g>
<g>
</g>
<g>
</g>
<g>
</g>
<g>
</g>
<g>
</g>
<g>
</g>
<g>
</g>
<g>
</g>
<g>
</g>
<g>
</g>
<g>
</g>
<g>
</g>
<g>
</g>
</svg>
