<?xml version="1.0" encoding="iso-8859-1"?>
<!-- Generator: Adobe Illustrator 16.0.0, SVG Export Plug-In . SVG Version: 6.00 Build 0)  -->
<!DOCTYPE svg PUBLIC "-//W3C//DTD SVG 1.1//EN" "http://www.w3.org/Graphics/SVG/1.1/DTD/svg11.dtd">
<svg version="1.1" id="Capa_1" xmlns="http://www.w3.org/2000/svg" xmlns:xlink="http://www.w3.org/1999/xlink" x="0px" y="0px"
	 width="708.848px" height="708.849px" viewBox="0 0 708.848 708.849" style="enable-background:new 0 0 708.848 708.849;"
	 xml:space="preserve">
<g>
	<g>
		<path d="M292.806,1.989L61.727,131.024c-7.344,4.091-13.303,13.303-13.303,20.518v549.415c0,7.247,5.862,9.824,13.303,5.669
			l231.046-129.035c7.376-4.091,13.335-13.304,13.335-20.519V7.658C306.108,0.411,300.246-2.166,292.806,1.989z"/>
		<path d="M579.157,708.849c8.987,0,16.267-7.345,16.267-16.041V354.146l48.896-0.225c8.891,0,16.105-7.248,16.105-16.009v-193.07
			c0-8.826-7.344-16.009-16.041-16.009H336.129v459.901L112.845,708.623L579.157,708.849z M499.372,193.255h32.211v450.947h-32.211
			V193.255z M434.951,193.255h32.21v450.947h-32.21V193.255z M370.53,193.255h32.21v450.947h-32.21V193.255z"/>
	</g>
</g>
<g>
</g>
<g>
</g>
<g>
</g>
<g>
</g>
<g>
</g>
<g>
</g>
<g>
</g>
<g>
</g>
<g>
</g>
<g>
</g>
<g>
</g>
<g>
</g>
<g>
</g>
<g>
</g>
<g>
</g>
</svg>
