<?xml version="1.0" encoding="iso-8859-1"?>
<!-- Generator: Adobe Illustrator 16.0.0, SVG Export Plug-In . SVG Version: 6.00 Build 0)  -->
<!DOCTYPE svg PUBLIC "-//W3C//DTD SVG 1.1//EN" "http://www.w3.org/Graphics/SVG/1.1/DTD/svg11.dtd">
<svg version="1.1" id="Capa_1" xmlns="http://www.w3.org/2000/svg" xmlns:xlink="http://www.w3.org/1999/xlink" x="0px" y="0px"
	 width="708.848px" height="708.849px" viewBox="0 0 708.848 708.849" style="enable-background:new 0 0 708.848 708.849;"
	 xml:space="preserve">
<g>
	<g>
		<path d="M112.845,708.623l466.312,0.226c8.987,0,16.267-7.345,16.267-16.041V354.146l48.896-0.225
			c8.891,0,16.105-7.248,16.105-16.009v-193.07c0-8.826-7.344-16.009-16.041-16.009H322.214v32.21h306v160.892h-65v354.702
			l-385.947-0.226L112.845,708.623z"/>
		<path d="M292.806,1.989L61.727,131.024c-7.344,4.091-13.303,13.303-13.303,20.518v549.415c0,7.247,5.862,9.824,13.303,5.669
			l231.046-129.035c7.376-4.091,13.335-13.304,13.335-20.519V7.658C306.108,0.411,300.246-2.166,292.806,1.989z M273.898,542.224
			L80.635,663.013V158.371L273.898,51.013V542.224z"/>
		<rect x="370.53" y="193.255" width="32.21" height="450.947"/>
		<rect x="499.372" y="193.255" width="32.211" height="450.947"/>
		<rect x="434.951" y="193.255" width="32.21" height="450.947"/>
	</g>
</g>
<g>
</g>
<g>
</g>
<g>
</g>
<g>
</g>
<g>
</g>
<g>
</g>
<g>
</g>
<g>
</g>
<g>
</g>
<g>
</g>
<g>
</g>
<g>
</g>
<g>
</g>
<g>
</g>
<g>
</g>
</svg>
