<?xml version="1.0" encoding="iso-8859-1"?>
<!-- Generator: Adobe Illustrator 16.0.0, SVG Export Plug-In . SVG Version: 6.00 Build 0)  -->
<!DOCTYPE svg PUBLIC "-//W3C//DTD SVG 1.1//EN" "http://www.w3.org/Graphics/SVG/1.1/DTD/svg11.dtd">
<svg version="1.1" id="Capa_1" xmlns="http://www.w3.org/2000/svg" xmlns:xlink="http://www.w3.org/1999/xlink" x="0px" y="0px"
	 width="612px" height="612px" viewBox="0 0 612 612" style="enable-background:new 0 0 612 612;" xml:space="preserve">
<g>
	<g>
		<path d="M306,278.182c3.533,0,6.898,0.668,10.015,1.864l100.757-58.168c-25.426-33.41-65.567-54.969-110.771-54.969
			c-46.79,0-88.184,23.117-113.415,58.529l98.671,56.972C295.541,279.74,300.576,278.182,306,278.182z"/>
		<path d="M333.818,306c0,10.293-5.592,19.278-13.909,24.091v114.305c70.297-6.982,125.182-66.263,125.182-138.396
			c0-21.643-4.951-42.145-13.77-60.421l-97.781,56.443C333.734,303.33,333.818,304.665,333.818,306z"/>
		<path d="M612,306C612,137.004,474.995,0,306,0C137.004,0,0,137.004,0,306c0,168.995,137.004,306,306,306
			C474.995,612,612,474.995,612,306z M265.302,467.901l-42.673,44.51l0.223-61.673c-6.092-3.506-11.934-7.4-17.525-11.601
			l-56.694,24.313l24.286-56.693c-3.645-4.812-7.038-9.82-10.154-15.022l-61.645,1.28l43.73-43.425
			c-1.808-6.731-3.227-13.603-4.172-20.641l-57.25-22.895l57.222-22.895c0.834-6.064,1.975-12.018,3.449-17.859l-44.481-42.645
			l61.618,0.223c3.533-6.12,7.399-11.99,11.656-17.581l-24.286-56.638l56.638,24.258c4.84-3.645,9.848-7.066,15.077-10.182
			l-1.279-61.589l43.396,43.702c6.732-1.808,13.659-3.227,20.697-4.2L306,83.455l22.866,57.194
			c6.064,0.834,12.046,2.002,17.888,3.449l42.617-44.454l-0.194,61.617c6.119,3.533,11.989,7.428,17.581,11.656l56.638-24.258
			l-24.285,56.638c3.644,4.812,7.065,9.848,10.181,15.077l61.59-1.279l-43.702,43.396c1.808,6.732,3.227,13.631,4.173,20.669
			l57.222,22.895l-57.25,22.895c-0.834,6.064-1.975,11.989-3.449,17.831l44.481,42.646l-61.646-0.223
			c-3.505,6.092-7.399,11.934-11.628,17.525l24.313,56.693l-56.722-24.312c-4.812,3.644-9.819,7.038-14.994,10.126l1.28,61.673
			l-43.452-43.759c-6.704,1.809-13.604,3.199-20.613,4.173L306,528.629l-22.922-57.277
			C277.041,470.517,271.116,469.376,265.302,467.901z"/>
		<path d="M278.209,306.974l-99.394-57.361c-7.65,17.22-11.906,36.303-11.906,56.388c0,72.133,54.885,131.413,125.182,138.396
			V330.091C284.051,325.445,278.543,316.877,278.209,306.974z"/>
	</g>
</g>
<g>
</g>
<g>
</g>
<g>
</g>
<g>
</g>
<g>
</g>
<g>
</g>
<g>
</g>
<g>
</g>
<g>
</g>
<g>
</g>
<g>
</g>
<g>
</g>
<g>
</g>
<g>
</g>
<g>
</g>
</svg>
