<?xml version="1.0" encoding="iso-8859-1"?>
<!-- Generator: Adobe Illustrator 16.0.0, SVG Export Plug-In . SVG Version: 6.00 Build 0)  -->
<!DOCTYPE svg PUBLIC "-//W3C//DTD SVG 1.1//EN" "http://www.w3.org/Graphics/SVG/1.1/DTD/svg11.dtd">
<svg version="1.1" id="Capa_1" xmlns="http://www.w3.org/2000/svg" xmlns:xlink="http://www.w3.org/1999/xlink" x="0px" y="0px"
	 width="612px" height="612px" viewBox="0 0 612 612" style="enable-background:new 0 0 612 612;" xml:space="preserve">
<g>
	<g>
		<circle cx="542.455" cy="306" r="27.818"/>
		<path d="M55.664,267.973c0-2.059-2.698-3.699-6.148-3.699h-1.641c-3.394,0-6.148,1.669-6.148,3.699v76.056
			c0,2.059,2.698,3.699,6.148,3.699h1.641c3.394,0,6.148-1.669,6.148-3.699V267.973z"/>
		<path d="M556.364,459C612,459,612,403.364,612,403.364V208.636c0,0,0-55.636-55.636-55.636H55.636C0,153,0,208.636,0,208.636
			v194.728c0,0,0,55.636,55.636,55.636L556.364,459L556.364,459z M500.727,180.818h55.637c13.408,0,19.667,4.173,23.812,12.435
			c2.921,5.87,4.006,12.351,4.006,15.383v194.728c0,3.031-1.085,9.514-4.006,15.383c-4.145,8.262-10.403,12.435-23.812,12.435
			h-55.637V180.818z M97.364,180.818h375.545v250.364H97.364V180.818z M31.824,418.747c-2.921-5.87-4.006-12.351-4.006-15.383
			V208.636c0-3.032,1.085-9.514,4.006-15.383c4.145-8.262,10.404-12.435,23.812-12.435h13.909v250.364H55.636
			C42.228,431.182,35.969,427.009,31.824,418.747z"/>
	</g>
</g>
<g>
</g>
<g>
</g>
<g>
</g>
<g>
</g>
<g>
</g>
<g>
</g>
<g>
</g>
<g>
</g>
<g>
</g>
<g>
</g>
<g>
</g>
<g>
</g>
<g>
</g>
<g>
</g>
<g>
</g>
</svg>
