<?xml version="1.0" encoding="iso-8859-1"?>
<!-- Generator: Adobe Illustrator 16.0.0, SVG Export Plug-In . SVG Version: 6.00 Build 0)  -->
<!DOCTYPE svg PUBLIC "-//W3C//DTD SVG 1.1//EN" "http://www.w3.org/Graphics/SVG/1.1/DTD/svg11.dtd">
<svg version="1.1" id="Capa_1" xmlns="http://www.w3.org/2000/svg" xmlns:xlink="http://www.w3.org/1999/xlink" x="0px" y="0px"
	 width="714.924px" height="714.924px" viewBox="0 0 714.924 714.924" style="enable-background:new 0 0 714.924 714.924;"
	 xml:space="preserve">
<g>
	<g>
		<path d="M138.461,397.637l525.001,317.287l-12.315-613.298c-66.072,13.455-184.097,43.563-283.506,100.96
			C268.231,259.984,183.163,347.173,138.461,397.637z M607.773,480.488c11.968,20.705,5.604,46.761-14.215,58.189
			c-19.786,11.429-45.557,3.926-57.492-16.779s-5.572-46.76,14.215-58.189C570.068,452.249,595.807,459.784,607.773,480.488z
			 M525.714,227.945c19.787-11.429,45.557-3.926,57.492,16.779c11.968,20.705,5.604,46.76-14.215,58.189
			c-19.818,11.429-45.557,3.926-57.492-16.779S505.927,239.374,525.714,227.945z M459.166,416.316
			c11.968,20.704,5.604,46.76-14.215,58.188c-19.786,11.43-45.557,3.926-57.492-16.779s-5.572-46.76,14.215-58.188
			C421.461,388.107,447.199,395.611,459.166,416.316z M379.798,278.853c19.818-11.429,45.557-3.926,57.492,16.779
			s5.604,46.76-14.215,58.189c-19.818,11.429-45.558,3.925-57.493-16.779C353.647,316.337,360.011,290.281,379.798,278.853z"/>
		<path d="M317.144,115.112c-141.8,81.87-265.682,229.939-265.682,229.939l63.381,38.308
			c5.635-6.459,93.996-120.653,239.152-204.422C499.12,95.136,643.611,75.412,650.608,74.051L649.12,0
			C649.12,0,458.945,33.242,317.144,115.112z"/>
	</g>
</g>
<g>
</g>
<g>
</g>
<g>
</g>
<g>
</g>
<g>
</g>
<g>
</g>
<g>
</g>
<g>
</g>
<g>
</g>
<g>
</g>
<g>
</g>
<g>
</g>
<g>
</g>
<g>
</g>
<g>
</g>
</svg>
