<?xml version="1.0" encoding="iso-8859-1"?>
<!-- Generator: Adobe Illustrator 16.0.0, SVG Export Plug-In . SVG Version: 6.00 Build 0)  -->
<!DOCTYPE svg PUBLIC "-//W3C//DTD SVG 1.1//EN" "http://www.w3.org/Graphics/SVG/1.1/DTD/svg11.dtd">
<svg version="1.1" id="Capa_1" xmlns="http://www.w3.org/2000/svg" xmlns:xlink="http://www.w3.org/1999/xlink" x="0px" y="0px"
	 width="707.455px" height="707.455px" viewBox="0 0 707.455 707.455" style="enable-background:new 0 0 707.455 707.455;"
	 xml:space="preserve">
<g>
	<g>
		<circle cx="571.1" cy="497.527" r="42.38"/>
		<path d="M320.579,120.021C175.716,203.671,47.743,352.541,47.743,352.541l63.401,36.771c5.794-6.504,12.544-13.9,20.065-21.977
			l-38.343-21.267c0,0,95.795-117.216,244.079-202.839C485.229,57.606,636.318,32.301,636.318,32.301l-1.51,46.14
			c8.66-1.973,16.612-3.698,23.732-5.178L658.356,0C658.356,0,465.473,36.4,320.579,120.021z"/>
		<circle cx="550.603" cy="264.606" r="42.38"/>
		<circle cx="402.134" cy="317.712" r="42.38"/>
		<circle cx="422.014" cy="436.747" r="42.38"/>
		<path d="M134.723,402.996l524.989,304.459l-1.171-606.883c-67.037,14.548-186.966,46.51-288.523,105.133
			C268.49,264.329,180.863,352.202,134.723,402.996z M630.247,148.716l1.232,509.764L190.603,402.564
			c0,0,77.61-102.02,195.041-169.828C503.075,164.928,630.247,148.716,630.247,148.716z"/>
	</g>
</g>
<g>
</g>
<g>
</g>
<g>
</g>
<g>
</g>
<g>
</g>
<g>
</g>
<g>
</g>
<g>
</g>
<g>
</g>
<g>
</g>
<g>
</g>
<g>
</g>
<g>
</g>
<g>
</g>
<g>
</g>
</svg>
