<?xml version="1.0" encoding="iso-8859-1"?>
<!-- Generator: Adobe Illustrator 16.0.0, SVG Export Plug-In . SVG Version: 6.00 Build 0)  -->
<!DOCTYPE svg PUBLIC "-//W3C//DTD SVG 1.1//EN" "http://www.w3.org/Graphics/SVG/1.1/DTD/svg11.dtd">
<svg version="1.1" id="Capa_1" xmlns="http://www.w3.org/2000/svg" xmlns:xlink="http://www.w3.org/1999/xlink" x="0px" y="0px"
	 width="612px" height="612px" viewBox="0 0 612 612" style="enable-background:new 0 0 612 612;" xml:space="preserve">
<g>
	<g>
		<path d="M0,539.367c0,30.905,30.6,30.905,30.6,30.905h550.8c0,0,30.6,0,30.6-30.905V292.091H390.178v27.401h195.562v224.854
			H26.983V319.492h195.729v-27.401H0V539.367z"/>
		<path d="M357.353,41.728H254.647c0,0-32.102,0-32.102,34.772v48.682H30.6c0,0-30.6,0-30.6,31.602v107.49h27.818V153h556.363
			v111.273H612v-107.49c0-31.602-30.6-31.602-30.6-31.602H389.454V76.5C389.454,41.728,357.353,41.728,357.353,41.728z
			 M363.139,125.182H250.669v-56.22h112.497v56.22H363.139z"/>
		<path d="M278.432,236.455c-15.495,0-28.068,12.323-28.068,28.068v55.108c0,15.522,12.323,28.097,28.068,28.097h55.108
			c15.522,0,28.097-12.323,28.097-28.068v-55.136c0-15.495-12.324-28.068-28.069-28.068H278.432z M333.818,319.909h-55.637v-55.636
			h55.637V319.909z"/>
	</g>
</g>
<g>
</g>
<g>
</g>
<g>
</g>
<g>
</g>
<g>
</g>
<g>
</g>
<g>
</g>
<g>
</g>
<g>
</g>
<g>
</g>
<g>
</g>
<g>
</g>
<g>
</g>
<g>
</g>
<g>
</g>
</svg>
