<?xml version="1.0" encoding="iso-8859-1"?>
<!-- Generator: Adobe Illustrator 16.0.0, SVG Export Plug-In . SVG Version: 6.00 Build 0)  -->
<!DOCTYPE svg PUBLIC "-//W3C//DTD SVG 1.1//EN" "http://www.w3.org/Graphics/SVG/1.1/DTD/svg11.dtd">
<svg version="1.1" id="Capa_1" xmlns="http://www.w3.org/2000/svg" xmlns:xlink="http://www.w3.org/1999/xlink" x="0px" y="0px"
	 width="673.199px" height="673.199px" viewBox="0 0 673.199 673.199" style="enable-background:new 0 0 673.199 673.199;"
	 xml:space="preserve">
<g>
	<g>
		<path d="M397.8,272.493V64.107c0,0,0-64.107-61.2-64.107s-61.2,64.107-61.2,64.107v208.386c0,0,0,64.106,61.2,64.106
			S397.8,272.493,397.8,272.493z"/>
		<path d="M176.653,91.8C89.045,147.002,30.6,246.208,30.6,359.396c0,173.289,136.996,313.803,306,313.803s306-140.514,306-313.803
			c0-110.802-55.998-208.202-140.576-264.047l-41.678,133.478c35.19,33.292,57.223,80.967,57.223,133.937
			c0,100.643-79.561,182.223-177.664,182.223c-98.134,0-177.664-81.58-177.664-182.223c0-52.969,22.032-100.644,57.222-133.937
			L176.653,91.8z"/>
	</g>
</g>
<g>
</g>
<g>
</g>
<g>
</g>
<g>
</g>
<g>
</g>
<g>
</g>
<g>
</g>
<g>
</g>
<g>
</g>
<g>
</g>
<g>
</g>
<g>
</g>
<g>
</g>
<g>
</g>
<g>
</g>
</svg>
