<?xml version="1.0" encoding="iso-8859-1"?>
<!-- Generator: Adobe Illustrator 16.0.0, SVG Export Plug-In . SVG Version: 6.00 Build 0)  -->
<!DOCTYPE svg PUBLIC "-//W3C//DTD SVG 1.1//EN" "http://www.w3.org/Graphics/SVG/1.1/DTD/svg11.dtd">
<svg version="1.1" id="Capa_1" xmlns="http://www.w3.org/2000/svg" xmlns:xlink="http://www.w3.org/1999/xlink" x="0px" y="0px"
	 width="612px" height="612px" viewBox="0 0 612 612" style="enable-background:new 0 0 612 612;" xml:space="preserve">
<g>
	<g>
		<path d="M0,225.633v160.734c0,30.905,30.6,30.905,30.6,30.905h52.854v-27.818H27.818V222.545h556.363v166.909h-55.636v27.818
			H581.4c0,0,30.6,0,30.6-30.905V225.633c0,0,0-30.906-30.6-30.906H30.6C0,194.728,0,225.633,0,225.633z"/>
		<polygon points="500.728,166.909 500.728,0 111.273,0 111.273,166.909 139.091,166.909 139.091,27.818 472.909,27.818 
			472.909,166.909 		"/>
		<path d="M528.546,292.091c0-13.909-14.188-13.909-14.188-13.909H97.642c0,0-14.187,0-14.187,13.909S97.642,306,97.642,306h416.717
			C514.358,306,528.546,306,528.546,292.091z"/>
		<rect x="166.909" y="500.728" width="278.182" height="27.818"/>
		<path d="M500.728,612V389.454H111.273V612H500.728z M139.091,417.272h333.818v166.909H139.091V417.272z"/>
		<rect x="166.909" y="445.091" width="278.182" height="27.818"/>
	</g>
</g>
<g>
</g>
<g>
</g>
<g>
</g>
<g>
</g>
<g>
</g>
<g>
</g>
<g>
</g>
<g>
</g>
<g>
</g>
<g>
</g>
<g>
</g>
<g>
</g>
<g>
</g>
<g>
</g>
<g>
</g>
</svg>
