<?xml version="1.0" encoding="iso-8859-1"?>
<!-- Generator: Adobe Illustrator 16.0.0, SVG Export Plug-In . SVG Version: 6.00 Build 0)  -->
<!DOCTYPE svg PUBLIC "-//W3C//DTD SVG 1.1//EN" "http://www.w3.org/Graphics/SVG/1.1/DTD/svg11.dtd">
<svg version="1.1" id="Capa_1" xmlns="http://www.w3.org/2000/svg" xmlns:xlink="http://www.w3.org/1999/xlink" x="0px" y="0px"
	 width="612px" height="612px" viewBox="0 0 612 612" style="enable-background:new 0 0 612 612;" xml:space="preserve">
<g>
	<g>
		<path d="M500.728,612V389.454H111.273V612H500.728z M166.909,445.091h278.182v27.818H166.909V445.091z M166.909,500.728h278.182
			v27.818H166.909V500.728z"/>
		<path d="M0,225.633v160.734c0,30.905,30.6,30.905,30.6,30.905h52.854v-55.636h445.091v55.636H581.4c0,0,30.6,0,30.6-30.905
			V225.633c0,0,0-30.906-30.6-30.906H30.6C0,194.728,0,225.633,0,225.633z M97.642,278.182h416.717c0,0,14.188,0,14.188,13.909
			S514.358,306,514.358,306H97.642c0,0-14.187,0-14.187-13.909S97.642,278.182,97.642,278.182z"/>
		<rect x="111.273" width="389.455" height="166.909"/>
	</g>
</g>
<g>
</g>
<g>
</g>
<g>
</g>
<g>
</g>
<g>
</g>
<g>
</g>
<g>
</g>
<g>
</g>
<g>
</g>
<g>
</g>
<g>
</g>
<g>
</g>
<g>
</g>
<g>
</g>
<g>
</g>
</svg>
