<?xml version="1.0" encoding="iso-8859-1"?>
<!-- Generator: Adobe Illustrator 16.0.0, SVG Export Plug-In . SVG Version: 6.00 Build 0)  -->
<!DOCTYPE svg PUBLIC "-//W3C//DTD SVG 1.1//EN" "http://www.w3.org/Graphics/SVG/1.1/DTD/svg11.dtd">
<svg version="1.1" id="Capa_1" xmlns="http://www.w3.org/2000/svg" xmlns:xlink="http://www.w3.org/1999/xlink" x="0px" y="0px"
	 width="612.009px" height="612.009px" viewBox="0 0 612.009 612.009" style="enable-background:new 0 0 612.009 612.009;"
	 xml:space="preserve">
<g>
	<g>
		<path d="M507.689,607.106l83.357-22.326c15.093-4.059,24.098-19.467,19.952-35.018L470.441,25.265
			C466.354,9.972,450.574,0.91,435.681,4.912l-83.356,22.326c-15.122,4.059-24.099,19.467-19.953,35.018L472.9,586.753
			C477.017,602.047,492.768,611.08,507.689,607.106z"/>
		<path d="M114.602,606.163c15.637,0,28.329-12.578,28.329-28.672V34.499c0-15.837-12.893-28.644-28.329-28.644H28.329
			C12.692,5.855,0,18.404,0,34.499v542.993c0,15.837,12.893,28.644,28.329,28.644h86.273V606.163z"/>
		<path d="M286.118,606.163c15.637,0,28.329-12.55,28.329-28.644V34.499c0-15.837-12.893-28.644-28.329-28.644h-86.272
			c-15.637,0-28.329,12.549-28.329,28.644v542.993c0,15.837,12.893,28.644,28.329,28.644h86.272V606.163z"/>
	</g>
</g>
<g>
</g>
<g>
</g>
<g>
</g>
<g>
</g>
<g>
</g>
<g>
</g>
<g>
</g>
<g>
</g>
<g>
</g>
<g>
</g>
<g>
</g>
<g>
</g>
<g>
</g>
<g>
</g>
<g>
</g>
</svg>
