<?xml version="1.0" encoding="iso-8859-1"?>
<!-- Generator: Adobe Illustrator 16.0.0, SVG Export Plug-In . SVG Version: 6.00 Build 0)  -->
<!DOCTYPE svg PUBLIC "-//W3C//DTD SVG 1.1//EN" "http://www.w3.org/Graphics/SVG/1.1/DTD/svg11.dtd">
<svg version="1.1" id="Capa_1" xmlns="http://www.w3.org/2000/svg" xmlns:xlink="http://www.w3.org/1999/xlink" x="0px" y="0px"
	 width="612.014px" height="612.014px" viewBox="0 0 612.014 612.014" style="enable-background:new 0 0 612.014 612.014;"
	 xml:space="preserve">
<g>
	<g>
		<path d="M344.893,30.556l24.035-24.035C271.23-13.925,165.465,13.782,89.633,89.642
			C-16.438,195.713-28.372,360.257,53.859,479.486l-42.923,42.896l108.185,9.848l-9.82-108.186l-35.413,35.413
			C2.34,351.438,14.135,204.476,109.301,109.31C173.533,45.077,261.383,18.817,344.893,30.556z"/>
		<path d="M581.403,69.975L473.19,60.127l9.848,108.185l38.361-38.361c89.519,109.27,83.287,270.782-18.694,372.764
			c-72.55,72.55-175.227,96.668-267.778,72.3l-22.421,22.421c105.653,33.8,226.051,8.791,309.895-75.053
			c112.858-112.858,119.117-291.98,18.777-412.21L581.403,69.975z"/>
	</g>
</g>
<g>
</g>
<g>
</g>
<g>
</g>
<g>
</g>
<g>
</g>
<g>
</g>
<g>
</g>
<g>
</g>
<g>
</g>
<g>
</g>
<g>
</g>
<g>
</g>
<g>
</g>
<g>
</g>
<g>
</g>
</svg>
