<?xml version="1.0" encoding="iso-8859-1"?>
<!-- Generator: Adobe Illustrator 16.0.0, SVG Export Plug-In . SVG Version: 6.00 Build 0)  -->
<!DOCTYPE svg PUBLIC "-//W3C//DTD SVG 1.1//EN" "http://www.w3.org/Graphics/SVG/1.1/DTD/svg11.dtd">
<svg version="1.1" id="Capa_1" xmlns="http://www.w3.org/2000/svg" xmlns:xlink="http://www.w3.org/1999/xlink" x="0px" y="0px"
	 width="792px" height="792px" viewBox="0 0 792 792" style="enable-background:new 0 0 792 792;" xml:space="preserve">
<g>
	<g>
		<path d="M562.716,349.596h33.408c0,0,33.876-17.64,33.876-170.388C630,124.488,613.872,0,494.46,0v367.308
			c0,0-8.46,106.164-8.46,194.652S494.46,792,494.46,792h33.876c0,0,8.46-137.628,8.46-230.04s-8.46-194.652-8.46-194.652V35.604
			c0,0,67.752,0,67.752,143.64C596.124,329.004,562.716,349.596,562.716,349.596z"/>
		<path d="M162,54v216l90,90c0,0-9,102.636-9,198s9,234,9,234h36c0,0,9-139.356,9-234s-9-198-9-198l90-90V54L342,0v252.432
			l-72,68.616l-71.928-68.616V0L162,54z"/>
		<rect x="252" width="36" height="252"/>
	</g>
</g>
<g>
</g>
<g>
</g>
<g>
</g>
<g>
</g>
<g>
</g>
<g>
</g>
<g>
</g>
<g>
</g>
<g>
</g>
<g>
</g>
<g>
</g>
<g>
</g>
<g>
</g>
<g>
</g>
<g>
</g>
</svg>
