<?xml version="1.0" encoding="iso-8859-1"?>
<!-- Generator: Adobe Illustrator 16.0.0, SVG Export Plug-In . SVG Version: 6.00 Build 0)  -->
<!DOCTYPE svg PUBLIC "-//W3C//DTD SVG 1.1//EN" "http://www.w3.org/Graphics/SVG/1.1/DTD/svg11.dtd">
<svg version="1.1" id="Capa_1" xmlns="http://www.w3.org/2000/svg" xmlns:xlink="http://www.w3.org/1999/xlink" x="0px" y="0px"
	 width="792px" height="792px" viewBox="0 0 792 792" style="enable-background:new 0 0 792 792;" xml:space="preserve">
<g>
	<g>
		<path d="M162,54v216l90,90c0,0-9,102.636-9,198s9,234,9,234h36c0,0,9-139.356,9-234s-9-198-9-198l90-90V54L342,0v252.432
			l-72,68.616l-71.928-68.616V0L162,54z"/>
		<path d="M630,266.904C630,231.012,612,0,522,0S414,231.012,414,266.904c0,71.82,90,94.248,90,94.248s-9,107.712-9,197.46
			C495,648.396,504,792,504,792h36c0,0,9-139.608,9-233.388c0-93.744-9-197.46-9-197.46S630,338.724,630,266.904z M522,324
			c-84.096,0-83.124-56.268-72-144s46.62-144,72-144s61.2,58.824,72,144S606.096,324,522,324z"/>
		<rect x="252" width="36" height="252"/>
	</g>
</g>
<g>
</g>
<g>
</g>
<g>
</g>
<g>
</g>
<g>
</g>
<g>
</g>
<g>
</g>
<g>
</g>
<g>
</g>
<g>
</g>
<g>
</g>
<g>
</g>
<g>
</g>
<g>
</g>
<g>
</g>
</svg>
