<?xml version="1.0" encoding="iso-8859-1"?>
<!-- Generator: Adobe Illustrator 16.0.0, SVG Export Plug-In . SVG Version: 6.00 Build 0)  -->
<!DOCTYPE svg PUBLIC "-//W3C//DTD SVG 1.1//EN" "http://www.w3.org/Graphics/SVG/1.1/DTD/svg11.dtd">
<svg version="1.1" id="Capa_1" xmlns="http://www.w3.org/2000/svg" xmlns:xlink="http://www.w3.org/1999/xlink" x="0px" y="0px"
	 width="612px" height="612px" viewBox="0 0 612 612" style="enable-background:new 0 0 612 612;" xml:space="preserve">
<g>
	<g>
		<polygon points="437.143,58.286 408,58.286 408,177.188 204,177.188 204,58.286 174.857,58.286 174.857,204 437.143,204 		"/>
		<rect x="349.714" y="58.286" width="29.144" height="58.286"/>
		<polygon points="116.571,553.714 145.714,553.714 145.714,378.857 466.286,378.857 466.286,553.714 495.429,553.714 
			495.429,349.714 116.571,349.714 		"/>
		<path d="M602.878,612c5.042,0,9.122-4.109,9.122-9.063V102L510,0H9.063C4.051,0,0,3.905,0,9.122v593.756
			C0,607.92,3.905,612,9.122,612H602.878z M29.143,29.143H499.8l83.058,83.057v470.657H29.143V29.143z"/>
	</g>
</g>
<g>
</g>
<g>
</g>
<g>
</g>
<g>
</g>
<g>
</g>
<g>
</g>
<g>
</g>
<g>
</g>
<g>
</g>
<g>
</g>
<g>
</g>
<g>
</g>
<g>
</g>
<g>
</g>
<g>
</g>
</svg>
