<?xml version="1.0" encoding="iso-8859-1"?>
<!-- Generator: Adobe Illustrator 16.0.0, SVG Export Plug-In . SVG Version: 6.00 Build 0)  -->
<!DOCTYPE svg PUBLIC "-//W3C//DTD SVG 1.1//EN" "http://www.w3.org/Graphics/SVG/1.1/DTD/svg11.dtd">
<svg version="1.1" id="Capa_1" xmlns="http://www.w3.org/2000/svg" xmlns:xlink="http://www.w3.org/1999/xlink" x="0px" y="0px"
	 width="612px" height="612px" viewBox="0 0 612 612" style="enable-background:new 0 0 612 612;" xml:space="preserve">
<g>
	<g>
		<path d="M117.393,270.007h349.396c3.366,0,6.12-2.782,6.12-6.176v-15.467c0-3.422-2.698-6.176-6.12-6.176H117.393
			c-3.366,0-6.12,2.782-6.12,6.176v15.467C111.273,267.252,113.971,270.007,117.393,270.007z"/>
		<path d="M117.393,186.552h349.396c3.366,0,6.12-2.782,6.12-6.176V164.91c0-3.422-2.698-6.176-6.12-6.176H117.393
			c-3.366,0-6.12,2.782-6.12,6.176v15.467C111.273,183.798,113.971,186.552,117.393,186.552z"/>
		<path d="M117.087,353.461h238.735c3.199,0,5.814-2.782,5.814-6.176v-15.467c0-3.422-2.644-6.176-5.814-6.176H117.087
			c-3.199,0-5.814,2.782-5.814,6.176v15.467C111.273,350.708,113.916,353.461,117.087,353.461z"/>
		<path d="M83.455,464.734l78.364,91.104c10.015,11.656,26.539,11.545,36.637,0l79.727-91.104h305.917
			c15.411,0,27.901-12.49,27.901-28.013V75.502c0-15.495-12.24-28.041-27.874-28.041H27.874C12.49,47.461,0,59.952,0,75.502v361.219
			c0,15.467,12.323,28.013,27.791,28.013H83.455z M27.818,75.279h556.363v361.636H270.143l-90.104,99.089l-82.23-99.089h-69.99
			V75.279z"/>
	</g>
</g>
<g>
</g>
<g>
</g>
<g>
</g>
<g>
</g>
<g>
</g>
<g>
</g>
<g>
</g>
<g>
</g>
<g>
</g>
<g>
</g>
<g>
</g>
<g>
</g>
<g>
</g>
<g>
</g>
<g>
</g>
</svg>
