<?xml version="1.0" encoding="iso-8859-1"?>
<!-- Generator: Adobe Illustrator 16.0.0, SVG Export Plug-In . SVG Version: 6.00 Build 0)  -->
<!DOCTYPE svg PUBLIC "-//W3C//DTD SVG 1.1//EN" "http://www.w3.org/Graphics/SVG/1.1/DTD/svg11.dtd">
<svg version="1.1" id="Capa_1" xmlns="http://www.w3.org/2000/svg" xmlns:xlink="http://www.w3.org/1999/xlink" x="0px" y="0px"
	 width="612px" height="612px" viewBox="0 0 612 612" style="enable-background:new 0 0 612 612;" xml:space="preserve">
<g>
	<g>
		<path d="M509.133,586.5H268.209H57.757C64.26,599.378,77.01,612,102,612h459c51,0,51-52.556,51-52.556V256.556
			c0,0,0-52.556-51-52.556H433.5v25.5h75.607c26.393,0,26.393,28.331,26.393,28.331V558.17C535.5,558.17,535.5,586.5,509.133,586.5z
			 M573.597,388.9c10.558,0,19.125,8.849,19.125,19.763s-8.567,19.763-19.125,19.763c-10.557,0-19.125-8.849-19.125-19.763
			S563.04,388.9,573.597,388.9z"/>
		<path d="M355.444,0H52.556C52.556,0,0,0,0,51v459c0,51,52.556,51,52.556,51H355.47c0,0,52.556,0,52.556-51V204V51
			C408,0,355.444,0,355.444,0z M203.362,541.722c-10.914,0-19.762-8.567-19.762-19.125c0-10.557,8.849-19.125,19.762-19.125
			c10.914,0,19.763,8.568,19.763,19.125C223.1,533.18,214.276,541.722,203.362,541.722z M382.5,458.133
			c0,26.367-28.33,26.367-28.33,26.367H53.831c0,0-28.331,0-28.331-26.367V51.893C25.5,25.5,53.831,25.5,53.831,25.5H354.17
			c0,0,28.33,0,28.33,26.393V458.133z"/>
	</g>
</g>
<g>
</g>
<g>
</g>
<g>
</g>
<g>
</g>
<g>
</g>
<g>
</g>
<g>
</g>
<g>
</g>
<g>
</g>
<g>
</g>
<g>
</g>
<g>
</g>
<g>
</g>
<g>
</g>
<g>
</g>
</svg>
