<?xml version="1.0" encoding="iso-8859-1"?>
<!-- Generator: Adobe Illustrator 16.0.0, SVG Export Plug-In . SVG Version: 6.00 Build 0)  -->
<!DOCTYPE svg PUBLIC "-//W3C//DTD SVG 1.1//EN" "http://www.w3.org/Graphics/SVG/1.1/DTD/svg11.dtd">
<svg version="1.1" id="Capa_1" xmlns="http://www.w3.org/2000/svg" xmlns:xlink="http://www.w3.org/1999/xlink" x="0px" y="0px"
	 width="792px" height="792px" viewBox="0 0 792 792" style="enable-background:new 0 0 792 792;" xml:space="preserve">
<g>
	<g>
		<path d="M693,660V66c0-66-68.013-66-68.013-66H233.013c0,0-42.834,0-60.522,33h450.846c0,0,36.663,0,36.663,34.122v650.133
			C676.665,708.84,693,692.34,693,660z"/>
		<path d="M99,132v594c0,66,68.013,66,68.013,66H559.02c0,0,68.014,0,68.014-66v-0.066c1.914-0.099,5.049-0.362,8.976-1.022
			L627,724.944V132c0-66-68.013-66-68.013-66H167.013C167.013,66,99,66,99,132z M594,724.845C594,759,557.337,759,557.337,759
			H168.663c0,0-36.663,0-36.663-34.155V693h462V724.845z M557.337,99c0,0,36.663,0,36.663,34.122V660H132V133.122
			C132,99,168.663,99,168.663,99H557.337z"/>
		<ellipse cx="362.175" cy="724.35" rx="25.575" ry="24.75"/>
	</g>
</g>
<g>
</g>
<g>
</g>
<g>
</g>
<g>
</g>
<g>
</g>
<g>
</g>
<g>
</g>
<g>
</g>
<g>
</g>
<g>
</g>
<g>
</g>
<g>
</g>
<g>
</g>
<g>
</g>
<g>
</g>
</svg>
