<?xml version="1.0" encoding="iso-8859-1"?>
<!-- Generator: Adobe Illustrator 16.0.0, SVG Export Plug-In . SVG Version: 6.00 Build 0)  -->
<!DOCTYPE svg PUBLIC "-//W3C//DTD SVG 1.1//EN" "http://www.w3.org/Graphics/SVG/1.1/DTD/svg11.dtd">
<svg version="1.1" id="Capa_1" xmlns="http://www.w3.org/2000/svg" xmlns:xlink="http://www.w3.org/1999/xlink" x="0px" y="0px"
	 width="792px" height="792px" viewBox="0 0 792 792" style="enable-background:new 0 0 792 792;" xml:space="preserve">
<g>
	<g>
		<path d="M99,132v594c0,66,68.013,66,68.013,66H559.02c0,0,68.014,0,68.014-66v-0.066c1.914-0.099,5.082-0.362,9.009-1.022H627V132
			c0-66-68.013-66-68.013-66H167.013C167.013,66,99,66,99,132z M362.175,767.052c-14.124,0-25.575-11.088-25.575-24.75
			s11.451-24.75,25.575-24.75s25.575,11.088,25.575,24.75C387.717,755.964,376.266,767.052,362.175,767.052z M557.337,99
			c0,0,36.663,0,36.663,34.122v525.723C594,693,557.337,693,557.337,693H168.663c0,0-36.663,0-36.663-34.155V133.122
			C132,99,168.663,99,168.663,99H557.337z"/>
		<path d="M693,660V66c0-66-68.013-66-68.013-66H233.013c0,0-42.834,0-60.522,33h447.183c0,0,36.663,0,36.663,34.122v651.849
			C674.157,711.183,693,694.716,693,660z"/>
	</g>
</g>
<g>
</g>
<g>
</g>
<g>
</g>
<g>
</g>
<g>
</g>
<g>
</g>
<g>
</g>
<g>
</g>
<g>
</g>
<g>
</g>
<g>
</g>
<g>
</g>
<g>
</g>
<g>
</g>
<g>
</g>
</svg>
