<?xml version="1.0" encoding="iso-8859-1"?>
<!-- Generator: Adobe Illustrator 16.0.0, SVG Export Plug-In . SVG Version: 6.00 Build 0)  -->
<!DOCTYPE svg PUBLIC "-//W3C//DTD SVG 1.1//EN" "http://www.w3.org/Graphics/SVG/1.1/DTD/svg11.dtd">
<svg version="1.1" id="Capa_1" xmlns="http://www.w3.org/2000/svg" xmlns:xlink="http://www.w3.org/1999/xlink" x="0px" y="0px"
	 width="792px" height="792px" viewBox="0 0 792 792" style="enable-background:new 0 0 792 792;" xml:space="preserve">
<g>
	<g>
		<path d="M643.15,659.066V65.907C643.15,0,577.242,0,577.242,0H280.663c0,0-41.521,0-58.657,32.953h355.236
			c3.592,0,11.271,1.285,18.225,4.746c9.787,4.91,14.729,12.324,14.729,28.208v650.828
			C626.672,708.496,643.15,692.02,643.15,659.066z"/>
		<path d="M148.85,131.912v594.082C148.85,792,214.756,792,214.756,792h296.58c0,0,65.906,0,65.906-66.006V131.912
			c0-66.005-65.906-66.005-65.906-66.005h-296.58C214.756,65.907,148.85,65.907,148.85,131.912z M363.046,764.517
			c-18.19,0-32.954-14.763-32.954-32.953s14.763-32.953,32.954-32.953c18.19,0,32.953,14.763,32.953,32.953
			S381.236,764.517,363.046,764.517z M544.289,148.29v527.253H181.803V148.29H544.289z M280.663,106.143
			c0-4.119,3.262-7.283,7.283-7.283h150.167c4.021,0,7.316,3.262,7.316,7.283v1.944c0,4.119-3.262,7.283-7.283,7.283H287.946
			c-3.988,0-7.283-3.262-7.283-7.283V106.143z"/>
	</g>
</g>
<g>
</g>
<g>
</g>
<g>
</g>
<g>
</g>
<g>
</g>
<g>
</g>
<g>
</g>
<g>
</g>
<g>
</g>
<g>
</g>
<g>
</g>
<g>
</g>
<g>
</g>
<g>
</g>
<g>
</g>
</svg>
