<?xml version="1.0" encoding="iso-8859-1"?>
<!-- Generator: Adobe Illustrator 16.0.0, SVG Export Plug-In . SVG Version: 6.00 Build 0)  -->
<!DOCTYPE svg PUBLIC "-//W3C//DTD SVG 1.1//EN" "http://www.w3.org/Graphics/SVG/1.1/DTD/svg11.dtd">
<svg version="1.1" id="Capa_1" xmlns="http://www.w3.org/2000/svg" xmlns:xlink="http://www.w3.org/1999/xlink" x="0px" y="0px"
	 width="612px" height="612px" viewBox="0 0 612 612" style="enable-background:new 0 0 612 612;" xml:space="preserve">
<g>
	<g>
		<ellipse cx="559.725" cy="408.638" rx="19.125" ry="19.763"/>
		<ellipse cx="203.362" cy="508.725" rx="19.763" ry="19.125"/>
		<path d="M355.444,0H52.556C52.556,0,0,0,0,51v459c0,51,52.556,51,52.556,51H355.47c0,0,52.556,0,52.556-51V204V51
			C408,0,355.444,0,355.444,0z M382.5,509.133c0,26.367-28.33,26.367-28.33,26.367H53.831c0,0-28.331,0-28.331-26.367V484.5h357
			V509.133z M382.5,459h-357V51.893C25.5,25.5,53.831,25.5,53.831,25.5H354.17c0,0,28.33,0,28.33,26.393V459z"/>
		<path d="M268.184,586.5H57.757C64.26,599.378,77.01,612,102,612h459c51,0,51-52.556,51-52.556V256.556c0,0,0-52.556-51-52.556
			H433.5v25.5H510v357H268.184z M535.5,229.5h24.607c26.393,0,26.393,28.331,26.393,28.331V558.17c0,0,0,28.33-26.367,28.33H535.5
			V229.5z"/>
	</g>
</g>
<g>
</g>
<g>
</g>
<g>
</g>
<g>
</g>
<g>
</g>
<g>
</g>
<g>
</g>
<g>
</g>
<g>
</g>
<g>
</g>
<g>
</g>
<g>
</g>
<g>
</g>
<g>
</g>
<g>
</g>
</svg>
