<?xml version="1.0" encoding="iso-8859-1"?>
<!-- Generator: Adobe Illustrator 16.0.0, SVG Export Plug-In . SVG Version: 6.00 Build 0)  -->
<!DOCTYPE svg PUBLIC "-//W3C//DTD SVG 1.1//EN" "http://www.w3.org/Graphics/SVG/1.1/DTD/svg11.dtd">
<svg version="1.1" id="Capa_1" xmlns="http://www.w3.org/2000/svg" xmlns:xlink="http://www.w3.org/1999/xlink" x="0px" y="0px"
	 width="792px" height="792px" viewBox="0 0 792 792" style="enable-background:new 0 0 792 792;" xml:space="preserve">
<g>
	<g>
		<ellipse cx="395.1" cy="718.2" rx="27.9" ry="27"/>
		<path d="M609.804,792c0,0,74.196,0,74.196-72V72c0-72-74.196-72-74.196-72H182.196c0,0-74.196,0-74.196,72v648
			c0,72,74.196,72,74.196,72H609.804z M144,73.26C144,36,183.996,36,183.996,36h424.008c0,0,39.996,0,39.996,37.26V648H144V73.26z
			 M144,718.776V684h504v34.74C648,756,608.004,756,608.004,756H183.996C183.996,756,144,756,144,718.776z"/>
	</g>
</g>
<g>
</g>
<g>
</g>
<g>
</g>
<g>
</g>
<g>
</g>
<g>
</g>
<g>
</g>
<g>
</g>
<g>
</g>
<g>
</g>
<g>
</g>
<g>
</g>
<g>
</g>
<g>
</g>
<g>
</g>
</svg>
