<?xml version="1.0" encoding="iso-8859-1"?>
<!-- Generator: Adobe Illustrator 16.0.0, SVG Export Plug-In . SVG Version: 6.00 Build 0)  -->
<!DOCTYPE svg PUBLIC "-//W3C//DTD SVG 1.1//EN" "http://www.w3.org/Graphics/SVG/1.1/DTD/svg11.dtd">
<svg version="1.1" id="Capa_1" xmlns="http://www.w3.org/2000/svg" xmlns:xlink="http://www.w3.org/1999/xlink" x="0px" y="0px"
	 width="612.037px" height="612.036px" viewBox="0 0 612.037 612.036" style="enable-background:new 0 0 612.037 612.036;"
	 xml:space="preserve">
<g>
	<path d="M301.357,0L34.291,19.317c-7.699,0.54-14.403,7.386-14.942,14.943L0.031,301.327l306.695,306.697
		c5.427,5.426,14.318,5.34,19.83-0.199l281.271-281.271c5.539-5.539,5.539-14.488,0.198-19.857L301.357,0z M221.701,221.67
		c-22.187,22.187-57.754,22.584-79.458,0.881c-21.704-21.704-21.306-57.271,0.881-79.458c22.187-22.187,57.754-22.584,79.458-0.88
		C244.285,163.916,243.888,199.483,221.701,221.67z"/>
</g>
<g>
</g>
<g>
</g>
<g>
</g>
<g>
</g>
<g>
</g>
<g>
</g>
<g>
</g>
<g>
</g>
<g>
</g>
<g>
</g>
<g>
</g>
<g>
</g>
<g>
</g>
<g>
</g>
<g>
</g>
</svg>
