<?xml version="1.0" encoding="iso-8859-1"?>
<!-- Generator: Adobe Illustrator 16.0.0, SVG Export Plug-In . SVG Version: 6.00 Build 0)  -->
<!DOCTYPE svg PUBLIC "-//W3C//DTD SVG 1.1//EN" "http://www.w3.org/Graphics/SVG/1.1/DTD/svg11.dtd">
<svg version="1.1" id="Capa_1" xmlns="http://www.w3.org/2000/svg" xmlns:xlink="http://www.w3.org/1999/xlink" x="0px" y="0px"
	 width="612.006px" height="612.006px" viewBox="0 0 612.006 612.006" style="enable-background:new 0 0 612.006 612.006;"
	 xml:space="preserve">
<g>
	<g>
		<path d="M204.571,542.446c0,0,45.814,0,45.814-38.248v-396.39c0-38.249-45.814-38.249-45.814-38.249h-75.272
			c0,0-45.814,0-45.814,38.249v396.363c0,38.275,45.814,38.275,45.814,38.275H204.571z"/>
		<path d="M27.85,514.63h27.817V97.376H27.85c0,0-31.127,0-27.566,208.626C3.844,514.63,27.85,514.63,27.85,514.63z"/>
		<path d="M612.006,306.003c0-208.626-34.799-208.626-34.799-208.626H278.202V514.63h299.005
			C577.234,514.63,612.006,514.63,612.006,306.003z M333.837,458.997c-15.355,0-27.818-12.463-27.818-27.818
			c0-15.354,12.462-27.816,27.818-27.816c15.354,0,27.816,12.463,27.816,27.816C361.653,446.534,349.22,458.997,333.837,458.997z
			 M333.837,375.546c-15.355,0-27.818-12.463-27.818-27.816c0-15.355,12.462-27.818,27.818-27.818
			c15.354,0,27.816,12.463,27.816,27.818C361.653,363.083,349.22,375.546,333.837,375.546z M333.837,292.095
			c-15.355,0-27.818-12.462-27.818-27.817c0-15.354,12.462-27.817,27.818-27.817c15.354,0,27.816,12.462,27.816,27.817
			C361.653,279.633,349.22,292.095,333.837,292.095z M417.287,458.997c-15.354,0-27.816-12.463-27.816-27.818
			c0-15.354,12.462-27.816,27.816-27.816c15.355,0,27.817,12.463,27.817,27.816C445.104,446.534,432.67,458.997,417.287,458.997z
			 M417.287,375.546c-15.354,0-27.816-12.463-27.816-27.816c0-15.355,12.462-27.818,27.816-27.818
			c15.355,0,27.817,12.463,27.817,27.818C445.104,363.083,432.67,375.546,417.287,375.546z M417.287,292.095
			c-15.354,0-27.816-12.462-27.816-27.817c0-15.354,12.462-27.817,27.816-27.817c15.355,0,27.817,12.462,27.817,27.817
			C445.104,279.633,432.67,292.095,417.287,292.095z M500.738,458.997c-15.355,0-27.817-12.463-27.817-27.818
			c0-15.354,12.462-27.816,27.817-27.816c15.354,0,27.816,12.463,27.816,27.816C528.555,446.534,516.121,458.997,500.738,458.997z
			 M500.738,375.546c-15.355,0-27.817-12.463-27.817-27.816c0-15.355,12.462-27.818,27.817-27.818
			c15.354,0,27.816,12.463,27.816,27.818C528.555,363.083,516.121,375.546,500.738,375.546z M500.738,292.095
			c-15.355,0-27.817-12.462-27.817-27.817c0-15.354,12.462-27.817,27.817-27.817c15.354,0,27.816,12.462,27.816,27.817
			C528.555,279.633,516.121,292.095,500.738,292.095z M528.555,204.36c0,2.365-2.086,4.284-4.645,4.284H310.665
			c-2.587,0-4.646-1.919-4.646-4.284v-47.066c0-2.365,2.087-4.284,4.646-4.284H523.91c2.587,0,4.645,1.919,4.645,4.284V204.36z"/>
	</g>
</g>
<g>
</g>
<g>
</g>
<g>
</g>
<g>
</g>
<g>
</g>
<g>
</g>
<g>
</g>
<g>
</g>
<g>
</g>
<g>
</g>
<g>
</g>
<g>
</g>
<g>
</g>
<g>
</g>
<g>
</g>
</svg>
