<?xml version="1.0" encoding="iso-8859-1"?>
<!-- Generator: Adobe Illustrator 16.0.0, SVG Export Plug-In . SVG Version: 6.00 Build 0)  -->
<!DOCTYPE svg PUBLIC "-//W3C//DTD SVG 1.1//EN" "http://www.w3.org/Graphics/SVG/1.1/DTD/svg11.dtd">
<svg version="1.1" id="Capa_1" xmlns="http://www.w3.org/2000/svg" xmlns:xlink="http://www.w3.org/1999/xlink" x="0px" y="0px"
	 width="612.006px" height="612.006px" viewBox="0 0 612.006 612.006" style="enable-background:new 0 0 612.006 612.006;"
	 xml:space="preserve">
<g>
	<g>
		<circle cx="500.738" cy="431.18" r="27.817"/>
		<circle cx="500.738" cy="264.278" r="27.817"/>
		<path d="M528.555,157.294c0-2.365-2.058-4.284-4.645-4.284H310.665c-2.559,0-4.646,1.919-4.646,4.284v47.094
			c0,2.337,2.059,4.256,4.646,4.256H523.91c2.559,0,4.645-1.919,4.645-4.284V157.294z"/>
		<path d="M44.54,125.193h11.127V97.376H27.85c0,0-31.127,0-27.566,208.626C3.844,514.63,27.85,514.63,27.85,514.63h27.817v-27.816
			H44.54c0,0-16.69,8.623-16.69-180.811C27.85,116.57,44.54,125.193,44.54,125.193z"/>
		<path d="M204.571,542.446c0,0,45.814,0,45.814-38.248v-396.39c0-38.249-45.814-38.249-45.814-38.249h-75.272
			c0,0-45.814,0-45.814,38.249v396.363c0,38.275,45.814,38.275,45.814,38.275H204.571z M111.301,493.378v-374.75
			c0-21.252,21.948-21.252,21.948-21.252h67.4c0,0,21.919,0,21.919,21.252v374.75c0,21.252-21.919,21.252-21.919,21.252h-67.4
			C133.249,514.63,111.301,514.63,111.301,493.378z"/>
		<circle cx="500.738" cy="347.729" r="27.817"/>
		<circle cx="417.287" cy="264.278" r="27.817"/>
		<circle cx="333.837" cy="431.18" r="27.817"/>
		<path d="M278.202,514.63h299.005c0,0,34.799,0,34.799-208.627c0-208.626-34.771-208.626-34.771-208.626H278.202v27.817h284.262
			c0,0,22.393,0,22.393,180.81c0,180.811-22.393,180.811-22.393,180.811H278.202V514.63z"/>
		<circle cx="333.837" cy="347.729" r="27.817"/>
		<circle cx="333.837" cy="264.278" r="27.817"/>
		<circle cx="417.287" cy="347.729" r="27.817"/>
		<circle cx="417.287" cy="431.18" r="27.817"/>
	</g>
</g>
<g>
</g>
<g>
</g>
<g>
</g>
<g>
</g>
<g>
</g>
<g>
</g>
<g>
</g>
<g>
</g>
<g>
</g>
<g>
</g>
<g>
</g>
<g>
</g>
<g>
</g>
<g>
</g>
<g>
</g>
</svg>
