<?xml version="1.0" encoding="iso-8859-1"?>
<!-- Generator: Adobe Illustrator 16.0.0, SVG Export Plug-In . SVG Version: 6.00 Build 0)  -->
<!DOCTYPE svg PUBLIC "-//W3C//DTD SVG 1.1//EN" "http://www.w3.org/Graphics/SVG/1.1/DTD/svg11.dtd">
<svg version="1.1" id="Capa_1" xmlns="http://www.w3.org/2000/svg" xmlns:xlink="http://www.w3.org/1999/xlink" x="0px" y="0px"
	 width="611.994px" height="611.994px" viewBox="0 0 611.994 611.994" style="enable-background:new 0 0 611.994 611.994;"
	 xml:space="preserve">
<g>
	<g>
		<path d="M256.499,472.156c33.405,55.846,94.451,93.229,164.245,93.229c105.621,0,191.25-85.629,191.25-191.25
			s-85.629-191.25-191.25-191.25c-25.883,0-50.541,5.151-73.058,14.459l156.749,271.499c1.07,1.836,0.255,3.314-1.785,3.314H256.499
			z"/>
		<path d="M227.786,47.862L0.428,441.785c-0.969,1.709-0.229,2.984,1.581,2.984h454.945c1.836,0,2.55-1.326,1.606-2.984
			L231.229,47.862C230.26,46.179,228.729,46.205,227.786,47.862z"/>
	</g>
</g>
<g>
</g>
<g>
</g>
<g>
</g>
<g>
</g>
<g>
</g>
<g>
</g>
<g>
</g>
<g>
</g>
<g>
</g>
<g>
</g>
<g>
</g>
<g>
</g>
<g>
</g>
<g>
</g>
<g>
</g>
</svg>
