<?xml version="1.0" encoding="iso-8859-1"?>
<!-- Generator: Adobe Illustrator 16.0.0, SVG Export Plug-In . SVG Version: 6.00 Build 0)  -->
<!DOCTYPE svg PUBLIC "-//W3C//DTD SVG 1.1//EN" "http://www.w3.org/Graphics/SVG/1.1/DTD/svg11.dtd">
<svg version="1.1" id="Capa_1" xmlns="http://www.w3.org/2000/svg" xmlns:xlink="http://www.w3.org/1999/xlink" x="0px" y="0px"
	 width="624.119px" height="624.119px" viewBox="0 0 624.119 624.119" style="enable-background:new 0 0 624.119 624.119;"
	 xml:space="preserve">
<g>
	<g>
		<path d="M292.114,0H58.069c0,0-52.01,0-52.01,52.088v468.816c0,52.088,52.01,52.088,52.01,52.088h234.044
			c0,0,52.01,0,52.01-52.088V52.088C344.124,0,292.114,0,292.114,0z M110.079,31.752c0-3.225,2.575-5.747,5.747-5.747h118.505
			c3.172,0,5.773,2.575,5.773,5.747v1.534c0,3.25-2.575,5.747-5.747,5.747H115.826c-3.146,0-5.747-2.574-5.747-5.747V31.752z
			 M175.092,551.305c-14.355,0-26.005-11.65-26.005-26.006c0-14.354,11.65-26.004,26.005-26.004
			c14.354,0,26.005,11.65,26.005,26.004C201.097,539.654,189.446,551.305,175.092,551.305z M318.119,481.092H32.064V65.012h286.055
			V481.092z"/>
		<path d="M240.104,598.113H51.568c6.501,13.002,19.529,26.006,45.586,26.006h468.817c52.088,0,52.088-52.012,52.088-52.012V338.064
			c0,0,0-52.01-52.088-52.01H370.129v26.005h156.029v286.054H240.104z M570.366,429.082c14.355,0,26.005,11.65,26.005,26.004
			c0,14.355-11.649,26.006-26.005,26.006c-14.354,0-26.005-11.65-26.005-26.006C544.361,440.732,556.012,429.082,570.366,429.082z"
			/>
	</g>
</g>
<g>
</g>
<g>
</g>
<g>
</g>
<g>
</g>
<g>
</g>
<g>
</g>
<g>
</g>
<g>
</g>
<g>
</g>
<g>
</g>
<g>
</g>
<g>
</g>
<g>
</g>
<g>
</g>
<g>
</g>
</svg>
