<?xml version="1.0" encoding="iso-8859-1"?>
<!-- Generator: Adobe Illustrator 16.0.0, SVG Export Plug-In . SVG Version: 6.00 Build 0)  -->
<!DOCTYPE svg PUBLIC "-//W3C//DTD SVG 1.1//EN" "http://www.w3.org/Graphics/SVG/1.1/DTD/svg11.dtd">
<svg version="1.1" id="Capa_1" xmlns="http://www.w3.org/2000/svg" xmlns:xlink="http://www.w3.org/1999/xlink" x="0px" y="0px"
	 width="792px" height="792px" viewBox="0 0 792 792" style="enable-background:new 0 0 792 792;" xml:space="preserve">
<g>
	<g>
		<path d="M627.272,214.5C643.97,81.081,610.542,0,610.542,0h-132.1h-132c0,0-7.194,17.457-13.233,49.5h35.211
			c0.363-1.782,0.759-3.531,1.122-5.28C370.202,41.316,373.7,33,373.7,33h103.851h3.366h103.851c0,0,3.498,8.316,4.158,11.22
			c10.229,46.134,13.53,102.036,5.478,166.188c-5.741,45.804-20.954,74.613-53.69,112.926c-3.036,3.564-16.368,18.81-19.866,22.935
			c-20.493,24.024-34.32,44.748-40.656,67.32c-5.214-14.421-12.771-28.116-22.901-42.372c-6.304,11.319-13.3,21.615-20.625,31.218
			c9.404,15.973,16.038,33.792,17.688,55.804V660c0,0,0,15.708-13.562,21.582c-13.563,5.874-93.192,12.243-93.192,28.413
			S414.917,726,477.915,726s130.35,0.165,130.35-16.005s-79.629-22.539-93.192-28.413C501.509,675.708,501.542,660,501.542,660
			l0.891-198C507.218,363,610.542,347.919,627.272,214.5z"/>
		<path d="M181.442,66c0,0-33.429,81.081-16.698,214.5c16.5,131.703,117.381,148.104,124.575,243.705V726
			c0,0,0,15.708-13.563,21.582s-93.192,12.243-93.192,28.413S249.917,792,312.914,792s130.35,0.165,130.35-16.005
			s-79.629-22.539-93.192-28.413S336.542,726,336.542,726l0.891-198c4.785-99,108.108-114.081,124.806-247.5
			C478.97,147.081,445.542,66,445.542,66H313.442H181.442z M419.735,99c0,0,3.498,8.316,4.158,11.22
			c10.23,46.134,13.53,102.036,5.479,166.188c-5.742,45.804-20.955,74.613-53.691,112.926c-3.036,3.564-16.368,18.81-19.866,22.935
			c-20.493,24.024-34.32,44.748-40.656,67.32c-8.184-22.572-22.011-43.263-42.504-67.32c-3.531-4.125-16.83-19.404-19.866-22.935
			c-32.736-38.313-47.949-67.122-53.691-112.926c-8.052-64.152-4.785-120.054,5.445-166.188C205.202,107.316,208.7,99,208.7,99
			h103.851h3.366H419.735z"/>
	</g>
</g>
<g>
</g>
<g>
</g>
<g>
</g>
<g>
</g>
<g>
</g>
<g>
</g>
<g>
</g>
<g>
</g>
<g>
</g>
<g>
</g>
<g>
</g>
<g>
</g>
<g>
</g>
<g>
</g>
<g>
</g>
</svg>
