<?xml version="1.0" encoding="iso-8859-1"?>
<!-- Generator: Adobe Illustrator 16.0.0, SVG Export Plug-In . SVG Version: 6.00 Build 0)  -->
<!DOCTYPE svg PUBLIC "-//W3C//DTD SVG 1.1//EN" "http://www.w3.org/Graphics/SVG/1.1/DTD/svg11.dtd">
<svg version="1.1" id="Capa_1" xmlns="http://www.w3.org/2000/svg" xmlns:xlink="http://www.w3.org/1999/xlink" x="0px" y="0px"
	 width="792px" height="792px" viewBox="0 0 792 792" style="enable-background:new 0 0 792 792;" xml:space="preserve">
<g>
	<g>
		<path d="M577.332,287.928v-99.36c0,0,0-188.568-181.332-188.568c-84.312,0-129.276,40.824-153.288,84.42
			c-27.468,49.896,8.532,62.172,28.98,22.716C290.52,70.848,326.628,36,396,36c144.756,0,145.332,152.568,145.332,152.568v99.36
			H577.332z"/>
		<path d="M108,325.476v429.048C108,775.224,124.02,792,144.036,792h503.928C667.872,792,684,775.224,684,754.524V325.476
			c0-20.7-16.02-37.476-36.036-37.476H144.036C124.128,288,108,304.776,108,325.476z M396,433.729c39.744,0,72,33.768,72,75.42
			c0,27.936-14.472,52.308-36,65.34v66.672c0,0,0,37.728-35.928,37.728C360.108,678.852,360,641.16,360,641.16v-66.672
			c-21.528-13.032-36-37.404-36-65.34C324,467.496,356.22,433.729,396,433.729z"/>
	</g>
</g>
<g>
</g>
<g>
</g>
<g>
</g>
<g>
</g>
<g>
</g>
<g>
</g>
<g>
</g>
<g>
</g>
<g>
</g>
<g>
</g>
<g>
</g>
<g>
</g>
<g>
</g>
<g>
</g>
<g>
</g>
</svg>
