<?xml version="1.0" encoding="iso-8859-1"?>
<!-- Generator: Adobe Illustrator 16.0.0, SVG Export Plug-In . SVG Version: 6.00 Build 0)  -->
<!DOCTYPE svg PUBLIC "-//W3C//DTD SVG 1.1//EN" "http://www.w3.org/Graphics/SVG/1.1/DTD/svg11.dtd">
<svg version="1.1" id="Capa_1" xmlns="http://www.w3.org/2000/svg" xmlns:xlink="http://www.w3.org/1999/xlink" x="0px" y="0px"
	 width="612px" height="612px" viewBox="0 0 612 612" style="enable-background:new 0 0 612 612;" xml:space="preserve">
<g>
	<path d="M0,389.581C0,444.8,41.338,490.616,95.611,499.462l19.139,1.529h382.5l19.139-1.529C570.662,490.616,612,444.8,612,389.581
		c0-48.516-31.936-89.798-76.527-105.098c-1.614-96.084-82.343-173.474-181.653-173.474c-71.632,0-133.583,40.253-163.181,98.755
		c-13.993-15.022-34.244-24.48-56.777-24.48c-42.256,0-76.5,33.271-76.5,74.274c0,10.71,2.336,20.892,6.509,30.099
		C26.038,307.851,0,345.767,0,389.581z M97.225,299.644l-9.208-24.063c-2.142-4.618-3.227-9.542-3.227-14.66
		c0-19.973,20.196-49.655,51.881-49.655c10.877,0,23.618,5.424,30.934,13.13l29.905,20.808l25.426-33.91
		c28.819-42.951,77.39-72.466,132.136-72.466c77.251,0,153.501,73.635,154.725,147.242v26.094l26.9,7.203
		c30.321,10.211,50.657,37.666,50.657,68.322c0,35.523-36.387,80.033-73.051,85.875h-16.83H389.454v26.9h-28.18V375.282h55.998
		L306,250.1L194.727,375.282h55.525v125.182h-27.707v-26.9H117.699l-12.713-1.002c-36.665-5.842-77.167-49.322-77.167-84.873
		C27.818,359.927,51.491,315.417,97.225,299.644z"/>
</g>
<g>
</g>
<g>
</g>
<g>
</g>
<g>
</g>
<g>
</g>
<g>
</g>
<g>
</g>
<g>
</g>
<g>
</g>
<g>
</g>
<g>
</g>
<g>
</g>
<g>
</g>
<g>
</g>
<g>
</g>
</svg>
