<?xml version="1.0" encoding="iso-8859-1"?>
<!-- Generator: Adobe Illustrator 16.0.0, SVG Export Plug-In . SVG Version: 6.00 Build 0)  -->
<!DOCTYPE svg PUBLIC "-//W3C//DTD SVG 1.1//EN" "http://www.w3.org/Graphics/SVG/1.1/DTD/svg11.dtd">
<svg version="1.1" id="Capa_1" xmlns="http://www.w3.org/2000/svg" xmlns:xlink="http://www.w3.org/1999/xlink" x="0px" y="0px"
	 width="792px" height="792px" viewBox="0 0 792 792" style="enable-background:new 0 0 792 792;" xml:space="preserve">
<g>
	<g>
		<path d="M178.2,316.8c-19.8,0-19.8,19.879-19.8,19.879v113.533c0,50.729,22.255,197.406,217.8,206.673V752.4H233.64V792h316.801
			v-39.6H415.8v-95.516c195.545-9.267,217.799-155.944,217.799-206.673V342.976c0,0,0.516-26.176-19.641-26.176
			s-20.156,26.176-20.156,26.176v104.781c0,52.392-23.76,170.677-197.842,170.677c-174.082,0-197.921-118.285-197.921-170.677
			V336.679C198.079,336.679,198,316.8,178.2,316.8z"/>
		<path d="M514.8,411.84V102.96c0,0,0-102.96-118.8-102.96C277.2,0,277.2,102.96,277.2,102.96v308.88c0,0,0,102.96,118.8,102.96
			C514.8,514.8,514.8,411.84,514.8,411.84z M316.8,420.75V94.05c0,0,0-54.45,79.2-54.45c79.201,0,79.201,54.45,79.201,54.45v326.7
			c0,0,0,54.45-79.201,54.45C316.8,475.2,316.8,420.75,316.8,420.75z"/>
	</g>
</g>
<g>
</g>
<g>
</g>
<g>
</g>
<g>
</g>
<g>
</g>
<g>
</g>
<g>
</g>
<g>
</g>
<g>
</g>
<g>
</g>
<g>
</g>
<g>
</g>
<g>
</g>
<g>
</g>
<g>
</g>
</svg>
