<?xml version="1.0" encoding="iso-8859-1"?>
<!-- Generator: Adobe Illustrator 16.0.0, SVG Export Plug-In . SVG Version: 6.00 Build 0)  -->
<!DOCTYPE svg PUBLIC "-//W3C//DTD SVG 1.1//EN" "http://www.w3.org/Graphics/SVG/1.1/DTD/svg11.dtd">
<svg version="1.1" id="Capa_1" xmlns="http://www.w3.org/2000/svg" xmlns:xlink="http://www.w3.org/1999/xlink" x="0px" y="0px"
	 width="612px" height="612px" viewBox="0 0 612 612" style="enable-background:new 0 0 612 612;" xml:space="preserve">
<g>
	<g>
		<path d="M278.182,0v55.636H16.107c0,0-16.107,0-16.107,13.909s16.107,13.909,16.107,13.909h579.787c0,0,16.106,0,16.106-13.909
			s-16.106-13.909-16.106-13.909H333.818V0H278.182z"/>
		<path d="M16.107,612h579.787c0,0,16.106,0,16.106-13.909s-16.106-13.909-16.106-13.909H16.107c0,0-16.107,0-16.107,13.909
			S16.107,612,16.107,612z"/>
		<path d="M93.274,111.272c0,0-65.456,0-65.456,63.593v317.934c0,63.564,65.456,63.564,65.456,63.564h425.451
			c0,0,65.456,0,65.456-63.592V174.865c0-63.593-65.456-63.593-65.456-63.593H93.274z M556.363,171.555v324.555
			c0,32.437-33.382,32.437-33.382,32.437H89.018c0,0-33.382,0-33.382-32.464V171.555c0-32.464,33.382-32.464,33.382-32.464h433.963
			C522.981,139.091,556.363,139.091,556.363,171.555z"/>
	</g>
</g>
<g>
</g>
<g>
</g>
<g>
</g>
<g>
</g>
<g>
</g>
<g>
</g>
<g>
</g>
<g>
</g>
<g>
</g>
<g>
</g>
<g>
</g>
<g>
</g>
<g>
</g>
<g>
</g>
<g>
</g>
</svg>
