<?xml version="1.0" encoding="iso-8859-1"?>
<!-- Generator: Adobe Illustrator 16.0.0, SVG Export Plug-In . SVG Version: 6.00 Build 0)  -->
<!DOCTYPE svg PUBLIC "-//W3C//DTD SVG 1.1//EN" "http://www.w3.org/Graphics/SVG/1.1/DTD/svg11.dtd">
<svg version="1.1" id="Capa_1" xmlns="http://www.w3.org/2000/svg" xmlns:xlink="http://www.w3.org/1999/xlink" x="0px" y="0px"
	 width="792px" height="792px" viewBox="0 0 792 792" style="enable-background:new 0 0 792 792;" xml:space="preserve">
<g>
	<g>
		<path d="M156.553,280.5c16.5,131.703,117.381,148.104,124.575,243.705V726c0,0,0,15.708-13.563,21.582
			s-93.192,12.243-93.192,28.413S241.726,792,304.723,792c62.996,0,130.35,0.165,130.35-16.005s-79.629-22.539-93.192-28.413
			c-13.53-5.874-13.53-21.582-13.53-21.582l0.792-198c4.785-99,108.107-114.081,124.806-247.5C470.679,147.081,437.25,66,437.25,66
			h-264C173.25,66,139.821,147.081,156.553,280.5z"/>
		<path d="M635.448,214.5C652.179,81.081,618.75,0,618.75,0h-264c0,0-7.193,17.457-13.232,49.5h109.823
			c0,0,36.993,89.76,18.48,237.468c-5.313,42.504-18.579,74.151-34.914,100.287c14.586,19.965,25.509,41.745,27.687,70.917V660
			c0,0,0,15.708-13.562,21.582c-13.563,5.874-93.192,12.243-93.192,28.413S423.225,726,486.222,726s130.351,0.165,130.351-16.005
			s-79.629-22.539-93.192-28.413C509.85,675.708,509.85,660,509.85,660l0.792-198C515.427,363,618.75,347.919,635.448,214.5z"/>
	</g>
</g>
<g>
</g>
<g>
</g>
<g>
</g>
<g>
</g>
<g>
</g>
<g>
</g>
<g>
</g>
<g>
</g>
<g>
</g>
<g>
</g>
<g>
</g>
<g>
</g>
<g>
</g>
<g>
</g>
<g>
</g>
</svg>
